<?xml version="1.0" encoding="UTF-8" standalone="no"?>
<svg
   xmlns:dc="http://purl.org/dc/elements/1.1/"
   xmlns:cc="http://creativecommons.org/ns#"
   xmlns:rdf="http://www.w3.org/1999/02/22-rdf-syntax-ns#"
   xmlns:svg="http://www.w3.org/2000/svg"
   xmlns="http://www.w3.org/2000/svg"
   xmlns:sodipodi="http://sodipodi.sourceforge.net/DTD/sodipodi-0.dtd"
   xmlns:inkscape="http://www.inkscape.org/namespaces/inkscape"
   width="1024"
   height="1024"
   viewBox="0 0 1024 1024"
   version="1.1"
   id="svg3821"
   sodipodi:docname="bookHardcoverClosed01.svg"
   inkscape:version="0.92.3 (2405546, 2018-03-11)">
  <metadata
     id="metadata3827">
    <rdf:RDF>
      <cc:Work
         rdf:about="">
        <dc:format>image/svg+xml</dc:format>
        <dc:type
           rdf:resource="http://purl.org/dc/dcmitype/StillImage" />
      </cc:Work>
    </rdf:RDF>
  </metadata>
  <defs
     id="defs3825" />
  <sodipodi:namedview
     pagecolor="#ffffff"
     bordercolor="#666666"
     borderopacity="1"
     objecttolerance="10"
     gridtolerance="10"
     guidetolerance="10"
     inkscape:pageopacity="0"
     inkscape:pageshadow="2"
     inkscape:window-width="1920"
     inkscape:window-height="1056"
     id="namedview3823"
     showgrid="false"
     inkscape:zoom="0.79763794"
     inkscape:cx="512"
     inkscape:cy="512"
     inkscape:window-x="0"
     inkscape:window-y="24"
     inkscape:window-maximized="1"
     inkscape:current-layer="svg3821" />
  <desc
     id="desc3715">'items.blend', bookHardcover, (Blender 2.79 (sub 0))</desc>
  <polygon
     stroke="black"
     stroke-width="1"
     fill="rgb(204, 204, 204)"
     fill-opacity="0.25"
     points="894.000,816.000 894.000,416.000 598.000,416.000 598.000,816.000 "
     id="polygon3717"
     style="stroke:none" />
  <polygon
     stroke="black"
     stroke-width="1"
     fill="rgb(204, 204, 204)"
     fill-opacity="0.25"
     points="426.000,816.000 426.000,416.000 130.000,416.000 130.000,816.000 "
     id="polygon3763"
     style="stroke:none" />
  <g
     id="g5189">
    <polygon
       style="stroke:none"
       id="polygon3735"
       points="488.480,0.000 488.480,400.000 512.000,400.000 512.000,0.000 "
       fill-opacity="0.25"
       fill="rgb(204, 204, 204)"
       stroke-width="1"
       stroke="black" />
    <polygon
       style="stroke:none"
       id="polygon3745"
       points="535.520,0.000 535.520,400.000 559.040,400.000 559.040,0.000 "
       fill-opacity="0.25"
       fill="rgb(204, 204, 204)"
       stroke-width="1"
       stroke="black" />
    <polygon
       style="stroke:none"
       id="polygon3747"
       points="535.520,0.000 559.040,0.000 559.040,254.444 535.520,254.444 "
       fill-opacity="0.25"
       fill="rgb(204, 204, 204)"
       stroke-width="1"
       stroke="black" />
    <polygon
       style="stroke:none"
       id="polygon3749"
       points="488.480,254.444 464.960,254.444 464.960,0.000 488.480,0.000 "
       fill-opacity="0.25"
       fill="rgb(204, 204, 204)"
       stroke-width="1"
       stroke="black" />
    <polygon
       style="stroke:none"
       id="polygon3755"
       points="488.480,0.000 512.000,0.000 512.000,254.444 488.480,254.444 "
       fill-opacity="0.25"
       fill="rgb(204, 204, 204)"
       stroke-width="1"
       stroke="black" />
    <polygon
       style="stroke:none"
       id="polygon3757"
       points="535.520,254.444 512.000,254.444 512.000,0.000 535.520,0.000 "
       fill-opacity="0.25"
       fill="rgb(204, 204, 204)"
       stroke-width="1"
       stroke="black" />
    <polygon
       style="stroke:none"
       id="polygon3775"
       points="464.960,0.000 488.480,0.000 488.480,254.444 464.960,254.444 "
       fill-opacity="0.25"
       fill="rgb(204, 204, 204)"
       stroke-width="1"
       stroke="black" />
    <polygon
       style="stroke:none"
       id="polygon3777"
       points="512.000,254.444 488.480,254.444 488.480,0.000 512.000,0.000 "
       fill-opacity="0.25"
       fill="rgb(204, 204, 204)"
       stroke-width="1"
       stroke="black" />
    <polygon
       style="stroke:none"
       id="polygon3781"
       points="464.960,0.000 464.960,400.000 488.480,400.000 488.480,0.000 "
       fill-opacity="0.25"
       fill="rgb(204, 204, 204)"
       stroke-width="1"
       stroke="black" />
    <polygon
       style="stroke:none"
       id="polygon3787"
       points="559.040,254.444 535.520,254.444 535.520,0.000 559.040,0.000 "
       fill-opacity="0.25"
       fill="rgb(204, 204, 204)"
       stroke-width="1"
       stroke="black" />
    <polygon
       style="stroke:none"
       id="polygon3789"
       points="512.000,0.000 535.520,0.000 535.520,254.444 512.000,254.444 "
       fill-opacity="0.25"
       fill="rgb(204, 204, 204)"
       stroke-width="1"
       stroke="black" />
    <polygon
       style="stroke:none"
       id="polygon3791"
       points="512.000,0.000 512.000,400.000 535.520,400.000 535.520,0.000 "
       fill-opacity="0.25"
       fill="rgb(204, 204, 204)"
       stroke-width="1"
       stroke="black" />
  </g>
  <polygon
     stroke="black"
     stroke-width="1"
     fill="rgb(204, 204, 204)"
     fill-opacity="0.25"
     points="598.000,400.000 598.000,0.000 878.000,0.000 878.000,400.000 "
     id="polygon3801"
     style="stroke:none" />
  <polygon
     stroke="black"
     stroke-width="1"
     fill="rgb(204, 204, 204)"
     fill-opacity="0.25"
     points="426.000,-0.000 146.000,-0.000 146.000,399.999 426.000,400.000 "
     id="polygon3803"
     style="stroke:none" />
  <g
     id="g5227">
    <polygon
       style="stroke:none"
       id="polygon3719"
       points="443.200,832.000 443.200,944.000 464.960,944.000 464.960,832.000 "
       fill-opacity="0.25"
       fill="rgb(204, 204, 204)"
       stroke-width="1"
       stroke="black" />
    <polygon
       style="stroke:none"
       id="polygon3721"
       points="426.000,416.000 426.000,816.000 443.200,816.000 443.200,416.000 "
       fill-opacity="0.25"
       fill="rgb(204, 204, 204)"
       stroke-width="1"
       stroke="black" />
    <polygon
       style="stroke:none"
       id="polygon3723"
       points="559.040,832.000 559.040,944.000 580.800,944.000 580.800,832.000 "
       fill-opacity="0.25"
       fill="rgb(204, 204, 204)"
       stroke-width="1"
       stroke="black" />
    <polygon
       style="stroke:none"
       id="polygon3725"
       points="559.040,816.000 580.800,816.000 580.800,832.000 "
       fill-opacity="0.25"
       fill="rgb(204, 204, 204)"
       stroke-width="1"
       stroke="black" />
    <polygon
       style="stroke:none"
       id="polygon3727"
       points="559.040,400.000 580.800,400.000 580.800,416.000 "
       fill-opacity="0.25"
       fill="rgb(204, 204, 204)"
       stroke-width="1"
       stroke="black" />
    <polygon
       style="stroke:none"
       id="polygon3729"
       points="488.480,400.000 512.000,400.000 512.000,416.000 488.480,416.000 "
       fill-opacity="0.25"
       fill="rgb(204, 204, 204)"
       stroke-width="1"
       stroke="black" />
    <polygon
       style="stroke:none"
       id="polygon3731"
       points="488.480,816.000 512.000,816.000 512.000,832.000 488.480,832.000 "
       fill-opacity="0.25"
       fill="rgb(204, 204, 204)"
       stroke-width="1"
       stroke="black" />
    <polygon
       style="stroke:none"
       id="polygon3733"
       points="464.960,816.000 464.960,832.000 443.200,832.000 "
       fill-opacity="0.25"
       fill="rgb(204, 204, 204)"
       stroke-width="1"
       stroke="black" />
    <polygon
       style="stroke:none"
       id="polygon3737"
       points="464.960,816.000 464.960,416.000 443.200,416.000 443.200,816.000 "
       fill-opacity="0.25"
       fill="rgb(204, 204, 204)"
       stroke-width="1"
       stroke="black" />
    <polygon
       style="stroke:none"
       id="polygon3739"
       points="464.960,400.000 464.960,416.000 443.200,416.161 "
       fill-opacity="0.25"
       fill="rgb(204, 204, 204)"
       stroke-width="1"
       stroke="black" />
    <polygon
       style="stroke:none"
       id="polygon3741"
       points="535.520,400.000 559.040,400.000 559.040,416.000 535.520,416.000 "
       fill-opacity="0.25"
       fill="rgb(204, 204, 204)"
       stroke-width="1"
       stroke="black" />
    <polygon
       style="stroke:none"
       id="polygon3743"
       points="535.520,816.000 559.040,816.000 559.040,832.000 535.520,832.000 "
       fill-opacity="0.25"
       fill="rgb(204, 204, 204)"
       stroke-width="1"
       stroke="black" />
    <polygon
       style="stroke:none"
       id="polygon3751"
       points="464.960,832.000 443.200,832.000 443.200,944.000 464.960,944.000 "
       fill-opacity="0.25"
       fill="rgb(204, 204, 204)"
       stroke-width="1"
       stroke="black" />
    <polygon
       style="stroke:none"
       id="polygon3753"
       points="580.800,832.000 559.040,832.000 559.040,944.000 580.800,944.000 "
       fill-opacity="0.25"
       fill="rgb(204, 204, 204)"
       stroke-width="1"
       stroke="black" />
    <polygon
       style="stroke:none"
       id="polygon3759"
       points="580.800,832.000 559.040,832.000 559.040,944.000 580.800,944.000 "
       fill-opacity="0.25"
       fill="rgb(204, 204, 204)"
       stroke-width="1"
       stroke="black" />
    <polygon
       style="stroke:none"
       id="polygon3761"
       points="464.960,832.000 443.200,832.000 443.200,944.000 464.960,944.000 "
       fill-opacity="0.25"
       fill="rgb(204, 204, 204)"
       stroke-width="1"
       stroke="black" />
    <polygon
       style="stroke:none"
       id="polygon3765"
       points="598.000,816.000 598.000,416.000 580.800,416.000 580.800,816.000 "
       fill-opacity="0.25"
       fill="rgb(204, 204, 204)"
       stroke-width="1"
       stroke="black" />
    <polygon
       style="stroke:none"
       id="polygon3767"
       points="580.800,816.000 580.800,416.000 559.040,416.000 559.040,816.000 "
       fill-opacity="0.25"
       fill="rgb(204, 204, 204)"
       stroke-width="1"
       stroke="black" />
    <polygon
       style="stroke:none"
       id="polygon3769"
       points="488.480,816.000 488.480,416.000 464.960,416.000 464.960,816.000 "
       fill-opacity="0.25"
       fill="rgb(204, 204, 204)"
       stroke-width="1"
       stroke="black" />
    <polygon
       style="stroke:none"
       id="polygon3771"
       points="535.520,816.000 535.520,416.000 512.000,416.000 512.000,816.000 "
       fill-opacity="0.25"
       fill="rgb(204, 204, 204)"
       stroke-width="1"
       stroke="black" />
    <polygon
       style="stroke:none"
       id="polygon3773"
       points="512.000,816.000 512.000,416.000 488.480,416.000 488.480,816.000 "
       fill-opacity="0.25"
       fill="rgb(204, 204, 204)"
       stroke-width="1"
       stroke="black" />
    <polygon
       style="stroke:none"
       id="polygon3779"
       points="512.000,400.000 535.520,400.000 535.520,416.000 512.000,416.000 "
       fill-opacity="0.25"
       fill="rgb(204, 204, 204)"
       stroke-width="1"
       stroke="black" />
    <polygon
       style="stroke:none"
       id="polygon3783"
       points="464.960,816.000 488.480,816.000 488.480,832.000 464.960,832.000 "
       fill-opacity="0.25"
       fill="rgb(204, 204, 204)"
       stroke-width="1"
       stroke="black" />
    <polygon
       style="stroke:none"
       id="polygon3785"
       points="559.040,816.000 559.040,416.000 535.520,416.000 535.520,816.000 "
       fill-opacity="0.25"
       fill="rgb(204, 204, 204)"
       stroke-width="1"
       stroke="black" />
    <polygon
       style="stroke:none"
       id="polygon3793"
       points="512.000,816.000 535.520,816.000 535.520,832.000 512.000,832.000 "
       fill-opacity="0.25"
       fill="rgb(204, 204, 204)"
       stroke-width="1"
       stroke="black" />
    <polygon
       style="stroke:none"
       id="polygon3795"
       points="464.960,400.000 488.480,400.000 488.480,416.000 464.960,416.000 "
       fill-opacity="0.25"
       fill="rgb(204, 204, 204)"
       stroke-width="1"
       stroke="black" />
    <polygon
       style="stroke:none"
       id="polygon3797"
       points="443.200,944.000 443.200,832.000 395.200,832.000 395.200,944.000 "
       fill-opacity="0.25"
       fill="rgb(204, 204, 204)"
       stroke-width="1"
       stroke="black" />
    <polygon
       style="stroke:none"
       id="polygon3799"
       points="628.800,832.000 580.800,832.000 580.800,944.000 628.800,944.000 "
       fill-opacity="0.25"
       fill="rgb(204, 204, 204)"
       stroke-width="1"
       stroke="black" />
    <polygon
       style="stroke:none"
       id="polygon3805"
       points="488.480,944.000 464.960,944.000 464.960,832.000 488.480,832.000 "
       fill-opacity="0.25"
       fill="rgb(204, 204, 204)"
       stroke-width="1"
       stroke="black" />
    <polygon
       style="stroke:none"
       id="polygon3807"
       points="512.000,944.000 488.480,944.000 488.480,832.000 512.000,832.000 "
       fill-opacity="0.25"
       fill="rgb(204, 204, 204)"
       stroke-width="1"
       stroke="black" />
    <polygon
       style="stroke:none"
       id="polygon3809"
       points="512.000,832.000 535.520,832.000 535.520,944.000 512.000,944.000 "
       fill-opacity="0.25"
       fill="rgb(204, 204, 204)"
       stroke-width="1"
       stroke="black" />
    <polygon
       style="stroke:none"
       id="polygon3811"
       points="559.040,944.000 535.520,944.000 535.520,832.000 559.040,832.000 "
       fill-opacity="0.25"
       fill="rgb(204, 204, 204)"
       stroke-width="1"
       stroke="black" />
    <polygon
       style="stroke:none"
       id="polygon3813"
       points="443.200,400.000 464.960,400.000 443.200,416.161 "
       fill-opacity="0.25"
       fill="rgb(204, 204, 204)"
       stroke-width="1"
       stroke="black" />
    <polygon
       style="stroke:none"
       id="polygon3815"
       points="559.040,832.000 559.040,816.000 580.800,832.000 "
       fill-opacity="0.25"
       fill="rgb(204, 204, 204)"
       stroke-width="1"
       stroke="black" />
    <polygon
       style="stroke:none"
       id="polygon3817"
       points="559.040,416.000 559.040,400.000 580.800,416.000 "
       fill-opacity="0.25"
       fill="rgb(204, 204, 204)"
       stroke-width="1"
       stroke="black" />
    <polygon
       style="stroke:none"
       id="polygon3819"
       points="443.200,816.000 464.960,816.000 443.200,832.000 "
       fill-opacity="0.25"
       fill="rgb(204, 204, 204)"
       stroke-width="1"
       stroke="black" />
  </g>
</svg>
