<?xml version="1.0" encoding="UTF-8" standalone="no"?>
<svg
   xmlns:dc="http://purl.org/dc/elements/1.1/"
   xmlns:cc="http://creativecommons.org/ns#"
   xmlns:rdf="http://www.w3.org/1999/02/22-rdf-syntax-ns#"
   xmlns:svg="http://www.w3.org/2000/svg"
   xmlns="http://www.w3.org/2000/svg"
   xmlns:sodipodi="http://sodipodi.sourceforge.net/DTD/sodipodi-0.dtd"
   xmlns:inkscape="http://www.inkscape.org/namespaces/inkscape"
   width="256"
   height="256"
   viewBox="0 0 256 256"
   version="1.1"
   id="svg312"
   sodipodi:docname="craftsmanDoor.svg"
   inkscape:export-filename="/home/www/psde.equus.et/html/resources/data/craftsmanDoor.svg.png"
   inkscape:export-xdpi="96"
   inkscape:export-ydpi="96"
   inkscape:version="0.92.3 (2405546, 2018-03-11)">
  <metadata
     id="metadata318">
    <rdf:RDF>
      <cc:Work
         rdf:about="">
        <dc:format>image/svg+xml</dc:format>
        <dc:type
           rdf:resource="http://purl.org/dc/dcmitype/StillImage" />
      </cc:Work>
    </rdf:RDF>
  </metadata>
  <defs
     id="defs316" />
  <sodipodi:namedview
     pagecolor="#ffffff"
     bordercolor="#666666"
     borderopacity="1"
     objecttolerance="10"
     gridtolerance="10"
     guidetolerance="10"
     inkscape:pageopacity="0"
     inkscape:pageshadow="2"
     inkscape:window-width="1920"
     inkscape:window-height="1056"
     id="namedview314"
     showgrid="false"
     inkscape:zoom="3.1905518"
     inkscape:cx="90.213727"
     inkscape:cy="87.026783"
     inkscape:window-x="0"
     inkscape:window-y="24"
     inkscape:window-maximized="1"
     inkscape:current-layer="svg312" />
  <desc
     id="desc2">'craftsmanWalls.blend', craftsmanDoor.001, (Blender 2.79 (sub 0))</desc>
  <path
     style="fill:#28170b;fill-opacity:1;stroke:none"
     d="m 175,1 c 0,96.406819 0,170.80431 0,254 h 6 c 0,-86.47657 0,-176.714753 0,-254 z"
     id="polygon4"
     inkscape:connector-curvature="0"
     sodipodi:nodetypes="ccccc" />
  <path
     style="fill:#28170b;fill-opacity:1;stroke:none"
     d="m 1,1 c 0,85.702452 0,171.43517 0,254 63.785722,0 116.38418,0 170,0 0,-87.38506 0,-169.814202 0,-254 C 113.01396,1 52.758019,1 1,1 Z"
     id="polygon6"
     inkscape:connector-curvature="0"
     sodipodi:nodetypes="ccccc" />
  <path
     style="fill:#28170b;fill-opacity:1;stroke:none"
     d="m 185,30 c 0,58.940323 0,120.27607 0,171 h 6 c 0,-57 0,-114 0,-171 z"
     id="polygon8"
     inkscape:connector-curvature="0"
     sodipodi:nodetypes="ccccc" />
  <path
     style="fill:#371f0f;fill-opacity:1;stroke:none"
     d="M 105 20 L 105 97 L 153 97 L 153 20 L 105 20 z "
     id="polygon248" />
  <path
     style="fill:#371f0f;fill-opacity:1;stroke:none"
     d="M 105 134 L 105 224 L 153 224 L 153 134 L 105 134 z "
     id="polygon250" />
  <path
     style="fill:#371f0f;fill-opacity:1;stroke:none"
     d="M 19 20 L 19 97 L 67 97 L 67 20 L 19 20 z "
     id="polygon252" />
  <path
     style="fill:#371f0f;fill-opacity:1;stroke:none"
     d="M 19 134 L 19 224 L 67 224 L 67 134 L 19 134 z "
     id="polygon280" />
</svg>
