<?xml version="1.0" standalone="no"?>
<!DOCTYPE svg PUBLIC "-//W3C//DTD SVG 1.1//EN" 
  "http://www.w3.org/Graphics/SVG/1.1/DTD/svg11.dtd">
<svg width="1024" height="1024" viewBox="0 0 1024 1024"
     xmlns="http://www.w3.org/2000/svg" version="1.1">
<desc>'items.blend', hornsCurved04, (Blender 2.79 (sub 0))</desc>
<polygon stroke="black" stroke-width="1" fill="grey" fill-opacity="0.25" points="798.910,1024.000 875.763,792.565 782.341,792.565 671.652,1024.000 " />
<polygon stroke="black" stroke-width="1" fill="grey" fill-opacity="0.25" points="671.652,1024.000 742.460,792.565 621.531,792.565 496.652,1024.000 " />
<polygon stroke="black" stroke-width="1" fill="grey" fill-opacity="0.25" points="398.603,1024.000 333.190,792.565 256.954,792.565 279.265,1024.000 " />
<polygon stroke="black" stroke-width="1" fill="grey" fill-opacity="0.25" points="880.549,1024.000 955.349,792.565 898.391,792.565 798.910,1024.000 " />
<polygon stroke="black" stroke-width="1" fill="grey" fill-opacity="0.25" points="496.652,1024.000 503.807,792.565 417.319,792.565 398.603,1024.000 " />
<polygon stroke="black" stroke-width="1" fill="grey" fill-opacity="0.25" points="279.265,1024.000 212.336,792.565 111.357,792.565 145.485,1024.000 " />
<polygon stroke="black" stroke-width="1" fill="grey" fill-opacity="0.25" points="742.460,792.565 752.171,611.474 656.096,611.474 621.531,792.565 " />
<polygon stroke="black" stroke-width="1" fill="grey" fill-opacity="0.25" points="333.190,792.565 302.464,611.474 227.735,611.474 256.954,792.565 " />
<polygon stroke="black" stroke-width="1" fill="grey" fill-opacity="0.25" points="955.349,792.565 977.770,611.474 913.403,611.474 898.391,792.565 " />
<polygon stroke="black" stroke-width="1" fill="grey" fill-opacity="0.25" points="503.807,792.565 497.987,611.474 418.607,611.474 417.319,792.565 " />
<polygon stroke="black" stroke-width="1" fill="grey" fill-opacity="0.25" points="212.336,792.565 151.789,611.474 80.174,611.474 111.357,792.565 " />
<polygon stroke="black" stroke-width="1" fill="grey" fill-opacity="0.25" points="875.763,792.565 901.590,611.474 817.601,611.474 782.341,792.565 " />
<polygon stroke="black" stroke-width="1" fill="grey" fill-opacity="0.25" points="497.987,611.474 505.531,457.476 435.507,457.476 418.607,611.474 " />
<polygon stroke="black" stroke-width="1" fill="grey" fill-opacity="0.25" points="151.789,611.474 114.446,457.476 51.539,457.476 80.174,611.474 " />
<polygon stroke="black" stroke-width="1" fill="grey" fill-opacity="0.25" points="901.590,611.474 904.967,457.476 829.126,457.476 817.601,611.474 " />
<polygon stroke="black" stroke-width="1" fill="grey" fill-opacity="0.25" points="752.171,611.474 755.338,457.476 671.204,457.476 656.096,611.474 " />
<polygon stroke="black" stroke-width="1" fill="grey" fill-opacity="0.25" points="302.464,611.474 306.530,457.476 241.010,457.476 227.735,611.474 " />
<polygon stroke="black" stroke-width="1" fill="grey" fill-opacity="0.25" points="977.770,611.474 963.334,457.476 908.260,457.476 913.403,611.474 " />
<polygon stroke="black" stroke-width="1" fill="grey" fill-opacity="0.25" points="306.530,457.476 333.439,323.499 281.134,323.499 241.010,457.476 " />
<polygon stroke="black" stroke-width="1" fill="grey" fill-opacity="0.25" points="963.334,457.476 935.134,323.499 884.226,323.499 908.260,457.476 " />
<polygon stroke="black" stroke-width="1" fill="grey" fill-opacity="0.25" points="505.531,457.476 518.208,323.499 457.803,323.499 435.507,457.476 " />
<polygon stroke="black" stroke-width="1" fill="grey" fill-opacity="0.25" points="114.446,457.476 100.055,323.499 44.091,323.499 51.539,457.476 " />
<polygon stroke="black" stroke-width="1" fill="grey" fill-opacity="0.25" points="904.967,457.476 878.790,323.499 817.023,323.499 829.126,457.476 " />
<polygon stroke="black" stroke-width="1" fill="grey" fill-opacity="0.25" points="755.338,457.476 740.802,323.499 667.271,323.499 671.204,457.476 " />
<polygon stroke="black" stroke-width="1" fill="grey" fill-opacity="0.25" points="518.208,323.499 540.183,182.551 495.822,182.551 457.803,323.499 " />
<polygon stroke="black" stroke-width="1" fill="grey" fill-opacity="0.25" points="100.055,323.499 98.305,182.551 56.821,182.551 44.091,323.499 " />
<polygon stroke="black" stroke-width="1" fill="grey" fill-opacity="0.25" points="886.495,182.551 804.287,35.763 847.149,182.551 " />
<polygon stroke="black" stroke-width="1" fill="grey" fill-opacity="0.25" points="935.134,323.499 886.495,182.551 847.149,182.551 884.226,323.499 " />
<polygon stroke="black" stroke-width="1" fill="grey" fill-opacity="0.25" points="333.439,323.499 390.413,182.551 356.084,182.551 281.134,323.499 " />
<polygon stroke="black" stroke-width="1" fill="grey" fill-opacity="0.25" points="740.802,323.499 690.398,182.551 636.910,182.551 667.271,323.499 " />
<polygon stroke="black" stroke-width="1" fill="grey" fill-opacity="0.25" points="878.790,323.499 806.541,182.551 765.091,182.551 817.023,323.499 " />
<polygon stroke="black" stroke-width="1" fill="grey" fill-opacity="0.25" points="390.413,182.551 479.880,35.763 356.084,182.551 " />
<polygon stroke="black" stroke-width="1" fill="grey" fill-opacity="0.25" points="690.398,182.551 586.770,35.763 636.910,182.551 " />
<polygon stroke="black" stroke-width="1" fill="grey" fill-opacity="0.25" points="806.541,182.551 670.798,35.763 765.091,182.551 " />
<polygon stroke="black" stroke-width="1" fill="grey" fill-opacity="0.25" points="98.305,182.551 101.373,35.763 56.821,182.551 " />
<polygon stroke="black" stroke-width="1" fill="grey" fill-opacity="0.25" points="540.183,182.551 570.389,35.763 495.822,182.551 " />

</svg>
