<?xml version="1.0" encoding="UTF-8" standalone="no"?>
<svg
   xmlns:dc="http://purl.org/dc/elements/1.1/"
   xmlns:cc="http://creativecommons.org/ns#"
   xmlns:rdf="http://www.w3.org/1999/02/22-rdf-syntax-ns#"
   xmlns:svg="http://www.w3.org/2000/svg"
   xmlns="http://www.w3.org/2000/svg"
   xmlns:sodipodi="http://sodipodi.sourceforge.net/DTD/sodipodi-0.dtd"
   xmlns:inkscape="http://www.inkscape.org/namespaces/inkscape"
   version="1.0"
   width="162.000000pt"
   height="163.000000pt"
   viewBox="0 0 162.000000 163.000000"
   preserveAspectRatio="xMidYMid meet"
   id="svg3694"
   sodipodi:docname="Charlie-cm.svg"
   inkscape:version="0.92.1 r15371">
  <defs
     id="defs3698" />
  <sodipodi:namedview
     pagecolor="#ffffff"
     bordercolor="#666666"
     borderopacity="1"
     objecttolerance="10"
     gridtolerance="10"
     guidetolerance="10"
     inkscape:pageopacity="0"
     inkscape:pageshadow="2"
     inkscape:window-width="736"
     inkscape:window-height="480"
     id="namedview3696"
     showgrid="false"
     inkscape:zoom="1.0858896"
     inkscape:cx="270.0791"
     inkscape:cy="108.66667"
     inkscape:window-x="738"
     inkscape:window-y="344"
     inkscape:window-maximized="0"
     inkscape:current-layer="svg3694" />
  <metadata
     id="metadata3688">
Created by potrace 1.13, written by Peter Selinger 2001-2015
<rdf:RDF>
  <cc:Work
     rdf:about="">
    <dc:format>image/svg+xml</dc:format>
    <dc:type
       rdf:resource="http://purl.org/dc/dcmitype/StillImage" />
    <dc:title></dc:title>
  </cc:Work>
</rdf:RDF>
</metadata>
  <g
     transform="translate(0.000000,163.000000) scale(0.100000,-0.100000)"
     id="g3692"
     stroke="none"
     fill="#ffffff">
    <path
       d="M689 1557 c59 -35 82 -65 40 -53 -33 10 -165 25 -219 25 -41 0 -43 -1 -20 -11 77 -33 129 -62 124 -69 -3 -5 -45 -9 -94 -9 -80 0 -88 -2 -83 -18 2 -10 -5 -26 -17 -37 -21 -19 -191 -123 -312 -192 -37 -21 -68 -41 -68 -44 0 -22 181 -24 269 -4 90 22 95 15 56 -77 -6 -14 1 -17 47 -20 l53 -3 0 -35 0 -35 55 0 c30 0 66 -6 80 -12 14 -6 33 -14 43 -17 28 -9 22 -55 -9 -66 -18 -7 -24 -15 -20 -28 4 -11 -10 -54 -33 -103 -69 -147 -134 -430 -147 -642 l-7 -107 237 0 236 0 0 153 c0 147 -17 351 -41 489 -11 58 -10 77 6 134 10 36 23 68 29 70 6 2 12 24 12 49 2 77 -1 75 136 75 76 0 171 8 248 20 122 20 268 55 282 69 4 3 -84 17 -195 29 -175 20 -204 26 -219 44 -10 11 -18 28 -18 37 0 43 -34 125 -75 179 -70 92 -228 194 -352 226 -84 22 -86 21 -24 -17z"
       id="path3690" />
  </g>
  <g
     style="fill:#965211;stroke:none"
     transform="matrix(0.1,0,0,-0.1,-0.14194228,161.98257)"
     id="g10"
     inkscape:export-xdpi="96"
     inkscape:export-ydpi="96">
    <path
       inkscape:connector-curvature="0"
       d="m 590,1598 c 0,-7 28,-26 61,-41 65,-31 74,-43 18,-27 -42,12 -219,13 -219,1 0,-13 21,-26 75,-46 82,-29 78,-37 -15,-34 l -85,3 2,-26 c 1,-22 -11,-32 -99,-83 -55,-32 -133,-80 -173,-106 -40,-26 -81,-50 -93,-53 -11,-4 -26,-14 -33,-22 -42,-51 138,-66 319,-28 l 34,7 -22,-42 c -28,-56 -15,-75 47,-68 43,5 43,5 43,-29 0,-41 10,-48 72,-45 30,1 57,-4 71,-14 12,-8 29,-15 39,-15 30,0 20,-27 -13,-39 -27,-9 -31,-15 -26,-38 3,-18 -4,-44 -19,-75 C 512,656 450,409 425,189 406,19 406,0 425,0 c 18,0 20,13 34,170 5,69 16,154 23,190 13,63 13,57 16,-148 2,-202 3,-212 22,-212 19,0 19,11 22,318 l 3,317 38,85 c 21,47 44,90 50,96 7,6 53,9 118,6 l 106,-4 -14,-56 C 819,670 814,320 834,185 858,22 865,0 897,0 h 26 l -6,178 c -6,187 -32,456 -47,483 -12,23 18,160 37,174 11,8 14,20 9,38 -3,14 -2,29 4,32 5,3 10,15 10,26 0,18 8,19 108,19 114,0 342,33 469,69 84,23 93,27 93,46 0,9 -21,15 -67,20 -141,14 -357,45 -364,53 -4,4 -12,31 -18,60 -24,114 -88,203 -206,282 -95,64 -140,86 -226,110 -84,23 -129,26 -129,8 z m 196,-64 c 59,-25 195,-116 238,-160 38,-40 96,-145 96,-176 0,-12 -10,-18 -37,-20 -54,-4 -52,-32 2,-36 27,-2 48,-11 63,-28 15,-15 34,-24 54,-24 17,0 70,-5 119,-12 70,-9 89,-15 92,-29 3,-11 -2,-20 -12,-23 -51,-16 -176,-29 -324,-35 -92,-3 -171,-11 -175,-16 -12,-17 -275,-13 -296,4 -11,9 -36,14 -71,12 -53,-2 -54,-2 -53,27 1,46 -9,55 -58,48 -24,-3 -44,-4 -44,-3 0,2 9,20 20,42 37,73 27,85 -55,64 -54,-14 -69,-3 -78,57 l -7,42 88,50 c 48,28 98,62 111,76 21,23 33,26 87,26 114,0 143,30 63,65 -21,10 -37,20 -35,22 9,10 132,-19 186,-43 48,-21 63,-25 73,-15 13,13 0,28 -68,78 -36,27 -31,28 21,7 z m 84,-604 c 37,-11 10,-18 -82,-22 -42,-2 -80,-6 -83,-10 -19,-18 13,-28 93,-28 60,0 82,-3 72,-10 -17,-11 -115,-13 -182,-4 l -45,6 26,26 c 45,45 132,63 201,42 z m 9,-633 c 6,-82 10,-165 10,-185 -1,-31 -4,-27 -16,28 -7,36 -16,143 -18,240 -5,200 7,161 24,-83 z"
       id="path4" />
    <path
       inkscape:connector-curvature="0"
       d="m 628,1163 c -26,-7 -22,-27 7,-43 22,-12 37,-11 98,1 50,10 72,19 72,29 0,12 -17,15 -80,17 -44,0 -88,-1 -97,-4 z"
       id="path6" />
    <path
       inkscape:connector-curvature="0"
       d="m 664,553 c 3,-60 9,-208 12,-330 6,-178 10,-223 20,-223 18,0 19,269 2,498 -9,128 -15,162 -26,162 -12,0 -14,-18 -8,-107 z"
       id="path8" />
  </g>
</svg>
