<?xml version="1.0" encoding="UTF-8" standalone="no"?>
<svg
   xmlns:dc="http://purl.org/dc/elements/1.1/"
   xmlns:cc="http://creativecommons.org/ns#"
   xmlns:rdf="http://www.w3.org/1999/02/22-rdf-syntax-ns#"
   xmlns:svg="http://www.w3.org/2000/svg"
   xmlns="http://www.w3.org/2000/svg"
   xmlns:sodipodi="http://sodipodi.sourceforge.net/DTD/sodipodi-0.dtd"
   xmlns:inkscape="http://www.inkscape.org/namespaces/inkscape"
   id="svg8"
   width="256"
   height="256"
   version="1.1"
   viewBox="0 0 67.7325 67.7325"
   sodipodi:docname="missingIcon.svg"
   inkscape:version="0.92.3 (2405546, 2018-03-11)">
  <defs
     id="defs86" />
  <sodipodi:namedview
     pagecolor="#ffffff"
     bordercolor="#666666"
     borderopacity="1"
     objecttolerance="10"
     gridtolerance="10"
     guidetolerance="10"
     inkscape:pageopacity="0"
     inkscape:pageshadow="2"
     inkscape:window-width="1920"
     inkscape:window-height="1056"
     id="namedview84"
     showgrid="false"
     inkscape:zoom="0.44703432"
     inkscape:cx="23.229911"
     inkscape:cy="660.99774"
     inkscape:window-x="0"
     inkscape:window-y="24"
     inkscape:window-maximized="1"
     inkscape:current-layer="svg8" />
  <metadata
     id="metadata5">
    <rdf:RDF>
      <cc:Work
         rdf:about="">
        <dc:format>image/svg+xml</dc:format>
        <dc:type
           rdf:resource="http://purl.org/dc/dcmitype/StillImage" />
        <dc:title></dc:title>
      </cc:Work>
    </rdf:RDF>
  </metadata>
  <g
     aria-label=":V"
     transform="matrix(0.74624171,0,0,0.74624194,-57.11186,-2686.4718)"
     style="font-size:21.33300018px;line-height:125%;font-family:sans-serif;font-variant-ligatures:normal;font-variant-caps:normal;font-variant-numeric:normal;font-feature-settings:normal;letter-spacing:0px;word-spacing:0px;fill:#43c000;stroke-width:1px"
     id="flowRoot4821-3-0-4-4-3">
    <path
       inkscape:connector-curvature="0"
       id="path3884-6"
       d="m 89.126745,3618.9743 -5.937407,-15.5518 h 2.197882 l 4.927007,13.0935 4.937423,-13.0935 h 2.187466 l -5.926991,15.5518 z m -10.812331,-2.6458 h 2.197882 v 2.6458 h -2.197882 z m 0,-8.3853 h 2.197882 v 2.6458 h -2.197882 z m 78.886366,11.0311 -5.93741,-15.5518 h 2.19789 l 4.927,13.0935 4.93743,-13.0935 h 2.18746 l -5.92699,15.5518 z m -10.81233,-2.6458 h 2.19788 v 2.6458 h -2.19788 z m 0,-8.3853 h 2.19788 v 2.6458 h -2.19788 z M 99.223786,3600 v 22.6911 H 76.532663 V 3600 Z m 45.382584,0 h 22.69112 v 22.6911 h -22.69112 z m 12.59441,41.7549 -5.93741,-15.5518 h 2.19789 l 4.927,13.0935 4.93743,-13.0935 h 2.18746 l -5.92699,15.5518 z m -10.81233,-2.6458 h 2.19788 v 2.6458 h -2.19788 z m 0,-8.3853 h 2.19788 v 2.6458 h -2.19788 z m -11.87879,11.0311 -5.93741,-15.5518 h 2.19788 l 4.92701,13.0935 4.93742,-13.0935 h 2.18747 l -5.92699,15.5518 z m -10.81233,-2.6458 h 2.19788 v 2.6458 h -2.19788 z m 0,-8.3853 h 2.19788 v 2.6458 h -2.19788 z m 43.59915,-8.0327 v 22.6911 h -22.69112 v -22.6911 z m -45.38023,0 h 22.69112 v 22.6911 h -22.69112 z m -32.789505,41.8443 -5.937407,-15.5518 h 2.197882 l 4.927007,13.0935 4.937423,-13.0935 h 2.187466 l -5.926991,15.5518 z m -10.812331,-2.6458 h 2.197882 v 2.6458 h -2.197882 z m 0,-8.3853 h 2.197882 v 2.6458 h -2.197882 z m 78.886366,11.0311 -5.93741,-15.5518 h 2.19789 l 4.927,13.0935 4.93743,-13.0935 h 2.18746 l -5.92699,15.5518 z m -10.81233,-2.6458 h 2.19788 v 2.6458 h -2.19788 z m 0,-8.3853 h 2.19788 v 2.6458 h -2.19788 z m -47.164664,-8.1207 v 22.6911 H 76.532663 v -22.6911 z m 45.382584,0 h 22.69112 v 22.6911 h -22.69112 z m 12.59441,41.5974 -5.93741,-15.5518 h 2.19789 l 4.927,13.0935 4.93743,-13.0935 h 2.18746 l -5.92699,15.5518 z m -10.81233,-2.6458 h 2.19788 v 2.6458 h -2.19788 z m 0,-8.3853 h 2.19788 v 2.6458 h -2.19788 z m -11.87879,11.0311 -5.93741,-15.5518 h 2.19788 l 4.92701,13.0935 4.93742,-13.0935 h 2.18747 l -5.92699,15.5518 z m -10.81233,-2.6458 h 2.19788 v 2.6458 h -2.19788 z m 0,-8.3853 h 2.19788 v 2.6458 h -2.19788 z m 43.59915,-7.8762 v 22.6911 h -22.69112 v -22.6911 z m -45.38023,0 h 22.69112 v 22.6911 h -22.69112 z m 12.59341,-49.0994 -5.93741,-15.5518 h 2.19788 l 4.92701,13.0935 4.93742,-13.0935 h 2.18747 l -5.92699,15.5518 z m -10.81233,-2.6458 h 2.19788 v 2.6458 h -2.19788 z m 0,-8.3853 h 2.19788 v 2.6458 h -2.19788 z m -11.88047,11.0311 -5.9374,-15.5518 h 2.19788 l 4.927,13.0935 4.93743,-13.0935 h 2.18746 l -5.92699,15.5518 z m -10.81233,-2.6458 h 2.19788 v 2.6458 h -2.19788 z m 0,-8.3853 h 2.19788 v 2.6458 h -2.19788 z M 144.60637,3600 v 22.6911 H 121.91524 V 3600 Z m -45.382584,0 h 22.691124 v 22.6911 H 99.223786 Z m 12.593074,41.7549 -5.9374,-15.5518 h 2.19788 l 4.927,13.0935 4.93743,-13.0935 h 2.18746 l -5.92699,15.5518 z m -10.81233,-2.6458 h 2.19788 v 2.6458 h -2.19788 z m 0,-8.3853 h 2.19788 v 2.6458 h -2.19788 z m -11.877785,11.0311 -5.937407,-15.5518 h 2.197882 l 4.927007,13.0935 4.937423,-13.0935 h 2.187466 l -5.926991,15.5518 z m -10.812331,-2.6458 h 2.197882 v 2.6458 h -2.197882 z m 0,-8.3853 h 2.197882 v 2.6458 h -2.197882 z m 43.601836,-8.0327 v 22.6911 H 99.225126 v -22.6911 z m -45.383587,0 h 22.691123 v 22.6911 H 76.532663 Z m 57.976997,41.8443 -5.93741,-15.5518 h 2.19788 l 4.92701,13.0935 4.93742,-13.0935 h 2.18747 l -5.92699,15.5518 z m -10.81233,-2.6458 h 2.19788 v 2.6458 h -2.19788 z m 0,-8.3853 h 2.19788 v 2.6458 h -2.19788 z m -11.88047,11.0311 -5.9374,-15.5518 h 2.19788 l 4.927,13.0935 4.93743,-13.0935 h 2.18746 l -5.92699,15.5518 z m -10.81233,-2.6458 h 2.19788 v 2.6458 h -2.19788 z m 0,-8.3853 h 2.19788 v 2.6458 h -2.19788 z m 43.60184,-8.1207 v 22.6911 h -22.69113 v -22.6911 z m -45.382584,0 h 22.691124 v 22.6911 H 99.223786 Z m 12.593074,41.5974 -5.9374,-15.5518 h 2.19788 l 4.927,13.0935 4.93743,-13.0935 h 2.18746 l -5.92699,15.5518 z m -10.81233,-2.6458 h 2.19788 v 2.6458 h -2.19788 z m 0,-8.3853 h 2.19788 v 2.6458 h -2.19788 z m -11.877785,11.0311 -5.937407,-15.5518 h 2.197882 l 4.927007,13.0935 4.937423,-13.0935 h 2.187466 l -5.926991,15.5518 z m -10.812331,-2.6458 h 2.197882 v 2.6458 h -2.197882 z m 0,-8.3853 h 2.197882 v 2.6458 h -2.197882 z m 43.601836,-7.8762 v 22.6911 H 99.225126 v -22.6911 z m -45.383587,0 h 22.691123 v 22.6911 H 76.532663 Z" />
  </g>
  <path
     style="fill:#ff4000;stroke-width:3.38662434"
     d="M 67.732498,33.86625 V 67.73249 H 33.866248 V 33.86625 Z"
     id="rect6005-5-7-3-5-5"
     inkscape:connector-curvature="0" />
  <path
     style="fill:#ff4000;stroke-width:3.3866241"
     d="M 33.866248,2e-5 V 33.86625 H 0 V 2e-5 Z"
     id="rect6005-5-7-3-5-5-6-7"
     inkscape:connector-curvature="0" />
  <g
     aria-label=":V"
     transform="matrix(1.4924999,0,0,1.4924992,-114.225,-5339.2296)"
     style="font-size:21.33300018px;line-height:125%;font-family:sans-serif;font-variant-ligatures:normal;font-variant-caps:normal;font-variant-numeric:normal;font-feature-settings:normal;letter-spacing:0px;word-spacing:0px;fill:#ff4000;stroke-width:1px"
     id="flowRoot4821">
    <path
       d="m 78.314414,3616.3285 h 2.197882 v 2.6458 h -2.197882 z m 0,-8.3853 h 2.197882 v 2.6458 h -2.197882 z"
       id="path3793"
       inkscape:connector-curvature="0" />
    <path
       d="m 89.126745,3618.9743 -5.937407,-15.5518 h 2.197882 l 4.927007,13.0935 4.937423,-13.0935 h 2.187466 l -5.926991,15.5518 z"
       id="path3795"
       inkscape:connector-curvature="0" />
  </g>
  <g
     aria-label=":V"
     transform="matrix(1.4924999,0,0,1.4924992,-80.359997,-5339.2296)"
     style="font-size:21.33300018px;line-height:125%;font-family:sans-serif;font-variant-ligatures:normal;font-variant-caps:normal;font-variant-numeric:normal;font-feature-settings:normal;letter-spacing:0px;word-spacing:0px;fill:#43c000;stroke-width:1px"
     id="flowRoot4821-3">
    <path
       d="m 78.314414,3616.3285 h 2.197882 v 2.6458 h -2.197882 z m 0,-8.3853 h 2.197882 v 2.6458 h -2.197882 z"
       id="path3798"
       inkscape:connector-curvature="0" />
    <path
       d="m 89.126745,3618.9743 -5.937407,-15.5518 h 2.197882 l 4.927007,13.0935 4.937423,-13.0935 h 2.187466 l -5.926991,15.5518 z"
       id="path3800"
       inkscape:connector-curvature="0" />
  </g>
  <g
     aria-label=":V"
     transform="matrix(1.4924999,0,0,1.4924992,-80.359997,-5372.7296)"
     style="font-size:21.33300018px;line-height:125%;font-family:sans-serif;font-variant-ligatures:normal;font-variant-caps:normal;font-variant-numeric:normal;font-feature-settings:normal;letter-spacing:0px;word-spacing:0px;fill:#ff4000;stroke-width:1px"
     id="flowRoot4821-1">
    <path
       d="m 78.314414,3616.3285 h 2.197882 v 2.6458 h -2.197882 z m 0,-8.3853 h 2.197882 v 2.6458 h -2.197882 z"
       id="path3805"
       inkscape:connector-curvature="0" />
    <path
       d="m 89.126745,3618.9743 -5.937407,-15.5518 h 2.197882 l 4.927007,13.0935 4.937423,-13.0935 h 2.187466 l -5.926991,15.5518 z"
       id="path3807"
       inkscape:connector-curvature="0" />
  </g>
  <g
     aria-label=":V"
     transform="matrix(1.4924999,0,0,1.4924992,-114.225,-5372.7296)"
     style="font-size:21.33300018px;line-height:125%;font-family:sans-serif;font-variant-ligatures:normal;font-variant-caps:normal;font-variant-numeric:normal;font-feature-settings:normal;letter-spacing:0px;word-spacing:0px;fill:#43c000;stroke-width:1px"
     id="flowRoot4821-3-0-47">
    <path
       d="m 78.314414,3616.3285 h 2.197882 v 2.6458 h -2.197882 z m 0,-8.3853 h 2.197882 v 2.6458 h -2.197882 z"
       id="path3858"
       inkscape:connector-curvature="0" />
    <path
       d="m 89.126745,3618.9743 -5.937407,-15.5518 h 2.197882 l 4.927007,13.0935 4.937423,-13.0935 h 2.187466 l -5.926991,15.5518 z"
       id="path3860"
       inkscape:connector-curvature="0" />
  </g>
</svg>
