<?xml version="1.0" encoding="UTF-8" standalone="no"?>
<svg
   xmlns:dc="http://purl.org/dc/elements/1.1/"
   xmlns:cc="http://creativecommons.org/ns#"
   xmlns:rdf="http://www.w3.org/1999/02/22-rdf-syntax-ns#"
   xmlns:svg="http://www.w3.org/2000/svg"
   xmlns="http://www.w3.org/2000/svg"
   xmlns:sodipodi="http://sodipodi.sourceforge.net/DTD/sodipodi-0.dtd"
   xmlns:inkscape="http://www.inkscape.org/namespaces/inkscape"
   version="1.0"
   width="276.000000pt"
   height="276.000000pt"
   viewBox="0 0 276.000000 276.000000"
   preserveAspectRatio="xMidYMid meet"
   id="svg24"
   sodipodi:docname="nickWilde.svg"
   inkscape:version="0.92.2 (5c3e80d, 2017-08-06)">
  <defs
     id="defs28" />
  <sodipodi:namedview
     pagecolor="#ffffff"
     bordercolor="#666666"
     borderopacity="1"
     objecttolerance="10"
     gridtolerance="10"
     guidetolerance="10"
     inkscape:pageopacity="0"
     inkscape:pageshadow="2"
     inkscape:window-width="1920"
     inkscape:window-height="1056"
     id="namedview26"
     showgrid="false"
     inkscape:pagecheckerboard="true"
     inkscape:zoom="1.968381"
     inkscape:cx="142.4531"
     inkscape:cy="209.37652"
     inkscape:window-x="0"
     inkscape:window-y="24"
     inkscape:window-maximized="1"
     inkscape:current-layer="svg24" />
  <metadata
     id="metadata2">
Created by potrace 1.14, written by Peter Selinger 2001-2017
<rdf:RDF>
  <cc:Work
     rdf:about="">
    <dc:format>image/svg+xml</dc:format>
    <dc:type
       rdf:resource="http://purl.org/dc/dcmitype/StillImage" />
    <dc:title />
  </cc:Work>
</rdf:RDF>
</metadata>
  <path
     style="opacity:1;vector-effect:none;fill:#f9f9f9;fill-opacity:1;stroke:none;stroke-width:0.69817048px;stroke-linecap:butt;stroke-linejoin:miter;stroke-miterlimit:4;stroke-dasharray:none;stroke-dashoffset:0;stroke-opacity:1"
     d="M 60.078229,110.78488 C 43.676978,107.44121 33.266404,99.81516 29.070614,89.938987 18.812798,65.793846 37.593622,25.831507 42.202911,23.192791 46.6491,20.647445 52.609248,32.324628 73.085047,73.111693 83.203695,-41.193859 99.67516,40.522186 118.0564,97.710563 c 0,0 34.09138,5.578577 46.34926,8.203707 l 32.4811,45.96334 c 23.68454,9.78658 43.96137,12.75772 64.97099,17.19447 l -14.50221,18.60073 c -3.60907,2.21439 -9.881,2.19471 -13.24006,3.57843 -8.69941,3.58358 -6.49568,6.18283 -13.65475,5.52742 -3.96942,-0.36339 -4.84357,-7.21783 -8.93391,-8.56207 -4.69609,-1.54331 -11.44456,1.07791 -15.99979,-1.78374 -16.20493,-10.18013 -34.67444,-21.03813 -49.7682,-27.2551 1.81663,22.82578 28.99618,43.46872 54.50193,62.41809 -20.8579,-3.8295 -53.59936,-22.0633 -61.31585,-9.96382 l 18.4346,6.69952 c -13.5245,5.14614 3.87873,9.22582 7.51253,13.7803 -17.52978,4.09177 -38.72984,8.0476 -33.21647,12.99282 14.40532,13.2818 28.81064,21.9223 43.21596,30.89534 H 0 v -2.40066 c 5.5362329,-3.44077 28.995364,-45.99777 62.591922,-69.7696 l 10.874962,-3.08617 c -16.556526,-6.2307 -34.136831,-12.82389 -52.024633,-13.28572 2.008251,-6.95065 -2.250453,-6.4593 -7.257112,-5.07974 14.223793,-12.86242 40.425856,-46.43774 45.89309,-71.59323 z"
     id="rect30"
     inkscape:connector-curvature="0"
     sodipodi:nodetypes="csscsccccsssscccccccccccccc" />
  <g
     transform="translate(0.000000,276.000000) scale(0.100000,-0.100000)"
     fill="#000000"
     stroke="none"
     id="g22"
     style="fill:#c34501;fill-opacity:0.95789474">
    <path
       d="M809 2608 c-43 -84 -95 -363 -87 -470 l4 -57 -43 77 c-24 42 -64 118 -89 167 -26 50 -54 101 -64 115 -9 14 -20 37 -24 52 -3 15 -14 35 -24 45 -10 10 -26 30 -35 46 -10 15 -24 27 -33 27 -29 0 -100 -192 -123 -335 -28 -177 -31 -207 -31 -291 0 -127 11 -158 81 -224 55 -53 98 -78 190 -112 l37 -13 -27 -90 c-14 -50 -38 -112 -53 -137 -34 -56 -166 -234 -208 -279 -73 -79 -100 -117 -94 -133 5 -12 -5 -21 -40 -37 -58 -25 -51 -43 15 -37 47 5 48 4 34 -16 -28 -39 -20 -43 103 -48 64 -3 139 -13 167 -21 28 -9 96 -30 153 -47 56 -17 102 -34 102 -38 0 -5 -24 -8 -52 -8 -45 1 -62 -5 -108 -36 -119 -80 -232 -207 -360 -406 -42 -66 -99 -139 -136 -174 -51 -48 -64 -67 -64 -91 l0 -30 40 44 41 44 -21 -42 c-24 -51 -24 -53 -2 -53 11 0 31 28 61 88 138 271 328 512 466 593 63 36 86 36 154 -1 36 -20 58 -27 64 -21 12 12 -6 38 -33 46 -13 4 -20 17 -22 43 -3 37 -3 37 -88 66 -176 59 -251 76 -345 76 -69 0 -86 3 -77 12 17 17 15 48 -3 55 -14 5 -14 8 1 24 12 14 14 22 6 32 -8 10 1 26 41 67 63 66 198 245 238 316 16 28 40 89 54 135 13 46 31 89 39 95 28 20 18 30 -56 53 -40 13 -86 30 -103 39 -49 25 -123 92 -138 126 -35 75 -31 202 14 442 10 56 19 106 20 110 0 5 4 -1 9 -13 9 -21 40 -33 40 -15 0 4 9 18 19 31 13 17 23 21 32 15 8 -5 16 -9 19 -9 19 0 72 -59 95 -105 15 -30 39 -72 52 -94 14 -21 68 -129 120 -240 52 -110 99 -207 105 -214 8 -9 14 -10 25 -1 25 21 393 5 568 -25 83 -15 164 -31 181 -36 56 -19 101 -82 260 -365 53 -94 97 -126 237 -169 61 -19 132 -38 157 -41 72 -10 73 -11 54 -40 -21 -33 -12 -60 15 -45 11 5 35 10 53 9 18 0 27 -3 21 -6 -15 -5 -17 -29 -4 -37 5 -4 22 -1 37 4 37 14 62 -7 45 -38 -8 -15 -8 -23 0 -28 7 -4 -2 -15 -26 -29 -33 -20 -46 -22 -119 -18 -186 12 -485 107 -728 232 -75 39 -146 71 -157 71 -37 0 -28 -68 21 -163 49 -97 153 -206 317 -332 57 -44 118 -92 135 -108 l31 -27 -46 19 c-82 34 -323 109 -385 120 -66 12 -90 7 -147 -32 -25 -17 -34 -17 -100 -7 -39 6 -124 18 -187 26 -63 9 -134 18 -157 21 -35 5 -43 3 -43 -11 0 -9 2 -16 4 -16 2 0 26 -4 54 -10 28 -5 91 -14 139 -20 157 -19 400 -59 421 -70 8 -4 -3 -13 -30 -25 -24 -10 -74 -31 -113 -47 -169 -71 -193 -86 -166 -102 5 -3 35 6 67 20 33 14 88 39 124 54 57 26 70 28 109 19 23 -5 59 -18 80 -29 l36 -19 -38 -1 c-70 0 -282 -68 -304 -97 -11 -14 -14 -13 -22 11 -6 14 -15 26 -20 26 -23 0 -21 -25 4 -81 33 -74 29 -94 -31 -154 -38 -37 -45 -50 -41 -71 3 -15 1 -40 -3 -55 -7 -24 -6 -29 10 -29 22 0 30 19 30 70 0 33 6 43 34 65 43 33 70 94 56 130 -13 35 0 31 41 -11 49 -52 128 -111 251 -187 83 -52 115 -67 145 -67 l38 0 -75 43 c-182 105 -387 262 -377 290 8 25 202 77 286 77 51 0 72 4 82 16 17 20 1 33 -90 77 l-64 30 27 14 c55 29 25 53 -102 84 -82 19 -9 45 81 28 70 -12 312 -91 396 -128 148 -65 152 -66 161 -51 12 20 10 22 -98 103 -294 219 -429 345 -484 452 -45 88 -55 119 -37 113 8 -3 14 -13 14 -24 0 -14 17 -26 67 -46 37 -14 92 -45 123 -69 43 -33 67 -43 105 -47 40 -4 59 -12 93 -42 52 -46 74 -53 159 -51 l67 2 42 -46 c23 -25 50 -45 61 -45 22 0 113 45 123 60 3 5 33 10 65 10 62 0 115 14 106 28 -3 5 6 15 19 22 36 19 111 101 136 149 20 39 20 43 5 60 -14 16 -29 17 -114 13 -174 -8 -495 67 -581 136 -19 16 -50 57 -69 93 -84 155 -176 300 -212 333 -21 19 -57 40 -79 46 -55 15 -349 60 -391 60 l-35 0 -1 53 c-2 50 -13 92 -91 332 -66 202 -142 380 -189 443 -36 47 -68 44 -95 -10z m189 -268 c81 -223 152 -460 152 -508 l0 -42 -146 1 -145 0 -50 107 -51 107 1 118 c0 64 5 145 11 180 17 92 18 93 35 71 13 -17 17 -17 28 -4 15 19 47 22 47 5 0 -7 6 -18 14 -24 18 -15 37 7 30 36 -4 15 0 22 16 26 15 4 19 10 15 19 -5 9 -5 10 2 3 5 -5 24 -48 41 -95z m981 -1411 c23 -7 41 -17 41 -22 0 -17 -73 1 -94 24 -16 17 -17 20 -5 16 10 -3 35 -11 58 -18z m229 -60 c79 -18 80 -19 52 -34 -37 -21 -53 -18 -85 15 -32 34 -32 34 33 19z"
       id="path4"
       style="fill:#c34501;fill-opacity:0.95789474" />
    <path
       d="M1872 1827 c-37 -38 -39 -47 -14 -47 20 0 72 49 72 68 0 22 -26 12 -58 -21z"
       id="path6"
       style="fill:#c34501;fill-opacity:0.95789474" />
    <path
       d="M1780 1830 c0 -15 5 -20 18 -18 9 2 17 10 17 18 0 8 -8 16 -17 18 -13 2 -18 -3 -18 -18z"
       id="path8"
       style="fill:#c34501;fill-opacity:0.95789474" />
    <path
       d="M1890 1716 c0 -14 48 -32 57 -22 3 3 3 12 0 21 -8 19 -57 20 -57 1z"
       id="path10"
       style="fill:#c34501;fill-opacity:0.95789474" />
    <path
       d="M1684 1436 c-10 -27 2 -106 20 -124 25 -25 30 -7 16 60 -14 70 -26 90 -36 64z"
       id="path12"
       style="fill:#c34501;fill-opacity:0.95789474" />
    <path
       d="M1065 1300 c-7 -12 3 -85 20 -143 7 -26 19 -43 30 -45 14 -3 17 1 13 20 -3 12 -11 52 -18 88 -7 36 -14 71 -16 78 -4 15 -20 16 -29 2z"
       id="path14"
       style="fill:#c34501;fill-opacity:0.95789474" />
    <path
       d="M520 581 c-14 -4 -25 -13 -25 -21 0 -11 11 -14 44 -12 52 4 48 -7 -15 -44 -46 -27 -51 -33 -33 -51 7 -7 -4 -14 -38 -22 -58 -15 -79 -25 -76 -37 4 -17 38 -14 113 9 46 15 75 30 75 38 0 9 -10 13 -29 12 -27 -2 -26 -1 15 26 91 58 105 105 34 108 -22 1 -51 -2 -65 -6z"
       id="path16"
       style="fill:#c34501;fill-opacity:0.95789474" />
    <path
       d="M852 448 c-5 -7 -25 -45 -45 -83 -19 -39 -58 -108 -86 -155 -28 -47 -51 -88 -51 -92 0 -4 -13 -30 -30 -56 -35 -57 -36 -62 -12 -62 19 0 31 17 70 95 14 28 43 78 64 112 51 84 118 219 118 238 0 18 -14 20 -28 3z"
       id="path18"
       style="fill:#c34501;fill-opacity:0.95789474" />
    <path
       d="M421 354 c-14 -10 -19 -20 -13 -26 13 -13 92 11 92 29 0 18 -50 17 -79 -3z"
       id="path20"
       style="fill:#c34501;fill-opacity:0.95789474" />
  </g>
</svg>
