<?xml version="1.0" encoding="UTF-8" standalone="no"?>
<!-- Created with Inkscape (http://www.inkscape.org/) -->

<svg
   xmlns:dc="http://purl.org/dc/elements/1.1/"
   xmlns:cc="http://creativecommons.org/ns#"
   xmlns:rdf="http://www.w3.org/1999/02/22-rdf-syntax-ns#"
   xmlns:svg="http://www.w3.org/2000/svg"
   xmlns="http://www.w3.org/2000/svg"
   xmlns:sodipodi="http://sodipodi.sourceforge.net/DTD/sodipodi-0.dtd"
   xmlns:inkscape="http://www.inkscape.org/namespaces/inkscape"
   width="128"
   height="128"
   viewBox="0 0 33.866666 33.866666"
   version="1.1"
   id="svg8"
   inkscape:version="0.92.3 (2405546, 2018-03-11)"
   sodipodi:docname="bagIcon.svg">
  <defs
     id="defs2" />
  <sodipodi:namedview
     id="base"
     pagecolor="#ffffff"
     bordercolor="#666666"
     borderopacity="1.0"
     inkscape:pageopacity="0.0"
     inkscape:pageshadow="2"
     inkscape:zoom="4.9962261"
     inkscape:cx="130.5456"
     inkscape:cy="79.61126"
     inkscape:document-units="px"
     inkscape:current-layer="layer1"
     showgrid="false"
     inkscape:pagecheckerboard="true"
     inkscape:window-width="1920"
     inkscape:window-height="1056"
     inkscape:window-x="0"
     inkscape:window-y="24"
     inkscape:window-maximized="1"
     units="px" />
  <metadata
     id="metadata5">
    <rdf:RDF>
      <cc:Work
         rdf:about="">
        <dc:format>image/svg+xml</dc:format>
        <dc:type
           rdf:resource="http://purl.org/dc/dcmitype/StillImage" />
        <dc:title></dc:title>
      </cc:Work>
    </rdf:RDF>
  </metadata>
  <g
     inkscape:label="Layer 1"
     inkscape:groupmode="layer"
     id="layer1"
     transform="translate(0,-263.13339)">
    <path
       style="fill:#000000;fill-rule:evenodd;stroke:#ffffff;stroke-width:0.37291604;stroke-linecap:butt;stroke-linejoin:miter;stroke-miterlimit:4;stroke-dasharray:none;stroke-opacity:1"
       d="m 16.793198,264.49137 c -0.85141,0.056 -0.27974,-1.26979 -0.82462,-1.16663 -0.78582,0.14878 -1.92878,0.57413 -2.5297,0.80735 -1.21431,0.47127 0.24226,-1.82894 -2.71929,-0.11909 -0.82045,0.47368 -3.38869,-0.61282 -3.64686,-0.54735 -0.23915,1.81204 5.35812,3.66542 5.35812,3.66542 -6.35761,3.46076 -10.98536,13.55194 -10.98537,20.53952 0,8.55363 6.93405,9.14301 15.48768,9.14301 8.55362,0 15.48803,-0.58938 15.48803,-9.14301 0,-6.98758 -4.62776,-17.07876 -10.98537,-20.53952 0,0 1.26817,-2.03998 3.88399,-2.90037 -0.33281,-0.84918 -2.34126,-0.88227 -3.18969,-0.37631 -1.88861,1.09846 -1.40235,0.16118 -2.61667,-0.31009 -1.01759,-0.39492 -2.44159,0.92875 -2.72025,0.94707 z"
       id="path7"
       inkscape:connector-curvature="0"
       sodipodi:nodetypes="ssccccsssccccs" />
  </g>
</svg>
