<?xml version="1.0" encoding="UTF-8" standalone="no"?>
<!-- Created with Inkscape (http://www.inkscape.org/) -->

<svg
   xmlns:dc="http://purl.org/dc/elements/1.1/"
   xmlns:cc="http://creativecommons.org/ns#"
   xmlns:rdf="http://www.w3.org/1999/02/22-rdf-syntax-ns#"
   xmlns:svg="http://www.w3.org/2000/svg"
   xmlns="http://www.w3.org/2000/svg"
   xmlns:sodipodi="http://sodipodi.sourceforge.net/DTD/sodipodi-0.dtd"
   xmlns:inkscape="http://www.inkscape.org/namespaces/inkscape"
   width="128"
   height="128"
   viewBox="0 0 33.866666 33.866666"
   version="1.1"
   id="svg8"
   inkscape:version="0.92.3 (2405546, 2018-03-11)"
   sodipodi:docname="swordIcon.svg">
  <defs
     id="defs2" />
  <sodipodi:namedview
     id="base"
     pagecolor="#ffffff"
     bordercolor="#666666"
     borderopacity="1.0"
     inkscape:pageopacity="0.0"
     inkscape:pageshadow="2"
     inkscape:zoom="4.9962261"
     inkscape:cx="61.692023"
     inkscape:cy="58.251866"
     inkscape:document-units="px"
     inkscape:current-layer="layer1"
     showgrid="false"
     inkscape:pagecheckerboard="true"
     inkscape:window-width="1920"
     inkscape:window-height="1056"
     inkscape:window-x="0"
     inkscape:window-y="24"
     inkscape:window-maximized="1"
     units="px"
     inkscape:snap-page="false" />
  <metadata
     id="metadata5">
    <rdf:RDF>
      <cc:Work
         rdf:about="">
        <dc:format>image/svg+xml</dc:format>
        <dc:type
           rdf:resource="http://purl.org/dc/dcmitype/StillImage" />
        <dc:title></dc:title>
      </cc:Work>
    </rdf:RDF>
  </metadata>
  <g
     inkscape:label="Layer 1"
     inkscape:groupmode="layer"
     id="layer1"
     transform="translate(0,-263.13339)">
    <path
       style="opacity:1;vector-effect:none;fill:#000000;fill-opacity:1;stroke:#ffffff;stroke-width:0.51623279;stroke-linecap:butt;stroke-linejoin:miter;stroke-miterlimit:4;stroke-dasharray:none;stroke-dashoffset:0;stroke-opacity:1"
       d="m 33.289647,263.71041 -6.345244,3.17191 -19.4904454,19.49044 -2.5119357,-2.51193 c 0,0 -0.3828991,-0.28473 -0.7687003,0.10101 -0.3857919,0.38579 -0.1010891,0.76871 -0.1010891,0.76871 l 2.6254909,3.65661 -4.993012,4.99301 c 0,0 -0.5956333,-0.63712 -1.19622326,-0.0365 -0.60050559,0.6005 0.0365201,1.19623 0.0365201,1.19623 l 0.95754806,0.95755 0.9575473,0.95755 c 0,0 0.5956333,0.63712 1.1962326,0.0365 0.6004868,-0.60049 -0.03653,-1.19622 -0.03653,-1.19622 l 4.9930124,-4.99301 3.6566164,2.62549 c 0,0 0.382617,0.28444 0.768426,-0.10142 0.385822,-0.38582 0.101359,-0.76842 0.101359,-0.76842 l -2.511934,-2.51193 19.490442,-19.49045 z"
       id="rect4515"
       inkscape:connector-curvature="0" />
  </g>
</svg>
