<?xml version="1.0" encoding="UTF-8" standalone="no"?>
<svg
   xmlns:dc="http://purl.org/dc/elements/1.1/"
   xmlns:cc="http://creativecommons.org/ns#"
   xmlns:rdf="http://www.w3.org/1999/02/22-rdf-syntax-ns#"
   xmlns:svg="http://www.w3.org/2000/svg"
   xmlns="http://www.w3.org/2000/svg"
   xmlns:sodipodi="http://sodipodi.sourceforge.net/DTD/sodipodi-0.dtd"
   xmlns:inkscape="http://www.inkscape.org/namespaces/inkscape"
   width="1024"
   height="1024"
   viewBox="0 0 1024 1024"
   version="1.1"
   id="svg148"
   sodipodi:docname="bottle05RedSarcophagusJuice.svg"
   inkscape:version="0.92.3 (2405546, 2018-03-11)"
   inkscape:export-filename="/home/www/psde.equus.et/html/resources/data/bottle05Red.png"
   inkscape:export-xdpi="96"
   inkscape:export-ydpi="96">
  <metadata
     id="metadata154">
    <rdf:RDF>
      <cc:Work
         rdf:about="">
        <dc:format>image/svg+xml</dc:format>
        <dc:type
           rdf:resource="http://purl.org/dc/dcmitype/StillImage" />
        <dc:title />
      </cc:Work>
    </rdf:RDF>
  </metadata>
  <defs
     id="defs152">
    <filter
       y="-0.15"
       height="1.3"
       x="-0.15"
       width="1.3"
       inkscape:menu-tooltip="Aquarelle paper effect which can be used for pictures as for objects"
       inkscape:menu="Textures"
       inkscape:label="Rough Paper"
       style="color-interpolation-filters:sRGB;"
       id="filter919">
      <feTurbulence
         type="fractalNoise"
         baseFrequency="0.04"
         numOctaves="5"
         seed="0"
         result="result4"
         id="feTurbulence905" />
      <feDisplacementMap
         in="SourceGraphic"
         in2="result4"
         yChannelSelector="G"
         xChannelSelector="R"
         scale="10"
         result="result3"
         id="feDisplacementMap907" />
      <feDiffuseLighting
         lighting-color="rgb(233,230,215)"
         diffuseConstant="1"
         surfaceScale="2"
         result="result1"
         in="result4"
         id="feDiffuseLighting911">
        <feDistantLight
           azimuth="235"
           elevation="40"
           id="feDistantLight909" />
      </feDiffuseLighting>
      <feComposite
         operator="in"
         in="result3"
         in2="result1"
         result="result2"
         id="feComposite913" />
      <feComposite
         in2="result1"
         result="result5"
         operator="arithmetic"
         k1="1.7"
         id="feComposite915" />
      <feBlend
         in="result5"
         in2="result3"
         mode="normal"
         id="feBlend917" />
    </filter>
  </defs>
  <sodipodi:namedview
     pagecolor="#ffffff"
     bordercolor="#666666"
     borderopacity="1"
     objecttolerance="10"
     gridtolerance="10"
     guidetolerance="10"
     inkscape:pageopacity="0"
     inkscape:pageshadow="2"
     inkscape:window-width="1920"
     inkscape:window-height="1056"
     id="namedview150"
     showgrid="false"
     inkscape:zoom="0.5797308"
     inkscape:cx="836.91286"
     inkscape:cy="398.99489"
     inkscape:window-x="0"
     inkscape:window-y="24"
     inkscape:window-maximized="1"
     inkscape:current-layer="svg148" />
  <desc
     id="desc2">'items.blend', bottle05, (Blender 2.79 (sub 0))</desc>
  <polygon
     stroke="black"
     stroke-width="1"
     fill="grey"
     fill-opacity="0.25"
     points="368.000,992.000 384.000,960.000 256.000,960.000 272.000,992.000 "
     id="polygon4" />
  <polygon
     stroke="black"
     stroke-width="1"
     fill="grey"
     fill-opacity="0.25"
     points="896.000,960.000 896.000,548.000 768.000,548.000 768.000,960.000 "
     id="polygon6" />
  <polygon
     stroke="black"
     stroke-width="1"
     fill="grey"
     fill-opacity="0.25"
     points="1024.000,960.000 896.000,960.000 912.000,992.000 1008.000,992.000 "
     id="polygon8" />
  <polygon
     stroke="black"
     stroke-width="1"
     fill="grey"
     fill-opacity="0.25"
     points="640.000,960.000 640.000,548.000 512.000,548.000 512.000,960.000 "
     id="polygon10" />
  <polygon
     stroke="black"
     stroke-width="1"
     fill="grey"
     fill-opacity="0.25"
     points="752.000,992.000 768.000,960.000 640.000,960.000 656.000,992.000 "
     id="polygon12" />
  <polygon
     stroke="black"
     stroke-width="1"
     fill="grey"
     fill-opacity="0.25"
     points="512.000,960.000 384.000,960.000 400.000,992.000 496.000,992.000 "
     id="polygon14" />
  <polygon
     stroke="black"
     stroke-width="1"
     fill="grey"
     fill-opacity="0.25"
     points="112.000,992.000 128.000,960.000 0.000,960.000 16.000,992.000 "
     id="polygon16" />
  <polygon
     stroke="black"
     stroke-width="1"
     fill="grey"
     fill-opacity="0.25"
     points="624.000,992.000 640.000,960.000 512.000,960.000 528.000,992.000 "
     id="polygon18" />
  <polygon
     stroke="black"
     stroke-width="1"
     fill="grey"
     fill-opacity="0.25"
     points="256.000,960.000 128.000,960.000 144.000,992.000 240.000,992.000 "
     id="polygon20" />
  <polygon
     stroke="black"
     stroke-width="1"
     fill="grey"
     fill-opacity="0.25"
     points="1024.000,960.000 1024.000,548.000 896.000,548.000 896.000,960.000 "
     id="polygon22" />
  <polygon
     stroke="black"
     stroke-width="1"
     fill="grey"
     fill-opacity="0.25"
     points="512.000,960.000 512.000,548.000 384.000,548.000 384.000,960.000 "
     id="polygon24" />
  <polygon
     stroke="black"
     stroke-width="1"
     fill="grey"
     fill-opacity="0.25"
     points="496.000,992.000 400.000,992.000 448.000,1024.000 "
     id="polygon26" />
  <polygon
     stroke="black"
     stroke-width="1"
     fill="grey"
     fill-opacity="0.25"
     points="240.000,992.000 144.000,992.000 192.000,1024.000 "
     id="polygon28" />
  <polygon
     stroke="black"
     stroke-width="1"
     fill="grey"
     fill-opacity="0.25"
     points="1008.000,992.000 912.000,992.000 960.000,1024.000 "
     id="polygon30" />
  <polygon
     stroke="black"
     stroke-width="1"
     fill="grey"
     fill-opacity="0.25"
     points="256.000,960.000 256.000,548.000 128.000,548.000 128.000,960.000 "
     id="polygon32" />
  <polygon
     stroke="black"
     stroke-width="1"
     fill="grey"
     fill-opacity="0.25"
     points="64.000,1024.000 112.000,992.000 16.000,992.000 "
     id="polygon34" />
  <polygon
     stroke="black"
     stroke-width="1"
     fill="grey"
     fill-opacity="0.25"
     points="768.000,960.000 768.000,548.000 640.000,548.000 640.000,960.000 "
     id="polygon36" />
  <polygon
     stroke="black"
     stroke-width="1"
     fill="grey"
     fill-opacity="0.25"
     points="384.000,960.000 384.000,548.000 256.000,548.000 256.000,960.000 "
     id="polygon38" />
  <polygon
     stroke="black"
     stroke-width="1"
     fill="grey"
     fill-opacity="0.25"
     points="320.000,1024.000 368.000,992.000 272.000,992.000 "
     id="polygon40" />
  <polygon
     stroke="black"
     stroke-width="1"
     fill="grey"
     fill-opacity="0.25"
     points="880.000,992.000 896.000,960.000 768.000,960.000 784.000,992.000 "
     id="polygon42" />
  <polygon
     stroke="black"
     stroke-width="1"
     fill="grey"
     fill-opacity="0.25"
     points="704.000,1024.000 752.000,992.000 656.000,992.000 "
     id="polygon44" />
  <polygon
     stroke="black"
     stroke-width="1"
     fill="grey"
     fill-opacity="0.25"
     points="576.000,1024.000 624.000,992.000 528.000,992.000 "
     id="polygon46" />
  <polygon
     stroke="black"
     stroke-width="1"
     fill="grey"
     fill-opacity="0.25"
     points="128.000,960.000 128.000,548.000 0.000,548.000 0.000,960.000 "
     id="polygon48" />
  <polygon
     stroke="black"
     stroke-width="1"
     fill="grey"
     fill-opacity="0.25"
     points="832.000,1024.000 880.000,992.000 784.000,992.000 "
     id="polygon50" />
  <polygon
     stroke="black"
     stroke-width="1"
     fill="grey"
     fill-opacity="0.25"
     points="128.000,548.000 256.000,548.000 256.000,540.000 128.000,540.000 "
     id="polygon52" />
  <polygon
     stroke="black"
     stroke-width="1"
     fill="grey"
     fill-opacity="0.25"
     points="512.000,548.000 640.000,548.000 640.000,540.000 512.000,540.000 "
     id="polygon54" />
  <polygon
     stroke="black"
     stroke-width="1"
     fill="grey"
     fill-opacity="0.25"
     points="0.000,548.000 128.000,548.000 128.000,540.000 0.000,540.000 "
     id="polygon56" />
  <polygon
     stroke="black"
     stroke-width="1"
     fill="grey"
     fill-opacity="0.25"
     points="640.000,548.000 768.000,548.000 768.000,540.000 640.000,540.000 "
     id="polygon58" />
  <polygon
     stroke="black"
     stroke-width="1"
     fill="grey"
     fill-opacity="0.25"
     points="256.000,548.000 384.000,548.000 384.000,540.000 256.000,540.000 "
     id="polygon60" />
  <polygon
     stroke="black"
     stroke-width="1"
     fill="grey"
     fill-opacity="0.25"
     points="768.000,548.000 896.000,548.000 896.000,540.000 768.000,540.000 "
     id="polygon62" />
  <polygon
     stroke="black"
     stroke-width="1"
     fill="grey"
     fill-opacity="0.25"
     points="384.000,548.000 512.000,548.000 512.000,540.000 384.000,540.000 "
     id="polygon64" />
  <polygon
     stroke="black"
     stroke-width="1"
     fill="grey"
     fill-opacity="0.25"
     points="896.000,548.000 1024.000,548.000 1024.000,540.000 896.000,540.000 "
     id="polygon66" />
  <polygon
     stroke="black"
     stroke-width="1"
     fill="grey"
     fill-opacity="0.25"
     points="896.000,540.000 1024.000,540.000 1024.000,520.000 896.000,520.000 "
     id="polygon68" />
  <polygon
     stroke="black"
     stroke-width="1"
     fill="grey"
     fill-opacity="0.25"
     points="128.000,520.000 256.000,520.000 256.000,512.000 128.000,512.000 "
     id="polygon70" />
  <polygon
     stroke="black"
     stroke-width="1"
     fill="grey"
     fill-opacity="0.25"
     points="640.000,540.000 768.000,540.000 768.000,520.000 640.000,520.000 "
     id="polygon72" />
  <polygon
     stroke="black"
     stroke-width="1"
     fill="grey"
     fill-opacity="0.25"
     points="384.000,540.000 512.000,540.000 512.000,520.000 384.000,520.000 "
     id="polygon74" />
  <polygon
     stroke="black"
     stroke-width="1"
     fill="grey"
     fill-opacity="0.25"
     points="0.000,540.000 128.000,540.000 128.000,520.000 0.000,520.000 "
     id="polygon76" />
  <polygon
     stroke="black"
     stroke-width="1"
     fill="grey"
     fill-opacity="0.25"
     points="768.000,540.000 896.000,540.000 896.000,520.000 768.000,520.000 "
     id="polygon78" />
  <polygon
     stroke="black"
     stroke-width="1"
     fill="grey"
     fill-opacity="0.25"
     points="512.000,540.000 640.000,540.000 640.000,520.000 512.000,520.000 "
     id="polygon80" />
  <polygon
     stroke="black"
     stroke-width="1"
     fill="grey"
     fill-opacity="0.25"
     points="256.000,540.000 384.000,540.000 384.000,520.000 256.000,520.000 "
     id="polygon82" />
  <polygon
     stroke="black"
     stroke-width="1"
     fill="grey"
     fill-opacity="0.25"
     points="128.000,540.000 256.000,540.000 256.000,520.000 128.000,520.000 "
     id="polygon84" />
  <polygon
     stroke="black"
     stroke-width="1"
     fill="grey"
     fill-opacity="0.25"
     points="640.000,-0.001 768.000,-0.001 768.000,411.999 640.000,411.999 "
     id="polygon86" />
  <polygon
     stroke="black"
     stroke-width="1"
     fill="grey"
     fill-opacity="0.25"
     points="896.000,520.000 1024.000,520.000 1024.000,512.000 896.000,512.000 "
     id="polygon88" />
  <polygon
     stroke="black"
     stroke-width="1"
     fill="grey"
     fill-opacity="0.25"
     points="640.000,520.000 768.000,520.000 768.000,512.000 640.000,512.000 "
     id="polygon90" />
  <polygon
     stroke="black"
     stroke-width="1"
     fill="grey"
     fill-opacity="0.25"
     points="384.000,520.000 512.000,520.000 512.000,512.000 384.000,512.000 "
     id="polygon92" />
  <polygon
     stroke="black"
     stroke-width="1"
     fill="grey"
     fill-opacity="0.25"
     points="0.000,520.000 128.000,520.000 128.000,512.000 0.000,512.000 "
     id="polygon94" />
  <polygon
     stroke="black"
     stroke-width="1"
     fill="grey"
     fill-opacity="0.25"
     points="768.000,520.000 896.000,520.000 896.000,512.000 768.000,512.000 "
     id="polygon96" />
  <polygon
     stroke="black"
     stroke-width="1"
     fill="grey"
     fill-opacity="0.25"
     points="512.000,520.000 640.000,520.000 640.000,512.000 512.000,512.000 "
     id="polygon98" />
  <polygon
     stroke="black"
     stroke-width="1"
     fill="grey"
     fill-opacity="0.25"
     points="256.000,520.000 384.000,520.000 384.000,512.000 256.000,512.000 "
     id="polygon100" />
  <polygon
     stroke="black"
     stroke-width="1"
     fill="grey"
     fill-opacity="0.25"
     points="128.000,411.999 256.000,411.999 240.000,443.999 144.000,443.999 "
     id="polygon102" />
  <polygon
     stroke="black"
     stroke-width="1"
     fill="grey"
     fill-opacity="0.25"
     points="384.000,-0.001 512.000,-0.001 512.000,411.999 384.000,411.999 "
     id="polygon104" />
  <polygon
     stroke="black"
     stroke-width="1"
     fill="grey"
     fill-opacity="0.25"
     points="0.000,-0.001 128.000,-0.001 128.000,411.999 0.000,411.999 "
     id="polygon106" />
  <polygon
     stroke="black"
     stroke-width="1"
     fill="grey"
     fill-opacity="0.25"
     points="768.000,-0.001 896.000,-0.001 896.000,411.999 768.000,411.999 "
     id="polygon108" />
  <polygon
     stroke="black"
     stroke-width="1"
     fill="grey"
     fill-opacity="0.25"
     points="512.000,-0.001 640.000,-0.001 640.000,411.999 512.000,411.999 "
     id="polygon110" />
  <polygon
     stroke="black"
     stroke-width="1"
     fill="grey"
     fill-opacity="0.25"
     points="256.000,-0.001 384.000,-0.001 384.000,411.999 256.000,411.999 "
     id="polygon112" />
  <polygon
     stroke="black"
     stroke-width="1"
     fill="grey"
     fill-opacity="0.25"
     points="128.000,-0.001 256.000,-0.001 256.000,411.999 128.000,411.999 "
     id="polygon114" />
  <polygon
     stroke="black"
     stroke-width="1"
     fill="grey"
     fill-opacity="0.25"
     points="896.000,-0.001 1024.000,-0.001 1024.000,411.999 896.000,411.999 "
     id="polygon116" />
  <polygon
     stroke="black"
     stroke-width="1"
     fill="grey"
     fill-opacity="0.25"
     points="784.000,443.999 880.000,443.999 832.000,475.999 "
     id="polygon118" />
  <polygon
     stroke="black"
     stroke-width="1"
     fill="grey"
     fill-opacity="0.25"
     points="896.000,411.999 1024.000,411.999 1008.000,443.999 912.000,443.999 "
     id="polygon120" />
  <polygon
     stroke="black"
     stroke-width="1"
     fill="grey"
     fill-opacity="0.25"
     points="640.000,411.999 768.000,411.999 752.000,443.999 656.000,443.999 "
     id="polygon122" />
  <polygon
     stroke="black"
     stroke-width="1"
     fill="grey"
     fill-opacity="0.25"
     points="384.000,411.999 512.000,411.999 496.000,443.999 400.000,443.999 "
     id="polygon124" />
  <polygon
     stroke="black"
     stroke-width="1"
     fill="grey"
     fill-opacity="0.25"
     points="0.000,411.999 128.000,411.999 112.000,443.999 16.000,443.999 "
     id="polygon126" />
  <polygon
     stroke="black"
     stroke-width="1"
     fill="grey"
     fill-opacity="0.25"
     points="768.000,411.999 896.000,411.999 880.000,443.999 784.000,443.999 "
     id="polygon128" />
  <polygon
     stroke="black"
     stroke-width="1"
     fill="grey"
     fill-opacity="0.25"
     points="512.000,411.999 640.000,411.999 624.000,443.999 528.000,443.999 "
     id="polygon130" />
  <polygon
     stroke="black"
     stroke-width="1"
     fill="grey"
     fill-opacity="0.25"
     points="256.000,411.999 384.000,411.999 368.000,443.999 272.000,443.999 "
     id="polygon132" />
  <polygon
     stroke="black"
     stroke-width="1"
     fill="grey"
     fill-opacity="0.25"
     points="528.000,443.999 624.000,443.999 576.000,475.999 "
     id="polygon134" />
  <polygon
     stroke="black"
     stroke-width="1"
     fill="grey"
     fill-opacity="0.25"
     points="272.000,443.999 368.000,443.999 320.000,475.999 "
     id="polygon136" />
  <polygon
     stroke="black"
     stroke-width="1"
     fill="grey"
     fill-opacity="0.25"
     points="144.000,443.999 240.000,443.999 192.000,475.999 "
     id="polygon138" />
  <polygon
     stroke="black"
     stroke-width="1"
     fill="grey"
     fill-opacity="0.25"
     points="912.000,443.999 1008.000,443.999 960.000,475.999 "
     id="polygon140" />
  <polygon
     stroke="black"
     stroke-width="1"
     fill="grey"
     fill-opacity="0.25"
     points="656.000,443.999 752.000,443.999 704.000,475.999 "
     id="polygon142" />
  <polygon
     stroke="black"
     stroke-width="1"
     fill="grey"
     fill-opacity="0.25"
     points="400.000,443.999 496.000,443.999 448.000,475.999 "
     id="polygon144" />
  <polygon
     stroke="black"
     stroke-width="1"
     fill="grey"
     fill-opacity="0.25"
     points="16.000,443.999 112.000,443.999 64.000,475.999 "
     id="polygon146" />
  <rect
     style="opacity:1;vector-effect:none;fill:#ff2a2a;fill-opacity:1;stroke:none;stroke-width:1.07038009px;stroke-linecap:butt;stroke-linejoin:miter;stroke-miterlimit:4;stroke-dasharray:none;stroke-dashoffset:0;stroke-opacity:0.00392157"
     id="rect3861"
     width="1024"
     height="468"
     x="0"
     y="556" />
  <rect
     style="opacity:1;vector-effect:none;fill:#ff2a2a;fill-opacity:1;stroke:none;stroke-width:1.07038009px;stroke-linecap:butt;stroke-linejoin:miter;stroke-miterlimit:4;stroke-dasharray:none;stroke-dashoffset:0;stroke-opacity:0.00392157"
     id="rect3861-3"
     width="1024"
     height="468"
     x="0"
     y="8" />
  <rect
     style="opacity:1;vector-effect:none;fill:#cccccc;fill-opacity:1;stroke:none;stroke-width:1.0410167px;stroke-linecap:butt;stroke-linejoin:miter;stroke-miterlimit:4;stroke-dasharray:none;stroke-dashoffset:0;stroke-opacity:0.00392157"
     id="rect4683"
     width="1024"
     height="80"
     x="0"
     y="476" />
  <rect
     style="opacity:1;vector-effect:none;fill:#cccccc;fill-opacity:1;stroke:none;stroke-width:1.98191285px;stroke-linecap:butt;stroke-linejoin:miter;stroke-miterlimit:4;stroke-dasharray:none;stroke-dashoffset:0;stroke-opacity:0.00392157"
     id="rect4685"
     width="1024"
     height="29"
     x="0"
     y="0" />
  <g
     id="g903"
     style="filter:url(#filter919)">
    <rect
       y="682.06982"
       x="7.5984464"
       height="62.265053"
       width="460.76144"
       id="rect888"
       style="opacity:1;vector-effect:none;fill:#e9c6af;fill-opacity:1;stroke:none;stroke-width:0.82818693px;stroke-linecap:butt;stroke-linejoin:miter;stroke-miterlimit:4;stroke-dasharray:none;stroke-dashoffset:0;stroke-opacity:0.00392157" />
    <flowRoot
       transform="matrix(1.6869848,0,0,1.6869848,-24.63887,-478.378)"
       style="font-style:normal;font-variant:normal;font-weight:normal;font-stretch:normal;font-size:21.33333397px;line-height:125%;font-family:sans-serif;-inkscape-font-specification:'sans-serif, Normal';font-variant-ligatures:normal;font-variant-caps:normal;font-variant-numeric:normal;font-feature-settings:normal;text-align:start;letter-spacing:0px;word-spacing:0px;writing-mode:lr-tb;text-anchor:start;fill:#000000;fill-opacity:1;stroke:none;stroke-width:1px;stroke-linecap:butt;stroke-linejoin:miter;stroke-opacity:1"
       id="flowRoot890"
       xml:space="preserve"><flowRegion
         id="flowRegion892"><rect
           y="693.67859"
           x="33.770882"
           height="28.494167"
           width="248.0049"
           id="rect894" /></flowRegion><flowPara
         id="flowPara896">Red Sarcophagus Juice</flowPara></flowRoot>  </g>
</svg>
