<?xml version="1.0" encoding="UTF-8" standalone="no"?>
<svg
   xmlns:dc="http://purl.org/dc/elements/1.1/"
   xmlns:cc="http://creativecommons.org/ns#"
   xmlns:rdf="http://www.w3.org/1999/02/22-rdf-syntax-ns#"
   xmlns:svg="http://www.w3.org/2000/svg"
   xmlns="http://www.w3.org/2000/svg"
   xmlns:sodipodi="http://sodipodi.sourceforge.net/DTD/sodipodi-0.dtd"
   xmlns:inkscape="http://www.inkscape.org/namespaces/inkscape"
   width="1024"
   height="1024"
   viewBox="0 0 1024 1024"
   version="1.1"
   id="svg204"
   sodipodi:docname="bottle03.svg"
   inkscape:version="0.92.3 (2405546, 2018-03-11)">
  <metadata
     id="metadata210">
    <rdf:RDF>
      <cc:Work
         rdf:about="">
        <dc:format>image/svg+xml</dc:format>
        <dc:type
           rdf:resource="http://purl.org/dc/dcmitype/StillImage" />
      </cc:Work>
    </rdf:RDF>
  </metadata>
  <defs
     id="defs208">
    <filter
       y="-0.15000001"
       height="1.3"
       x="-0.15000001"
       width="1.3"
       inkscape:menu-tooltip="Aquarelle paper effect which can be used for pictures as for objects"
       inkscape:menu="Textures"
       inkscape:label="Rough Paper"
       style="color-interpolation-filters:sRGB"
       id="filter919">
      <feTurbulence
         type="fractalNoise"
         baseFrequency="0.04"
         numOctaves="5"
         seed="0"
         result="result4"
         id="feTurbulence905" />
      <feDisplacementMap
         in="SourceGraphic"
         in2="result4"
         yChannelSelector="G"
         xChannelSelector="R"
         scale="10"
         result="result3"
         id="feDisplacementMap907" />
      <feDiffuseLighting
         lighting-color="#e9e6d7"
         diffuseConstant="1"
         surfaceScale="2"
         result="result1"
         in="result4"
         id="feDiffuseLighting911">
        <feDistantLight
           azimuth="235"
           elevation="40"
           id="feDistantLight909" />
      </feDiffuseLighting>
      <feComposite
         operator="in"
         in="result3"
         in2="result1"
         result="result2"
         id="feComposite913" />
      <feComposite
         k4="0"
         k3="0"
         k2="0"
         in2="result1"
         result="result5"
         operator="arithmetic"
         k1="1.7"
         id="feComposite915" />
      <feBlend
         in="result5"
         in2="result3"
         mode="normal"
         id="feBlend917" />
    </filter>
  </defs>
  <sodipodi:namedview
     pagecolor="#ffffff"
     bordercolor="#666666"
     borderopacity="1"
     objecttolerance="10"
     gridtolerance="10"
     guidetolerance="10"
     inkscape:pageopacity="0"
     inkscape:pageshadow="2"
     inkscape:window-width="1920"
     inkscape:window-height="1056"
     id="namedview206"
     showgrid="false"
     inkscape:zoom="0.5640152"
     inkscape:cx="858.55358"
     inkscape:cy="426.34068"
     inkscape:window-x="0"
     inkscape:window-y="24"
     inkscape:window-maximized="1"
     inkscape:current-layer="svg204" />
  <desc
     id="desc2">'items.blend', bottle03, (Blender 2.79 (sub 0))</desc>
  <polygon
     stroke="black"
     stroke-width="1"
     fill="grey"
     fill-opacity="0.25"
     points="-0.000,616.000 -0.000,916.000 128.000,916.000 128.000,616.000 "
     id="polygon4" />
  <polygon
     stroke="black"
     stroke-width="1"
     fill="grey"
     fill-opacity="0.25"
     points="384.000,616.000 368.000,560.000 256.000,560.000 256.000,616.000 "
     id="polygon6" />
  <polygon
     stroke="black"
     stroke-width="1"
     fill="grey"
     fill-opacity="0.25"
     points="256.000,616.000 256.000,560.000 144.000,560.000 128.000,616.000 "
     id="polygon8" />
  <polygon
     stroke="black"
     stroke-width="1"
     fill="grey"
     fill-opacity="0.25"
     points="-0.000,616.000 128.000,616.000 112.000,560.000 -0.000,560.000 "
     id="polygon10" />
  <polygon
     stroke="black"
     stroke-width="1"
     fill="grey"
     fill-opacity="0.25"
     points="512.000,616.000 640.000,616.000 624.000,560.000 512.000,560.000 "
     id="polygon12" />
  <polygon
     stroke="black"
     stroke-width="1"
     fill="grey"
     fill-opacity="0.25"
     points="896.000,616.000 880.000,560.000 768.000,560.000 768.000,616.000 "
     id="polygon14" />
  <polygon
     stroke="black"
     stroke-width="1"
     fill="grey"
     fill-opacity="0.25"
     points="144.000,560.000 256.000,560.000 256.000,504.000 192.000,504.000 "
     id="polygon16" />
  <polygon
     stroke="black"
     stroke-width="1"
     fill="grey"
     fill-opacity="0.25"
     points="656.000,560.000 768.000,560.000 768.000,504.000 704.000,504.000 "
     id="polygon18" />
  <polygon
     stroke="black"
     stroke-width="1"
     fill="grey"
     fill-opacity="0.25"
     points="192.000,470.000 256.000,470.000 256.000,454.000 192.000,454.000 "
     id="polygon20" />
  <polygon
     stroke="black"
     stroke-width="1"
     fill="grey"
     fill-opacity="0.25"
     points="512.000,560.000 512.000,504.000 448.000,504.000 400.000,560.000 "
     id="polygon22" />
  <polygon
     stroke="black"
     stroke-width="1"
     fill="grey"
     fill-opacity="0.25"
     points="832.000,406.000 768.000,406.000 768.000,422.000 832.000,422.000 "
     id="polygon24" />
  <polygon
     stroke="black"
     stroke-width="1"
     fill="grey"
     fill-opacity="0.25"
     points="-0.000,560.000 112.000,560.000 64.000,504.000 0.000,504.000 "
     id="polygon26" />
  <polygon
     stroke="black"
     stroke-width="1"
     fill="grey"
     fill-opacity="0.25"
     points="64.000,406.000 0.000,406.000 0.000,422.000 64.000,422.000 "
     id="polygon28" />
  <polygon
     stroke="black"
     stroke-width="1"
     fill="grey"
     fill-opacity="0.25"
     points="704.000,470.000 768.000,470.000 768.000,454.000 704.000,454.000 "
     id="polygon30" />
  <polygon
     stroke="black"
     stroke-width="1"
     fill="grey"
     fill-opacity="0.25"
     points="768.000,406.000 704.000,406.000 704.000,422.000 768.000,422.000 "
     id="polygon32" />
  <polygon
     stroke="black"
     stroke-width="1"
     fill="grey"
     fill-opacity="0.25"
     points="512.000,916.000 640.000,916.000 640.000,616.000 512.000,616.000 "
     id="polygon34" />
  <polygon
     stroke="black"
     stroke-width="1"
     fill="grey"
     fill-opacity="0.25"
     points="576.000,406.000 512.000,406.000 512.000,422.000 576.000,422.000 "
     id="polygon36" />
  <polygon
     stroke="black"
     stroke-width="1"
     fill="grey"
     fill-opacity="0.25"
     points="256.000,616.000 256.000,916.000 384.000,916.000 384.000,616.000 "
     id="polygon38" />
  <polygon
     stroke="black"
     stroke-width="1"
     fill="grey"
     fill-opacity="0.25"
     points="768.000,616.000 768.000,916.000 896.000,916.000 896.000,616.000 "
     id="polygon40" />
  <polygon
     stroke="black"
     stroke-width="1"
     fill="grey"
     fill-opacity="0.25"
     points="640.000,616.000 640.000,916.000 768.000,916.000 768.000,616.000 "
     id="polygon42" />
  <polygon
     stroke="black"
     stroke-width="1"
     fill="grey"
     fill-opacity="0.25"
     points="128.000,616.000 128.000,916.000 256.000,916.000 256.000,616.000 "
     id="polygon44" />
  <polygon
     stroke="black"
     stroke-width="1"
     fill="grey"
     fill-opacity="0.25"
     points="768.000,470.000 832.000,470.000 832.000,454.000 768.000,454.000 "
     id="polygon46" />
  <polygon
     stroke="black"
     stroke-width="1"
     fill="grey"
     fill-opacity="0.25"
     points="256.000,560.000 368.000,560.000 320.000,504.000 256.000,504.000 "
     id="polygon48" />
  <polygon
     stroke="black"
     stroke-width="1"
     fill="grey"
     fill-opacity="0.25"
     points="832.000,504.000 768.000,504.000 768.000,560.000 880.000,560.000 "
     id="polygon50" />
  <polygon
     stroke="black"
     stroke-width="1"
     fill="grey"
     fill-opacity="0.25"
     points="448.000,470.000 512.000,470.000 512.000,454.000 448.000,454.000 "
     id="polygon52" />
  <polygon
     stroke="black"
     stroke-width="1"
     fill="grey"
     fill-opacity="0.25"
     points="896.000,916.000 768.000,916.000 768.000,1024.000 "
     id="polygon54" />
  <polygon
     stroke="black"
     stroke-width="1"
     fill="grey"
     fill-opacity="0.25"
     points="768.000,616.000 768.000,560.000 656.000,560.000 640.000,616.000 "
     id="polygon56" />
  <polygon
     stroke="black"
     stroke-width="1"
     fill="grey"
     fill-opacity="0.25"
     points="912.000,560.000 1024.000,560.000 1024.000,504.000 960.000,504.000 "
     id="polygon58" />
  <polygon
     stroke="black"
     stroke-width="1"
     fill="grey"
     fill-opacity="0.25"
     points="624.000,560.000 576.000,504.000 512.000,504.000 512.000,560.000 "
     id="polygon60" />
  <polygon
     stroke="black"
     stroke-width="1"
     fill="grey"
     fill-opacity="0.25"
     points="248.282,0.000 312.289,0.000 312.289,32.000 248.282,32.000 "
     id="polygon62" />
  <polygon
     stroke="black"
     stroke-width="1"
     fill="grey"
     fill-opacity="0.25"
     points="576.000,504.000 576.000,470.000 512.000,470.000 512.000,504.000 "
     id="polygon64" />
  <polygon
     stroke="black"
     stroke-width="1"
     fill="grey"
     fill-opacity="0.25"
     points="64.000,504.000 64.000,470.000 0.000,470.000 0.000,504.000 "
     id="polygon66" />
  <polygon
     stroke="black"
     stroke-width="1"
     fill="grey"
     fill-opacity="0.25"
     points="320.000,504.000 320.000,470.000 256.000,470.000 256.000,504.000 "
     id="polygon68" />
  <polygon
     stroke="black"
     stroke-width="1"
     fill="grey"
     fill-opacity="0.25"
     points="1024.000,504.000 1024.000,470.000 960.000,470.000 960.000,504.000 "
     id="polygon70" />
  <polygon
     stroke="black"
     stroke-width="1"
     fill="grey"
     fill-opacity="0.25"
     points="512.000,504.000 512.000,470.000 448.000,470.000 448.000,504.000 "
     id="polygon72" />
  <polygon
     stroke="black"
     stroke-width="1"
     fill="grey"
     fill-opacity="0.25"
     points="832.000,504.000 832.000,470.000 768.000,470.000 768.000,504.000 "
     id="polygon74" />
  <polygon
     stroke="black"
     stroke-width="1"
     fill="grey"
     fill-opacity="0.25"
     points="768.000,504.000 768.000,470.000 704.000,470.000 704.000,504.000 "
     id="polygon76" />
  <polygon
     stroke="black"
     stroke-width="1"
     fill="grey"
     fill-opacity="0.25"
     points="256.000,504.000 256.000,470.000 192.000,470.000 192.000,504.000 "
     id="polygon78" />
  <polygon
     stroke="black"
     stroke-width="1"
     fill="grey"
     fill-opacity="0.25"
     points="256.000,454.000 256.000,422.000 192.000,422.000 192.000,454.000 "
     id="polygon80" />
  <polygon
     stroke="black"
     stroke-width="1"
     fill="grey"
     fill-opacity="0.25"
     points="768.000,454.000 768.000,422.000 704.000,422.000 704.000,454.000 "
     id="polygon82" />
  <polygon
     stroke="black"
     stroke-width="1"
     fill="grey"
     fill-opacity="0.25"
     points="832.000,454.000 832.000,422.000 768.000,422.000 768.000,454.000 "
     id="polygon84" />
  <polygon
     stroke="black"
     stroke-width="1"
     fill="grey"
     fill-opacity="0.25"
     points="512.000,454.000 512.000,422.000 448.000,422.000 448.000,454.000 "
     id="polygon86" />
  <polygon
     stroke="black"
     stroke-width="1"
     fill="grey"
     fill-opacity="0.25"
     points="1024.000,454.000 1024.000,422.000 960.000,422.000 960.000,454.000 "
     id="polygon88" />
  <polygon
     stroke="black"
     stroke-width="1"
     fill="grey"
     fill-opacity="0.25"
     points="320.000,454.000 320.000,422.000 256.000,422.000 256.000,454.000 "
     id="polygon90" />
  <polygon
     stroke="black"
     stroke-width="1"
     fill="grey"
     fill-opacity="0.25"
     points="64.000,454.000 64.000,422.000 0.000,422.000 0.000,454.000 "
     id="polygon92" />
  <polygon
     stroke="black"
     stroke-width="1"
     fill="grey"
     fill-opacity="0.25"
     points="576.000,454.000 576.000,422.000 512.000,422.000 512.000,454.000 "
     id="polygon94" />
  <polygon
     stroke="black"
     stroke-width="1"
     fill="grey"
     fill-opacity="0.25"
     points="512.000,470.000 576.000,470.000 576.000,454.000 512.000,454.000 "
     id="polygon96" />
  <polygon
     stroke="black"
     stroke-width="1"
     fill="grey"
     fill-opacity="0.25"
     points="1024.000,406.000 960.000,406.000 960.000,422.000 1024.000,422.000 "
     id="polygon98" />
  <polygon
     stroke="black"
     stroke-width="1"
     fill="grey"
     fill-opacity="0.25"
     points="0.000,470.000 64.000,470.000 64.000,454.000 0.000,454.000 "
     id="polygon100" />
  <polygon
     stroke="black"
     stroke-width="1"
     fill="grey"
     fill-opacity="0.25"
     points="256.000,406.000 192.000,406.000 192.000,422.000 256.000,422.000 "
     id="polygon102" />
  <polygon
     stroke="black"
     stroke-width="1"
     fill="grey"
     fill-opacity="0.25"
     points="256.000,470.000 320.000,470.000 320.000,454.000 256.000,454.000 "
     id="polygon104" />
  <polygon
     stroke="black"
     stroke-width="1"
     fill="grey"
     fill-opacity="0.25"
     points="320.000,406.000 256.000,406.000 256.000,422.000 320.000,422.000 "
     id="polygon106" />
  <polygon
     stroke="black"
     stroke-width="1"
     fill="grey"
     fill-opacity="0.25"
     points="960.000,470.000 1024.000,470.000 1024.000,454.000 960.000,454.000 "
     id="polygon108" />
  <polygon
     stroke="black"
     stroke-width="1"
     fill="grey"
     fill-opacity="0.25"
     points="512.000,406.000 448.000,406.000 448.000,422.000 512.000,422.000 "
     id="polygon110" />
  <polygon
     stroke="black"
     stroke-width="1"
     fill="grey"
     fill-opacity="0.25"
     points="248.282,32.000 312.289,32.000 368.000,60.000 248.282,60.000 "
     id="polygon112" />
  <polygon
     stroke="black"
     stroke-width="1"
     fill="grey"
     fill-opacity="0.25"
     points="968.199,0.000 1024.000,0.000 1024.000,32.000 968.199,32.000 "
     id="polygon114" />
  <polygon
     stroke="black"
     stroke-width="1"
     fill="grey"
     fill-opacity="0.25"
     points="0.000,0.000 56.289,0.000 56.289,32.000 0.000,32.000 "
     id="polygon116" />
  <polygon
     stroke="black"
     stroke-width="1"
     fill="grey"
     fill-opacity="0.25"
     points="712.199,0.000 776.192,0.000 776.192,32.000 712.199,32.000 "
     id="polygon118" />
  <polygon
     stroke="black"
     stroke-width="1"
     fill="grey"
     fill-opacity="0.25"
     points="448.000,0.000 511.993,0.000 511.993,32.000 448.000,32.000 "
     id="polygon120" />
  <polygon
     stroke="black"
     stroke-width="1"
     fill="grey"
     fill-opacity="0.25"
     points="248.283,0.000 184.290,0.000 184.290,32.000 248.283,32.000 "
     id="polygon122" />
  <polygon
     stroke="black"
     stroke-width="1"
     fill="grey"
     fill-opacity="0.25"
     points="840.198,0.000 776.191,0.000 776.191,32.000 840.198,32.000 "
     id="polygon124" />
  <polygon
     stroke="black"
     stroke-width="1"
     fill="grey"
     fill-opacity="0.25"
     points="511.993,0.000 576.000,0.000 576.000,32.000 511.993,32.000 "
     id="polygon126" />
  <polygon
     stroke="black"
     stroke-width="1"
     fill="grey"
     fill-opacity="0.25"
     points="0.000,60.000 112.000,60.000 128.000,94.000 0.000,94.000 "
     id="polygon128" />
  <polygon
     stroke="black"
     stroke-width="1"
     fill="grey"
     fill-opacity="0.25"
     points="968.199,32.000 1024.000,32.000 1024.000,60.000 912.000,60.000 "
     id="polygon130" />
  <polygon
     stroke="black"
     stroke-width="1"
     fill="grey"
     fill-opacity="0.25"
     points="776.192,32.000 712.199,32.000 656.000,60.000 776.192,60.000 "
     id="polygon132" />
  <polygon
     stroke="black"
     stroke-width="1"
     fill="grey"
     fill-opacity="0.25"
     points="511.993,32.000 576.000,32.000 624.000,60.000 511.993,60.000 "
     id="polygon134" />
  <polygon
     stroke="black"
     stroke-width="1"
     fill="grey"
     fill-opacity="0.25"
     points="448.000,32.000 511.993,32.000 511.993,60.000 400.000,60.000 "
     id="polygon136" />
  <polygon
     stroke="black"
     stroke-width="1"
     fill="grey"
     fill-opacity="0.25"
     points="248.282,32.000 184.289,32.000 144.000,60.000 248.282,60.000 "
     id="polygon138" />
  <polygon
     stroke="black"
     stroke-width="1"
     fill="grey"
     fill-opacity="0.25"
     points="840.198,32.000 776.191,32.000 776.191,60.000 880.000,60.000 "
     id="polygon140" />
  <polygon
     stroke="black"
     stroke-width="1"
     fill="grey"
     fill-opacity="0.25"
     points="0.000,32.000 56.289,32.000 112.000,60.000 0.000,60.000 "
     id="polygon142" />
  <polygon
     stroke="black"
     stroke-width="1"
     fill="grey"
     fill-opacity="0.25"
     points="384.000,94.000 511.993,94.000 511.993,364.000 384.000,364.000 "
     id="polygon144" />
  <polygon
     stroke="black"
     stroke-width="1"
     fill="grey"
     fill-opacity="0.25"
     points="248.282,60.000 368.000,60.000 384.000,94.000 248.282,94.000 "
     id="polygon146" />
  <polygon
     stroke="black"
     stroke-width="1"
     fill="grey"
     fill-opacity="0.25"
     points="912.000,60.000 1024.000,60.000 1024.000,94.000 896.000,94.000 "
     id="polygon148" />
  <polygon
     stroke="black"
     stroke-width="1"
     fill="grey"
     fill-opacity="0.25"
     points="776.192,60.000 656.000,60.000 640.000,94.000 776.192,94.000 "
     id="polygon150" />
  <polygon
     stroke="black"
     stroke-width="1"
     fill="grey"
     fill-opacity="0.25"
     points="511.993,60.000 624.000,60.000 640.000,94.000 511.993,94.000 "
     id="polygon152" />
  <polygon
     stroke="black"
     stroke-width="1"
     fill="grey"
     fill-opacity="0.25"
     points="400.000,60.000 511.993,60.000 511.993,94.000 384.000,94.000 "
     id="polygon154" />
  <polygon
     stroke="black"
     stroke-width="1"
     fill="grey"
     fill-opacity="0.25"
     points="248.282,60.000 144.000,60.000 128.000,94.000 248.282,94.000 "
     id="polygon156" />
  <polygon
     stroke="black"
     stroke-width="1"
     fill="grey"
     fill-opacity="0.25"
     points="880.000,60.000 776.191,60.000 776.191,94.000 896.000,94.000 "
     id="polygon158" />
  <polygon
     stroke="black"
     stroke-width="1"
     fill="grey"
     fill-opacity="0.25"
     points="1024.000,364.000 1024.000,404.000 896.000,364.000 776.191,364.000 "
     id="polygon160" />
  <polygon
     stroke="black"
     stroke-width="1"
     fill="grey"
     fill-opacity="0.25"
     points="248.282,94.000 128.000,94.000 128.000,364.000 248.282,364.000 "
     id="polygon162" />
  <polygon
     stroke="black"
     stroke-width="1"
     fill="grey"
     fill-opacity="0.25"
     points="896.000,94.000 776.191,94.000 776.191,364.000 896.000,364.000 "
     id="polygon164" />
  <polygon
     stroke="black"
     stroke-width="1"
     fill="grey"
     fill-opacity="0.25"
     points="0.000,94.000 128.000,94.000 128.000,364.000 0.000,364.000 "
     id="polygon166" />
  <polygon
     stroke="black"
     stroke-width="1"
     fill="grey"
     fill-opacity="0.25"
     points="248.282,94.000 384.000,94.000 384.000,364.000 248.282,364.000 "
     id="polygon168" />
  <polygon
     stroke="black"
     stroke-width="1"
     fill="grey"
     fill-opacity="0.25"
     points="896.000,94.000 1024.000,94.000 1024.000,364.000 896.000,364.000 "
     id="polygon170" />
  <polygon
     stroke="black"
     stroke-width="1"
     fill="grey"
     fill-opacity="0.25"
     points="776.192,94.000 640.000,94.000 640.000,364.000 776.192,364.000 "
     id="polygon172" />
  <polygon
     stroke="black"
     stroke-width="1"
     fill="grey"
     fill-opacity="0.25"
     points="511.993,94.000 640.000,94.000 640.000,364.000 511.993,364.000 "
     id="polygon174" />
  <polygon
     stroke="black"
     stroke-width="1"
     fill="grey"
     fill-opacity="0.25"
     points="896.000,616.000 896.000,916.000 1024.000,916.000 1024.000,616.000 "
     id="polygon176" />
  <polygon
     stroke="black"
     stroke-width="1"
     fill="grey"
     fill-opacity="0.25"
     points="896.000,616.000 1024.000,616.000 1024.000,560.000 912.000,560.000 "
     id="polygon178" />
  <polygon
     stroke="black"
     stroke-width="1"
     fill="grey"
     fill-opacity="0.25"
     points="384.000,916.000 512.000,916.000 512.000,616.000 384.000,616.000 "
     id="polygon180" />
  <polygon
     stroke="black"
     stroke-width="1"
     fill="grey"
     fill-opacity="0.25"
     points="384.000,616.000 512.000,616.000 512.000,560.000 400.000,560.000 "
     id="polygon182" />
  <polygon
     stroke="black"
     stroke-width="1"
     fill="grey"
     fill-opacity="0.25"
     points="511.993,364.000 511.993,404.000 511.993,404.000 384.000,364.000 "
     id="polygon184" />
  <polygon
     stroke="black"
     stroke-width="1"
     fill="grey"
     fill-opacity="0.25"
     points="511.993,404.000 511.993,404.000 511.993,364.000 640.000,364.000 "
     id="polygon186" />
  <polygon
     stroke="black"
     stroke-width="1"
     fill="grey"
     fill-opacity="0.25"
     points="128.000,916.000 -0.000,916.000 -0.000,1024.000 "
     id="polygon188" />
  <polygon
     stroke="black"
     stroke-width="1"
     fill="grey"
     fill-opacity="0.25"
     points="768.000,1024.000 768.000,916.000 640.000,916.000 "
     id="polygon190" />
  <polygon
     stroke="black"
     stroke-width="1"
     fill="grey"
     fill-opacity="0.25"
     points="512.000,1024.000 512.000,916.000 384.000,916.000 "
     id="polygon192" />
  <polygon
     stroke="black"
     stroke-width="1"
     fill="grey"
     fill-opacity="0.25"
     points="128.000,364.000 0.000,404.000 0.000,364.000 128.000,364.000 "
     id="polygon194" />
  <polygon
     stroke="black"
     stroke-width="1"
     fill="grey"
     fill-opacity="0.25"
     points="256.000,916.000 256.000,1024.000 384.000,916.000 "
     id="polygon196" />
  <polygon
     stroke="black"
     stroke-width="1"
     fill="grey"
     fill-opacity="0.25"
     points="1024.000,916.000 896.000,916.000 1024.000,1024.000 "
     id="polygon198" />
  <polygon
     stroke="black"
     stroke-width="1"
     fill="grey"
     fill-opacity="0.25"
     points="256.000,916.000 128.000,916.000 256.000,1024.000 "
     id="polygon200" />
  <polygon
     stroke="black"
     stroke-width="1"
     fill="grey"
     fill-opacity="0.25"
     points="512.000,916.000 512.000,1024.000 640.000,916.000 "
     id="polygon202" />
  <rect
     style="opacity:1;vector-effect:none;fill:#ff2a2a;fill-opacity:1;stroke:none;stroke-width:1.58330679px;stroke-linecap:butt;stroke-linejoin:miter;stroke-miterlimit:4;stroke-dasharray:none;stroke-dashoffset:0;stroke-opacity:0.00392157"
     id="rect3861-3"
     width="1024"
     height="1024"
     x="7.6414398e-07"
     y="-3.9301895e-14" />
  <g
     id="g903"
     style="filter:url(#filter919)"
     transform="translate(274.02085)">
    <rect
       y="682.06982"
       x="7.5984464"
       height="62.265053"
       width="460.76144"
       id="rect888"
       style="opacity:1;vector-effect:none;fill:#e9c6af;fill-opacity:1;stroke:none;stroke-width:0.82818693px;stroke-linecap:butt;stroke-linejoin:miter;stroke-miterlimit:4;stroke-dasharray:none;stroke-dashoffset:0;stroke-opacity:0.00392157" />
    <flowRoot
       transform="matrix(1.6869848,0,0,1.6869848,-24.63887,-478.378)"
       style="font-style:normal;font-variant:normal;font-weight:normal;font-stretch:normal;font-size:21.33333397px;line-height:125%;font-family:sans-serif;-inkscape-font-specification:'sans-serif, Normal';font-variant-ligatures:normal;font-variant-caps:normal;font-variant-numeric:normal;font-feature-settings:normal;text-align:start;letter-spacing:0px;word-spacing:0px;writing-mode:lr-tb;text-anchor:start;fill:#000000;fill-opacity:1;stroke:none;stroke-width:1px;stroke-linecap:butt;stroke-linejoin:miter;stroke-opacity:1"
       id="flowRoot890"
       xml:space="preserve"><flowRegion
         id="flowRegion892"><rect
           y="693.67859"
           x="33.770882"
           height="28.494167"
           width="248.0049"
           id="rect894" /></flowRegion><flowPara
         id="flowPara896">Red Sarcophagus Juice</flowPara></flowRoot>  </g>
  <rect
     style="opacity:1;vector-effect:none;fill:#cccccc;fill-opacity:1;stroke:none;stroke-width:1.15219438px;stroke-linecap:butt;stroke-linejoin:miter;stroke-miterlimit:4;stroke-dasharray:none;stroke-dashoffset:0;stroke-opacity:0.00392157"
     id="rect4683"
     width="1024"
     height="98"
     x="7.6414398e-07"
     y="406" />
  <rect
     style="opacity:1;vector-effect:none;fill:#cccccc;fill-opacity:1;stroke:none;stroke-width:0.65839678px;stroke-linecap:butt;stroke-linejoin:miter;stroke-miterlimit:4;stroke-dasharray:none;stroke-dashoffset:0;stroke-opacity:0.00392157"
     id="rect4683-3"
     width="1024"
     height="32"
     x="7.6414398e-07"
     y="0" />
</svg>
