<?xml version="1.0" encoding="UTF-8" standalone="no"?>
<svg
   xmlns:dc="http://purl.org/dc/elements/1.1/"
   xmlns:cc="http://creativecommons.org/ns#"
   xmlns:rdf="http://www.w3.org/1999/02/22-rdf-syntax-ns#"
   xmlns:svg="http://www.w3.org/2000/svg"
   xmlns="http://www.w3.org/2000/svg"
   xmlns:sodipodi="http://sodipodi.sourceforge.net/DTD/sodipodi-0.dtd"
   xmlns:inkscape="http://www.inkscape.org/namespaces/inkscape"
   width="1024"
   height="1024"
   viewBox="0 0 1024 1024"
   version="1.1"
   id="svg80"
   sodipodi:docname="cross01.svg"
   inkscape:version="0.92.2 (5c3e80d, 2017-08-06)">
  <metadata
     id="metadata86">
    <rdf:RDF>
      <cc:Work
         rdf:about="">
        <dc:format>image/svg+xml</dc:format>
        <dc:type
           rdf:resource="http://purl.org/dc/dcmitype/StillImage" />
      </cc:Work>
    </rdf:RDF>
  </metadata>
  <defs
     id="defs84" />
  <sodipodi:namedview
     pagecolor="#ffffff"
     bordercolor="#666666"
     borderopacity="1"
     objecttolerance="10"
     gridtolerance="10"
     guidetolerance="10"
     inkscape:pageopacity="0"
     inkscape:pageshadow="2"
     inkscape:window-width="1920"
     inkscape:window-height="1027"
     id="namedview82"
     showgrid="false"
     inkscape:zoom="0.65186406"
     inkscape:cx="748.20573"
     inkscape:cy="573.48976"
     inkscape:window-x="-8"
     inkscape:window-y="22"
     inkscape:window-maximized="1"
     inkscape:current-layer="svg80" />
  <desc
     id="desc2">'items.blend', cross, (Blender 2.79 (sub 0))</desc>
  <polygon
     stroke="black"
     stroke-width="1"
     fill="grey"
     fill-opacity="0.25"
     points="536.000,392.000 536.000,120.000 488.000,120.000 488.000,392.000 "
     id="polygon4"
     style="stroke:#81572c;stroke-opacity:1;fill:#81572c;fill-opacity:1" />
  <polygon
     stroke="black"
     stroke-width="1"
     fill="grey"
     fill-opacity="0.25"
     points="488.000,120.000 488.000,392.000 536.000,392.000 536.000,120.000 "
     id="polygon6"
     style="stroke:#81572c;stroke-opacity:1;fill:#81572c;fill-opacity:1" />
  <polygon
     stroke="black"
     stroke-width="1"
     fill="grey"
     fill-opacity="0.25"
     points="488.000,392.000 536.000,392.000 536.000,120.000 488.000,120.000 "
     id="polygon8"
     style="stroke:#81572c;stroke-opacity:1;fill:#81572c;fill-opacity:1" />
  <polygon
     stroke="black"
     stroke-width="1"
     fill="grey"
     fill-opacity="0.25"
     points="488.000,120.000 536.000,120.000 552.000,80.000 472.000,80.000 "
     id="polygon10"
     style="stroke:#767676;stroke-opacity:1;fill:#767676;fill-opacity:1" />
  <polygon
     stroke="black"
     stroke-width="1"
     fill="grey"
     fill-opacity="0.25"
     points="536.000,120.000 488.000,120.000 488.000,392.000 536.000,392.000 "
     id="polygon12"
     style="fill:#81572c;fill-opacity:1;stroke:#81572c;stroke-opacity:1" />
  <polygon
     stroke="black"
     stroke-width="1"
     fill="grey"
     fill-opacity="0.25"
     points="536.000,440.000 828.000,440.000 828.000,392.000 536.000,392.000 "
     id="polygon14"
     style="stroke:#81572c;stroke-opacity:1;fill:#81572c;fill-opacity:1" />
  <polygon
     stroke="black"
     stroke-width="1"
     fill="grey"
     fill-opacity="0.25"
     points="827.999,439.998 536.000,439.997 536.000,391.997 827.999,391.997 "
     id="polygon16"
     style="stroke:#81572c;stroke-opacity:1;fill:#81572c;fill-opacity:1" />
  <polygon
     stroke="black"
     stroke-width="1"
     fill="grey"
     fill-opacity="0.25"
     points="536.000,440.000 536.000,392.000 828.000,392.000 828.000,440.000 "
     id="polygon18"
     style="stroke:#81572c;stroke-opacity:1;fill:#81572c;fill-opacity:1" />
  <polygon
     stroke="black"
     stroke-width="1"
     fill="grey"
     fill-opacity="0.25"
     points="828.000,440.000 828.000,392.000 868.000,376.000 868.000,456.000 "
     id="polygon20"
     style="stroke:#767676;stroke-opacity:1;fill:#767676;fill-opacity:1" />
  <polygon
     stroke="black"
     stroke-width="1"
     fill="grey"
     fill-opacity="0.25"
     points="488.000,392.000 488.000,440.000 200.000,440.000 200.000,392.000 "
     id="polygon22"
     style="stroke:#81572c;stroke-opacity:1;fill:#81572c;fill-opacity:1" />
  <polygon
     stroke="black"
     stroke-width="1"
     fill="grey"
     fill-opacity="0.25"
     points="200.002,391.997 200.000,440.000 488.000,440.000 488.000,391.997 "
     id="polygon24"
     style="stroke:#81572c;stroke-opacity:1;fill:#81572c;fill-opacity:1" />
  <polygon
     stroke="black"
     stroke-width="1"
     fill="grey"
     fill-opacity="0.25"
     points="488.000,392.000 200.000,392.000 200.000,440.000 488.000,440.000 "
     id="polygon26"
     style="stroke:#81572c;stroke-opacity:1;fill:#81572c;fill-opacity:1" />
  <polygon
     stroke="black"
     stroke-width="1"
     fill="grey"
     fill-opacity="0.25"
     points="200.000,440.000 200.002,391.997 160.002,376.001 160.002,456.001 "
     id="polygon28"
     style="stroke:#767676;stroke-opacity:1;fill:#767676;fill-opacity:1" />
  <polygon
     stroke="black"
     stroke-width="1"
     fill="grey"
     fill-opacity="0.25"
     points="536.000,391.997 488.000,391.997 488.000,440.000 536.000,439.997 "
     id="polygon30"
     style="stroke:#81572c;stroke-opacity:1;fill:#81572c;fill-opacity:1" />
  <polygon
     stroke="black"
     stroke-width="1"
     fill="grey"
     fill-opacity="0.25"
     points="536.000,392.000 488.000,392.000 488.000,440.000 536.000,440.000 "
     id="polygon32"
     style="fill:#81572c;fill-opacity:1;stroke:#81572c;stroke-opacity:1" />
  <polygon
     stroke="black"
     stroke-width="1"
     fill="grey"
     fill-opacity="0.25"
     points="488.000,392.000 200.000,392.000 200.000,440.000 488.000,440.000 "
     id="polygon34"
     style="fill:#81572c;fill-opacity:1;stroke:#81572c;stroke-opacity:1" />
  <polygon
     stroke="black"
     stroke-width="1"
     fill="grey"
     fill-opacity="0.25"
     points="488.000,904.000 472.000,944.000 552.000,944.000 536.000,904.000 "
     id="polygon36"
     style="stroke:#767676;stroke-opacity:1;fill:#767676;fill-opacity:1" />
  <polygon
     stroke="black"
     stroke-width="1"
     fill="grey"
     fill-opacity="0.25"
     points="472.000,944.000 472.000,1024.000 552.000,1024.000 552.000,944.000 "
     id="polygon38"
     style="stroke:#767676;stroke-opacity:1;fill:#767676;fill-opacity:1" />
  <polygon
     stroke="black"
     stroke-width="1"
     fill="grey"
     fill-opacity="0.25"
     points="488.000,904.000 472.000,944.000 552.000,944.000 536.000,904.000 "
     id="polygon40"
     style="stroke:#767676;stroke-opacity:1;fill:#767676;fill-opacity:1" />
  <polygon
     stroke="black"
     stroke-width="1"
     fill="grey"
     fill-opacity="0.25"
     points="488.000,904.000 472.000,944.000 552.000,944.000 536.000,904.000 "
     id="polygon42"
     style="stroke:#767676;stroke-opacity:1;fill:#767676;fill-opacity:1" />
  <polygon
     stroke="black"
     stroke-width="1"
     fill="grey"
     fill-opacity="0.25"
     points="488.000,904.000 472.000,944.000 552.000,944.000 536.000,904.000 "
     id="polygon44"
     style="stroke:#767676;stroke-opacity:1;fill:#767676;fill-opacity:1" />
  <polygon
     stroke="black"
     stroke-width="1"
     fill="grey"
     fill-opacity="0.25"
     points="472.000,80.000 552.000,80.000 552.000,0.000 472.000,0.001 "
     id="polygon46"
     style="stroke:#767676;stroke-opacity:1;fill:#767676;fill-opacity:1" />
  <polygon
     stroke="black"
     stroke-width="1"
     fill="grey"
     fill-opacity="0.25"
     points="488.000,120.000 536.000,120.000 552.000,80.000 472.000,80.000 "
     id="polygon48"
     style="stroke:#767676;stroke-opacity:1;fill:#767676;fill-opacity:1" />
  <polygon
     stroke="black"
     stroke-width="1"
     fill="grey"
     fill-opacity="0.25"
     points="488.000,120.000 536.000,120.000 552.000,80.000 472.000,80.000 "
     id="polygon50"
     style="stroke:#767676;stroke-opacity:1;fill:#767676;fill-opacity:1" />
  <polygon
     stroke="black"
     stroke-width="1"
     fill="grey"
     fill-opacity="0.25"
     points="488.000,120.000 536.000,120.000 552.000,80.000 472.000,80.000 "
     id="polygon52"
     style="stroke:#767676;stroke-opacity:1;fill:#767676;fill-opacity:1" />
  <polygon
     stroke="black"
     stroke-width="1"
     fill="grey"
     fill-opacity="0.25"
     points="947.999,376.001 867.999,376.001 868.000,456.000 947.999,456.000 "
     id="polygon54"
     style="stroke:#767676;stroke-opacity:1;fill:#767676;fill-opacity:1" />
  <polygon
     stroke="black"
     stroke-width="1"
     fill="grey"
     fill-opacity="0.25"
     points="828.000,392.000 828.000,440.000 868.000,456.000 868.000,376.000 "
     id="polygon56"
     style="stroke:#767676;stroke-opacity:1;fill:#767676;fill-opacity:1" />
  <polygon
     stroke="black"
     stroke-width="1"
     fill="grey"
     fill-opacity="0.25"
     points="827.999,439.998 827.999,391.997 867.999,376.001 867.999,456.001 "
     id="polygon58"
     style="stroke:#767676;stroke-opacity:1;fill:#767676;fill-opacity:1" />
  <polygon
     stroke="black"
     stroke-width="1"
     fill="grey"
     fill-opacity="0.25"
     points="828.000,440.000 828.000,392.000 868.000,376.000 868.000,456.000 "
     id="polygon60"
     style="stroke:#767676;stroke-opacity:1;fill:#767676;fill-opacity:1" />
  <polygon
     stroke="black"
     stroke-width="1"
     fill="grey"
     fill-opacity="0.25"
     points="160.002,456.001 160.002,376.001 88.000,376.000 88.000,456.001 "
     id="polygon62"
     style="stroke:#767676;stroke-opacity:1;fill:#767676;fill-opacity:1" />
  <polygon
     stroke="black"
     stroke-width="1"
     fill="grey"
     fill-opacity="0.25"
     points="200.000,440.000 200.000,392.000 160.000,376.000 160.000,456.000 "
     id="polygon64"
     style="stroke:#767676;stroke-opacity:1;fill:#767676;fill-opacity:1" />
  <polygon
     stroke="black"
     stroke-width="1"
     fill="grey"
     fill-opacity="0.25"
     points="200.000,440.000 200.000,392.000 160.000,376.000 160.000,456.000 "
     id="polygon66"
     style="stroke:#767676;stroke-opacity:1;fill:#767676;fill-opacity:1" />
  <polygon
     stroke="black"
     stroke-width="1"
     fill="grey"
     fill-opacity="0.25"
     points="200.000,392.000 200.000,440.000 160.000,456.000 160.000,376.000 "
     id="polygon68"
     style="stroke:#767676;stroke-opacity:1;fill:#767676;fill-opacity:1" />
  <polygon
     stroke="black"
     stroke-width="1"
     fill="grey"
     fill-opacity="0.25"
     points="536.000,904.000 536.000,439.997 488.000,439.997 488.000,904.000 "
     id="polygon70"
     style="stroke:#81572c;stroke-opacity:1;fill:#81572c;fill-opacity:1" />
  <polygon
     stroke="black"
     stroke-width="1"
     fill="grey"
     fill-opacity="0.25"
     points="828.000,440.000 536.000,440.000 536.000,392.000 828.000,392.000 "
     id="polygon72"
     style="fill:#81572c;fill-opacity:1;stroke:#81572c;stroke-opacity:1" />
  <polygon
     stroke="black"
     stroke-width="1"
     fill="grey"
     fill-opacity="0.25"
     points="488.000,440.000 488.000,904.000 536.000,904.000 536.000,440.000 "
     id="polygon74"
     style="stroke:#81572c;stroke-opacity:1;fill:#81572c;fill-opacity:1" />
  <polygon
     stroke="black"
     stroke-width="1"
     fill="grey"
     fill-opacity="0.25"
     points="488.005,439.968 488.000,904.000 536.000,904.000 536.000,439.997 "
     id="polygon76"
     style="stroke:#81572c;stroke-opacity:1;fill:#81572c;fill-opacity:1" />
  <polygon
     stroke="black"
     stroke-width="1"
     fill="grey"
     fill-opacity="0.25"
     points="488.000,440.000 488.000,904.000 536.000,904.000 536.000,439.997 "
     id="polygon78"
     style="fill:#81572c;fill-opacity:1;stroke:#81572c;stroke-opacity:1" />
</svg>
