<?xml version="1.0" encoding="UTF-8" standalone="no"?>
<svg
   xmlns:dc="http://purl.org/dc/elements/1.1/"
   xmlns:cc="http://creativecommons.org/ns#"
   xmlns:rdf="http://www.w3.org/1999/02/22-rdf-syntax-ns#"
   xmlns:svg="http://www.w3.org/2000/svg"
   xmlns="http://www.w3.org/2000/svg"
   xmlns:sodipodi="http://sodipodi.sourceforge.net/DTD/sodipodi-0.dtd"
   xmlns:inkscape="http://www.inkscape.org/namespaces/inkscape"
   width="1024"
   height="1024"
   viewBox="0 0 1024 1024"
   version="1.1"
   id="svg292"
   sodipodi:docname="kokiriSword01.svg"
   inkscape:version="0.92.3 (2405546, 2018-03-11)">
  <metadata
     id="metadata298">
    <rdf:RDF>
      <cc:Work
         rdf:about="">
        <dc:format>image/svg+xml</dc:format>
        <dc:type
           rdf:resource="http://purl.org/dc/dcmitype/StillImage" />
      </cc:Work>
    </rdf:RDF>
  </metadata>
  <defs
     id="defs296" />
  <sodipodi:namedview
     pagecolor="#ffffff"
     bordercolor="#666666"
     borderopacity="1"
     objecttolerance="10"
     gridtolerance="10"
     guidetolerance="10"
     inkscape:pageopacity="0"
     inkscape:pageshadow="2"
     inkscape:window-width="1920"
     inkscape:window-height="1056"
     id="namedview294"
     showgrid="false"
     inkscape:zoom="0.79763794"
     inkscape:cx="698.38915"
     inkscape:cy="482.50756"
     inkscape:window-x="0"
     inkscape:window-y="24"
     inkscape:window-maximized="1"
     inkscape:current-layer="svg292" />
  <desc
     id="desc2">kokiriSword.blend, (Blender 2.81 (sub 4))</desc>
  <path
     style="fill:#999999;fill-opacity:1;stroke:none;stroke-width:1.02499998"
     d="M 161.64062 540.29492 L 163.57031 543.5625 L 7.1855469 656.33594 L 3.1640625 656.33594 L 5.1757812 657.78711 L 3.1640625 659.23633 L 7.1855469 659.23633 L 163.57031 772.00977 L 161.64062 775.27734 L 167.28711 774.69141 L 168.09961 775.27734 L 168.52148 774.56445 L 594.23047 730.42188 L 595.73242 730.72656 L 595.71875 730.26758 L 596.58984 730.17773 L 595.71094 730 L 593.53906 657.78516 L 595.71094 585.57227 L 596.58984 585.39453 L 595.71875 585.30469 L 595.73242 584.84375 L 594.22461 585.14844 L 168.52148 541.00781 L 168.09961 540.29492 L 167.28711 540.88086 L 161.64062 540.29492 z M 161.64062 784.4375 L 163.57031 787.70508 L 7.1855469 900.47852 L 3.1640625 900.47852 L 5.1757812 901.92773 L 3.1640625 903.37891 L 7.1855469 903.37891 L 163.57031 1016.1523 L 161.64062 1019.4199 L 167.28711 1018.834 L 168.09961 1019.4199 L 168.52148 1018.707 L 594.22461 974.56641 L 595.73242 974.87109 L 595.71875 974.41016 L 596.58984 974.32031 L 595.71094 974.14258 L 593.53906 901.92969 L 595.71094 829.71484 L 596.58984 829.53711 L 595.71875 829.44727 L 595.73242 828.98828 L 594.23047 829.29297 L 168.52148 785.15039 L 168.09961 784.4375 L 167.28711 785.02344 L 161.64062 784.4375 z "
     id="polygon4"
     inkscape:label="blade" />
  <path
     style="fill:#ee823b;fill-opacity:1;stroke:none;stroke-width:1.02499998"
     d="M 689.94922 159.54297 L 689.28516 162.01172 L 654.47461 217.78711 L 604.47461 261.38477 L 602.5 262.27148 L 602.62695 262.99609 L 602.5 263.10742 L 602.63672 263.04688 L 611.80078 315.18555 L 610.97852 316.35547 L 611.97852 316.19531 L 612.00586 316.35547 L 612.13672 316.16992 L 743.83789 295.03516 L 744.85742 295.9043 L 744.85742 294.87109 L 745.58789 294.75391 L 744.85742 294.13086 L 744.85742 159.57227 L 744.06055 160.34766 L 690.82227 159.55664 L 690.82617 159.54297 L 690.81836 159.55664 L 689.94922 159.54297 z M 610.97852 326.33789 L 611.80078 327.50781 L 602.63672 379.64648 L 602.5 379.58594 L 602.62695 379.69727 L 602.5 380.42188 L 604.47461 381.30859 L 654.47461 424.90625 L 689.28516 480.68164 L 689.94922 483.15039 L 690.81836 483.13672 L 690.82617 483.15039 L 690.82227 483.13672 L 744.0625 482.34766 L 744.85742 483.12109 L 744.85742 348.5625 L 745.58789 347.93945 L 744.85742 347.82227 L 744.85742 346.78906 L 743.83789 347.6582 L 612.13672 326.52344 L 612.00586 326.33789 L 611.97852 326.49805 L 610.97852 326.33789 z "
     id="polygon10"
     inkscape:label="pommel" />
  <path
     style="fill:#ff7f2a;fill-opacity:1;stroke:none;stroke-width:1.02499998"
     d="M 80.910156 4.828125 L 79.853516 5.9257812 L 78.28125 5.1054688 L 78.320312 7.5195312 L 11.070312 77.396484 L 10.126953 76.894531 L 5.2167969 153.11719 L 5.1210938 153.11328 L 5.1953125 153.46289 L 5.1210938 154.59961 L 5.4355469 154.61133 L 14.945312 199.88086 L 15.193359 199.71289 L 49.878906 267.85742 L 15.193359 336.00391 L 14.945312 335.83594 L 5.4355469 381.10352 L 5.1210938 381.11523 L 5.1953125 382.25195 L 5.1210938 382.60156 L 5.2167969 382.59766 L 10.126953 458.82031 L 11.070312 458.31836 L 78.320312 528.19531 L 78.28125 530.60938 L 79.853516 529.78906 L 80.910156 530.88672 L 80.9375 529.22656 L 220.56836 456.48047 L 221.82031 456.35547 L 221.99805 457.17969 L 222.18945 456.50977 L 222.7168 457.08984 L 222.54102 456.2832 L 223.88477 456.14844 L 223.02344 455.20312 L 223.89648 454.74805 L 222.7168 454.86719 L 222.67188 454.81641 L 256.5957 336.01367 L 257.26367 335.93359 L 256.82422 335.21289 L 257.26367 333.67578 L 255.98242 333.83008 L 215.79102 267.85742 L 255.98047 201.88672 L 257.26367 202.04102 L 256.82422 200.50195 L 257.26367 199.78125 L 256.5957 199.70117 L 222.67188 80.898438 L 222.7168 80.847656 L 223.89648 80.966797 L 223.02344 80.511719 L 223.88477 79.566406 L 222.54102 79.431641 L 222.7168 78.625 L 222.18945 79.205078 L 221.99805 78.535156 L 221.82031 79.359375 L 220.56836 79.234375 L 80.9375 6.4882812 L 80.910156 4.828125 z M 151.35352 182.38477 L 167.84961 239.38281 L 167.80664 239.44922 L 167.89453 239.53711 L 168.01758 239.96484 L 168.13477 239.78125 L 195.89062 267.85742 L 168.13477 295.93359 L 168.01758 295.75 L 167.89453 296.17773 L 167.80664 296.26562 L 167.84961 296.33203 L 151.35352 353.33008 L 126.02734 294.97852 L 126.125 294.80273 L 125.83984 294.54492 L 125.80273 294.45898 L 125.7832 294.49414 L 96.289062 267.85742 L 125.7832 241.2207 L 125.80273 241.25781 L 125.8418 241.16797 L 126.125 240.91211 L 126.02734 240.73828 L 151.35352 182.38477 z M 778.96094 493.11328 L 778.93359 494.77344 L 639.30664 567.51758 L 638.05273 567.64258 L 637.87305 566.82031 L 637.68164 567.48828 L 637.1543 566.9082 L 637.33008 567.71484 L 635.98633 567.84961 L 636.84961 568.79688 L 635.97461 569.25195 L 637.15625 569.13281 L 637.19922 569.18164 L 603.27539 687.98633 L 602.60742 688.06641 L 603.04688 688.78711 L 602.60742 690.32422 L 603.88867 690.16992 L 644.08008 756.14258 L 603.89062 822.11328 L 602.60742 821.95898 L 603.04688 823.49805 L 602.60742 824.21875 L 603.27539 824.29883 L 637.19922 943.10156 L 637.1543 943.15234 L 635.97461 943.0332 L 636.84766 943.48828 L 635.98633 944.43359 L 637.33008 944.56836 L 637.1543 945.375 L 637.68164 944.79492 L 637.87305 945.46484 L 638.05078 944.64062 L 639.30273 944.76562 L 778.93359 1017.5117 L 778.96094 1019.1719 L 780.01562 1018.0762 L 781.58789 1018.8945 L 781.54883 1016.4824 L 848.80078 946.60352 L 849.74414 947.10547 L 854.65625 870.88281 L 854.75195 870.88672 L 854.67773 870.53711 L 854.75195 869.40039 L 854.4375 869.38867 L 844.92578 824.11914 L 844.67773 824.28711 L 809.99219 756.14258 L 844.67773 687.99609 L 844.92578 688.16406 L 854.4375 642.89648 L 854.75195 642.88477 L 854.67773 641.74805 L 854.75195 641.39844 L 854.65625 641.40234 L 849.74414 565.17969 L 848.80078 565.68164 L 781.54883 495.80273 L 781.58789 493.39062 L 780.01562 494.20898 L 778.96094 493.11328 z M 708.51758 670.66992 L 733.84375 729.02148 L 733.74609 729.19531 L 734.0293 729.45117 L 734.06836 729.54102 L 734.08789 729.50391 L 763.58203 756.14258 L 734.08789 782.7793 L 734.06836 782.74219 L 734.0293 782.83203 L 733.74609 783.08789 L 733.84375 783.26172 L 708.51758 841.61328 L 692.02148 784.61719 L 692.06445 784.55078 L 691.97656 784.46289 L 691.85352 784.03516 L 691.73633 784.21875 L 663.98047 756.14258 L 691.73633 728.06641 L 691.85352 728.25 L 691.97656 727.82227 L 692.06445 727.73438 L 692.02148 727.66797 L 708.51758 670.66992 z "
     id="polygon16"
     inkscape:label="guard" />
  <path
     style="fill:#e9ddaf;fill-opacity:1;stroke:none;stroke-width:1.02499998"
     d="M 265.98438 218.04883 L 266.09766 218.0918 L 266.09766 294.57617 L 266.09766 369.19336 L 265.98438 369.23633 L 266.09766 369.23242 L 266.09766 369.23633 L 266.10742 369.23242 L 479.33008 362.3418 L 470.13867 293.64062 L 479.33008 224.94141 L 266.10742 218.05273 L 266.09766 218.04883 L 266.09766 218.05273 L 265.98438 218.04883 z M 265.98438 379.43164 L 266.09766 379.47461 L 266.09766 455.95703 L 266.09766 530.57422 L 265.98438 530.61719 L 266.09766 530.61328 L 266.09766 530.61719 L 266.10742 530.61328 L 479.33008 523.72461 L 470.13867 455.02539 L 479.33008 386.32422 L 266.10742 379.43555 L 266.09766 379.43164 L 266.09766 379.43555 L 265.98438 379.43164 z "
     id="polygon46"
     inkscape:label="grip" />
  <path
     style="fill:#ffaa00;fill-opacity:1;stroke:none;stroke-width:1.02499998"
     d="M 488.48438 218.71484 L 488.51758 219.04297 L 488.25195 218.82422 L 488.55469 219.38477 L 494.60156 277.50195 L 488.57617 315.50586 L 488.11523 315.47461 L 488.4043 315.60547 L 488.11523 315.76172 L 488.53125 315.78906 L 488.45703 316.26172 L 489.0957 315.91797 L 523.92969 331.66211 L 569.25 368.72266 L 569.53906 369.25781 L 569.50586 368.92969 L 569.77148 369.14844 L 569.46875 368.58789 L 563.40625 310.47656 L 569.41797 272.48047 L 569.87891 272.51172 L 569.58789 272.38086 L 569.87891 272.22461 L 569.46484 272.19727 L 569.53906 271.72461 L 568.90039 272.06836 L 534.08203 256.31641 L 488.77344 219.25 L 488.48438 218.71484 z M 515.92188 269.03516 L 549.40039 282.88086 L 542.53906 318.64453 L 542.49805 318.66992 L 542.30859 318.75195 L 542.32617 318.78516 L 542.10352 318.93359 L 508.625 305.08789 L 515.48633 269.32422 L 515.51758 269.30273 L 515.7168 269.21875 L 515.69727 269.18359 L 515.92188 269.03516 z M 488.48438 379.86719 L 488.51758 380.19531 L 488.25195 379.97656 L 488.55469 380.53711 L 494.60156 438.65625 L 488.57812 476.6582 L 488.11523 476.62695 L 488.4043 476.75781 L 488.11523 476.91406 L 488.53125 476.94141 L 488.45703 477.41406 L 489.0957 477.07031 L 523.92969 492.81445 L 569.25195 529.87695 L 569.53906 530.4082 L 569.50586 530.08203 L 569.77148 530.30078 L 569.46875 529.74023 L 563.40625 471.62891 L 569.41992 433.63281 L 569.87891 433.66406 L 569.5918 433.5332 L 569.87891 433.37891 L 569.46484 433.35156 L 569.53906 432.87891 L 568.90234 433.22266 L 534.08203 417.46875 L 488.77344 380.40234 L 488.48438 379.86719 z M 515.92188 430.1875 L 549.40234 444.0332 L 542.53906 479.79883 L 542.50781 479.82031 L 542.30859 479.9043 L 542.32812 479.93945 L 542.10352 480.08789 L 508.625 466.24219 L 515.48633 430.47656 L 515.52539 430.45117 L 515.7168 430.36914 L 515.69922 430.33594 L 515.92188 430.1875 z "
     id="polygon50"
     inkscape:label="gemSocket" />
  <path
     style="fill:#ff2a2a;fill-opacity:1;stroke:none;stroke-width:1.02499998"
     d="M 797.71289 384.40625 L 797.45312 384.67188 L 756.03125 385.84375 L 755.75781 385.57812 L 755.75781 385.85156 L 755.5 385.85938 L 755.75781 386.10938 L 755.74805 427.55859 L 755.48828 427.82617 L 755.74805 427.81836 L 755.74805 428.07812 L 756.00781 427.81055 L 797.43945 426.62891 L 797.71289 426.89453 L 797.71289 426.62109 L 797.9707 426.61328 L 797.71289 426.36328 L 797.71289 384.92383 L 797.9707 384.6582 L 797.71289 384.66602 L 797.71289 384.40625 z M 797.71289 439.10352 L 797.45312 439.36914 L 756.03125 440.53906 L 755.75781 440.27344 L 755.75781 440.54688 L 755.5 440.55469 L 755.75781 440.80469 L 755.74805 482.25391 L 755.48828 482.52148 L 755.74805 482.51367 L 755.74805 482.77148 L 756.00586 482.50586 L 797.43945 481.32617 L 797.71289 481.5918 L 797.71289 481.31836 L 797.9707 481.31055 L 797.71289 481.06055 L 797.71289 439.62109 L 797.9707 439.35547 L 797.71289 439.36328 L 797.71289 439.10352 z "
     id="polygon62"
     inkscape:label="gem" />
</svg>
