<?xml version="1.0" encoding="UTF-8" standalone="no"?>
<svg
   xmlns:dc="http://purl.org/dc/elements/1.1/"
   xmlns:cc="http://creativecommons.org/ns#"
   xmlns:rdf="http://www.w3.org/1999/02/22-rdf-syntax-ns#"
   xmlns:svg="http://www.w3.org/2000/svg"
   xmlns="http://www.w3.org/2000/svg"
   xmlns:sodipodi="http://sodipodi.sourceforge.net/DTD/sodipodi-0.dtd"
   xmlns:inkscape="http://www.inkscape.org/namespaces/inkscape"
   width="1024"
   height="1024"
   viewBox="0 0 1024 1024"
   version="1.1"
   id="svg1320"
   sodipodi:docname="ringGold.svg"
   inkscape:version="0.92.5 (2060ec1f9f, 2020-04-08)"
   inkscape:export-filename="/home/www/psde.equus.et/html/resources/images/textures/items/ringGold.png"
   inkscape:export-xdpi="96"
   inkscape:export-ydpi="96">
  <metadata
     id="metadata1326">
    <rdf:RDF>
      <cc:Work
         rdf:about="">
        <dc:format>image/svg+xml</dc:format>
        <dc:type
           rdf:resource="http://purl.org/dc/dcmitype/StillImage" />
      </cc:Work>
    </rdf:RDF>
  </metadata>
  <defs
     id="defs1324" />
  <sodipodi:namedview
     pagecolor="#ffffff"
     bordercolor="#666666"
     borderopacity="1"
     objecttolerance="10"
     gridtolerance="10"
     guidetolerance="10"
     inkscape:pageopacity="0"
     inkscape:pageshadow="2"
     inkscape:window-width="640"
     inkscape:window-height="480"
     id="namedview1322"
     showgrid="false"
     inkscape:current-layer="svg1320" />
  <desc
     id="desc2">rings01.blend, (Blender 2.82 (sub 7))</desc>
  <rect
     style="opacity:1;vector-effect:none;fill:#ffe248;fill-opacity:1;stroke:none;stroke-width:3.77952766;stroke-linecap:butt;stroke-linejoin:miter;stroke-miterlimit:4;stroke-dasharray:none;stroke-dashoffset:0;stroke-opacity:1;paint-order:normal"
     id="background"
     width="1024"
     height="1024"
     x="-1.5340621"
     y="-2.2875922" />
  <path
     d="M 556.59961 8.9746094 L 524.0293 46.658203 L 513.63281 127.46289 L 524.0293 208.26758 L 556.59961 245.95117 L 713.06641 245.95117 L 745.63672 208.26758 L 756.0332 127.46289 L 745.63672 46.658203 L 713.06641 8.9746094 L 556.59961 8.9746094 z M 562.6875 16.287109 L 706.97852 16.287109 L 738.42188 51.697266 L 748.81836 127.46289 L 738.42188 203.22852 L 706.97852 238.63867 L 562.6875 238.63867 L 531.24609 203.22852 L 520.84961 127.46289 L 531.24609 51.697266 L 562.6875 16.287109 z "
     id="smallSignetBorder"
     style="fill:#edc800;fill-opacity:1" />
  <path
     d="M 562.6875 16.287109 L 531.24609 51.697266 L 520.84961 127.46289 L 531.24609 203.22852 L 562.6875 238.63867 L 706.97852 238.63867 L 738.42188 203.22852 L 748.81836 127.46289 L 738.42188 51.697266 L 706.97852 16.287109 L 562.6875 16.287109 z "
     id="smallSignetFacet"
     style="fill:#212fff;fill-opacity:1" />
  <path
     d="M 766.11719 46.648438 L 766.11719 208.26758 L 1004.7344 208.26758 L 1004.7344 46.648438 L 766.11719 46.648438 z "
     id="simpleSignet"
     style="fill:#212fff;fill-opacity:1;stroke:none" />
  <path
     d="M 47.957031 8.9746094 L 15.388672 46.658203 L 4.9921875 127.46289 L 15.388672 208.26758 L 47.957031 245.95117 L 254.19141 245.95117 L 460.42578 245.95117 L 492.99609 208.26758 L 503.39258 127.46289 L 492.99609 46.658203 L 460.42578 8.9746094 L 254.19141 8.9746094 L 47.957031 8.9746094 z M 54.046875 16.287109 L 254.19141 16.287109 L 454.33789 16.287109 L 485.7793 51.697266 L 496.17773 127.46289 L 485.7793 203.22852 L 454.33789 238.63867 L 254.19141 238.63867 L 54.046875 238.63867 L 22.605469 203.22852 L 12.207031 127.46289 L 22.605469 51.697266 L 54.046875 16.287109 z "
     id="largeSignetBorder"
     style="fill:#edc800;fill-opacity:1" />
  <path
     d="M 54.046875 16.287109 L 22.605469 51.697266 L 12.207031 127.46289 L 22.605469 203.22852 L 54.046875 238.63867 L 254.19141 238.63867 L 454.33789 238.63867 L 485.7793 203.22852 L 496.17773 127.46289 L 485.7793 51.697266 L 454.33789 16.287109 L 254.19141 16.287109 L 54.046875 16.287109 z "
     id="largeSignetFacet"
     style="fill:#212fff;fill-opacity:1" />
  <polygon
     points="1004.044,301.737 801.672,262.468 1003.910,222.397 "
     id="spike"
     style="fill:#edc800;fill-opacity:1;stroke:#ffd700;stroke-opacity:1"
     stroke-width="1"
     stroke="black"
     fill-opacity="1"
     fill="rgb(204, 204, 204)" />
  <g
     id="wideFacetCenter"
     style="stroke:#0074f2;stroke-opacity:1">
    <polygon
       style="fill:#212fff;fill-opacity:1;stroke:#0074f2;stroke-width:1;stroke-opacity:1"
       id="polygon944"
       points="758.678,383.298 877.983,425.703 877.983,340.913 " />
    <polygon
       style="fill:#212fff;fill-opacity:1;stroke:#0074f2;stroke-width:1;stroke-opacity:1"
       id="polygon946"
       points="639.368,464.059 877.987,464.059 877.983,425.703 639.365,425.703 " />
    <polygon
       style="fill:#212fff;fill-opacity:1;stroke:#0074f2;stroke-width:1;stroke-opacity:1"
       id="polygon948"
       points="877.987,302.44 639.368,302.44 639.365,340.913 877.983,340.913 " />
    <polygon
       style="fill:#212fff;fill-opacity:1;stroke:#0074f2;stroke-width:1;stroke-opacity:1"
       id="polygon950"
       points="758.678,383.298 639.365,340.913 639.365,425.703 " />
    <polygon
       style="fill:#212fff;fill-opacity:1;stroke:#0074f2;stroke-width:1;stroke-opacity:1"
       id="polygon952"
       points="758.678,383.298 877.983,340.913 639.365,340.913 " />
    <polygon
       style="fill:#212fff;fill-opacity:1;stroke:#0074f2;stroke-width:1;stroke-opacity:1"
       id="polygon954"
       points="758.678,383.298 639.365,425.703 877.983,425.703 " />
  </g>
  <g
     id="wideFacetLeft"
     style="fill:#212fff;fill-opacity:1;stroke:#0074f2;stroke-opacity:1">
    <polygon
       style="fill:#212fff;fill-opacity:1;stroke:#0074f2;stroke-width:1;stroke-opacity:1"
       id="polygon972"
       points="890.042,340.913 999.776,332.108 902.563,302.43 " />
    <polygon
       style="fill:#212fff;fill-opacity:1;stroke:#0074f2;stroke-width:1;stroke-opacity:1"
       id="polygon974"
       points="890.042,425.703 902.563,464.049 999.775,434.488 " />
    <polygon
       style="fill:#212fff;fill-opacity:1;stroke:#0074f2;stroke-width:1;stroke-opacity:1"
       id="polygon980"
       points="999.776,332.108 890.042,340.913 890.042,425.703 999.775,434.488 " />
  </g>
  <g
     id="wideFacetRight"
     style="fill:#212fff;fill-opacity:1;stroke:#0074f2;stroke-opacity:1">
    <polygon
       style="fill:#212fff;fill-opacity:1;stroke:#0074f2;stroke-width:1;stroke-opacity:1"
       id="polygon976"
       points="619.122,340.913 606.6,302.43 509.388,332.108 " />
    <polygon
       style="fill:#212fff;fill-opacity:1;stroke:#0074f2;stroke-width:1;stroke-opacity:1"
       id="polygon978"
       points="509.388,434.489 606.6,464.049 619.122,425.703 " />
    <polygon
       style="fill:#212fff;fill-opacity:1;stroke:#0074f2;stroke-width:1;stroke-opacity:1"
       id="polygon982"
       points="509.388,434.489 619.122,425.703 619.122,340.913 509.388,332.108 " />
  </g>
  <g
     id="sixFacet"
     style="fill:#212fff;fill-opacity:1;stroke:#0074f2;stroke-opacity:1">
    <polygon
       style="fill:#212fff;fill-opacity:1;stroke:#0074f2;stroke-width:1;stroke-opacity:1"
       id="polygon458"
       points="64.546,425.687 64.546,340.897 11.671,302.424 11.671,464.043 " />
    <polygon
       style="fill:#212fff;fill-opacity:1;stroke:#0074f2;stroke-width:1;stroke-opacity:1"
       id="polygon460"
       points="130.981,383.292 190.053,340.897 130.981,316.467 " />
    <polygon
       style="fill:#212fff;fill-opacity:1;stroke:#0074f2;stroke-width:1;stroke-opacity:1"
       id="polygon462"
       points="190.053,425.687 130.981,450.117 130.981,510.36 250.29,464.043 " />
    <polygon
       style="fill:#212fff;fill-opacity:1;stroke:#0074f2;stroke-width:1;stroke-opacity:1"
       id="polygon464"
       points="64.546,340.897 130.981,316.467 130.981,256.224 11.671,302.424 " />
    <polygon
       style="fill:#212fff;fill-opacity:1;stroke:#0074f2;stroke-width:1;stroke-opacity:1"
       id="polygon466"
       points="190.053,340.897 190.053,425.687 250.29,464.043 250.29,302.424 " />
    <polygon
       style="fill:#212fff;fill-opacity:1;stroke:#0074f2;stroke-width:1;stroke-opacity:1"
       id="polygon468"
       points="130.981,316.467 190.053,340.897 250.29,302.424 130.981,256.224 " />
    <polygon
       style="fill:#212fff;fill-opacity:1;stroke:#0074f2;stroke-width:1;stroke-opacity:1"
       id="polygon470"
       points="130.981,450.117 64.546,425.687 11.671,464.043 130.981,510.36 " />
    <polygon
       style="fill:#212fff;fill-opacity:1;stroke:#0074f2;stroke-width:1;stroke-opacity:1"
       id="polygon472"
       points="64.546,425.687 130.981,450.117 130.981,383.292 " />
    <polygon
       style="fill:#212fff;fill-opacity:1;stroke:#0074f2;stroke-width:1;stroke-opacity:1"
       id="polygon482"
       points="190.053,425.687 190.053,340.897 130.981,383.292 " />
    <polygon
       style="fill:#212fff;fill-opacity:1;stroke:#0074f2;stroke-width:1;stroke-opacity:1"
       id="polygon484"
       points="64.546,340.897 64.546,425.687 130.981,383.292 " />
    <polygon
       style="fill:#212fff;fill-opacity:1;stroke:#0074f2;stroke-width:1;stroke-opacity:1"
       id="polygon486"
       points="130.981,316.467 64.546,340.897 130.981,383.292 " />
    <polygon
       style="fill:#212fff;fill-opacity:1;stroke:#0074f2;stroke-width:1;stroke-opacity:1"
       id="polygon488"
       points="130.981,450.117 190.053,425.687 130.981,383.292 " />
    <polygon
       style="fill:#212fff;fill-opacity:1;stroke:#0074f2;stroke-width:1;stroke-opacity:1"
       id="polygon1212"
       points="64.546,425.687 64.546,340.897 11.671,302.424 11.671,464.043 " />
    <polygon
       style="fill:#212fff;fill-opacity:1;stroke:#0074f2;stroke-width:1;stroke-opacity:1"
       id="polygon1214"
       points="190.053,425.687 130.981,450.117 130.981,510.36 250.29,464.043 " />
    <polygon
       style="fill:#212fff;fill-opacity:1;stroke:#0074f2;stroke-width:1;stroke-opacity:1"
       id="polygon1216"
       points="64.546,340.897 130.981,316.467 130.981,256.224 11.671,302.424 " />
    <polygon
       style="fill:#212fff;fill-opacity:1;stroke:#0074f2;stroke-width:1;stroke-opacity:1"
       id="polygon1218"
       points="190.053,340.897 190.053,425.687 250.29,464.043 250.29,302.424 " />
    <polygon
       style="fill:#212fff;fill-opacity:1;stroke:#0074f2;stroke-width:1;stroke-opacity:1"
       id="polygon1220"
       points="130.981,316.467 190.053,340.897 250.29,302.424 130.981,256.224 " />
    <polygon
       style="fill:#212fff;fill-opacity:1;stroke:#0074f2;stroke-width:1;stroke-opacity:1"
       id="polygon1222"
       points="130.981,450.117 64.546,425.687 11.671,464.043 130.981,510.36 " />
    <polygon
       style="fill:#212fff;fill-opacity:1;stroke:#0074f2;stroke-width:1;stroke-opacity:1"
       id="polygon1224"
       points="130.981,450.117 190.053,425.687 190.053,340.897 130.981,316.467 64.546,340.897 64.546,425.687 " />
    <polygon
       style="fill:#212fff;fill-opacity:1;stroke:#0074f2;stroke-width:1;stroke-opacity:1"
       id="polygon1226"
       points="130.981,256.224 250.29,302.424 130.98,383.292 " />
    <polygon
       style="fill:#212fff;fill-opacity:1;stroke:#0074f2;stroke-width:1;stroke-opacity:1"
       id="polygon1228"
       points="11.671,464.043 11.671,302.424 130.98,383.292 " />
    <polygon
       style="fill:#212fff;fill-opacity:1;stroke:#0074f2;stroke-width:1;stroke-opacity:1"
       id="polygon1230"
       points="130.981,510.36 11.671,464.043 130.98,383.292 " />
    <polygon
       style="fill:#212fff;fill-opacity:1;stroke:#0074f2;stroke-width:1;stroke-opacity:1"
       id="polygon1232"
       points="250.29,302.424 250.29,464.043 130.98,383.292 " />
    <polygon
       style="fill:#212fff;fill-opacity:1;stroke:#0074f2;stroke-width:1;stroke-opacity:1"
       id="polygon1234"
       points="250.29,464.043 130.981,510.36 130.98,383.292 " />
    <polygon
       style="fill:#212fff;fill-opacity:1;stroke:#0074f2;stroke-width:1;stroke-opacity:1"
       id="polygon1236"
       points="11.671,302.424 130.981,256.224 130.98,383.292 " />
  </g>
  <g
     id="fourFacet"
     style="fill:#212fff;fill-opacity:1;stroke:#0074f2;stroke-opacity:1">
    <polygon
       style="fill:#212fff;fill-opacity:1;stroke:#0074f2;stroke-width:1;stroke-opacity:1"
       id="polygon1302"
       points="260.53,302.424 260.53,464.043 313.404,425.687 313.404,340.897 " />
    <polygon
       style="fill:#212fff;fill-opacity:1;stroke:#0074f2;stroke-width:1;stroke-opacity:1"
       id="polygon1304"
       points="260.53,464.043 499.148,464.043 438.912,425.687 313.404,425.687 " />
    <polygon
       style="fill:#212fff;fill-opacity:1;stroke:#0074f2;stroke-width:1;stroke-opacity:1"
       id="polygon1306"
       points="499.148,302.424 260.53,302.424 313.404,340.897 438.912,340.897 " />
    <polygon
       style="fill:#212fff;fill-opacity:1;stroke:#0074f2;stroke-width:1;stroke-opacity:1"
       id="polygon1308"
       points="499.148,464.043 499.148,302.424 438.912,340.897 438.912,425.687 " />
    <polygon
       style="fill:#212fff;fill-opacity:1;stroke:#0074f2;stroke-width:1;stroke-opacity:1"
       id="polygon1310"
       points="313.404,425.687 438.912,425.687 438.912,340.897 313.404,340.897 " />
  </g>
  <path
     style="fill:#edc800;fill-opacity:1;stroke:none;stroke-width:1;stroke-opacity:1"
     d="M 0 829.75977 L 0 889.75977 L 0 949.75977 L 120 949.75977 L 240 973.75977 C 282.66667 987.0931 325.33333 1000.4265 368 1013.7598 L 536 1013.7598 C 578.66667 1000.4265 621.33333 987.0931 664 973.75977 L 784 949.75977 L 904 949.75977 L 1024 949.75977 L 1024 889.75977 L 1024 829.75977 L 904 829.75977 L 784 829.75977 L 664 853.75977 C 621.33333 867.0931 578.66667 880.42644 536 893.75977 L 368 893.75977 C 325.33333 880.42644 282.66667 867.0931 240 853.75977 L 120 829.75977 L 0 829.75977 z "
     id="bottomBand" />
  <path
     style="opacity:1;vector-effect:none;fill:#edc800;fill-opacity:1;stroke:none;stroke-width:3.77952766;stroke-linecap:butt;stroke-linejoin:miter;stroke-miterlimit:4;stroke-dasharray:none;stroke-dashoffset:0;stroke-opacity:1;paint-order:normal"
     d="m 368,645.75977 -128,40 -120,24 H 0 v 60 60 h 120 l 120,-24 128,-40 h 168 l 128,40 120,24 h 120 120 v -60 -60 H 904 784 l -120,-24 -128,-40 z"
     id="topBand"
     inkscape:connector-curvature="0"
     sodipodi:nodetypes="ccccccccccccccccccccc" />
  <path
     style="fill:#edc800;fill-opacity:1;stroke:#ffd700;stroke-width:1.46059346;stroke-opacity:1"
     d="M 368 765.75977 L 240 805.75977 L 120 829.75977 L 240 853.75977 L 368 893.75977 L 536 893.75977 L 664 853.75977 L 784 829.75977 L 664 805.75977 L 536 765.75977 L 368 765.75977 z "
     id="fillBand" />
  <g
     id="skullFacetHoles"
     style="stroke:none">
    <path
       id="polygon1126"
       d="m 858.94922,565.97461 0.61914,51.76953 23.92578,-0.42578 15.05469,-42.15039 z"
       style="fill:#000000;fill-opacity:1;stroke:none"
       inkscape:connector-curvature="0"
       inkscape:label="#rightEye" />
    <path
       id="leftEye"
       d="m 981.17969,565.97461 -39.59766,9.19336 15.05469,42.15039 23.92578,0.42578 z"
       style="fill:#000000;fill-opacity:1;stroke:none"
       inkscape:connector-curvature="0"
       inkscape:label="#leftEye" />
    <path
       sodipodi:nodetypes="cccc"
       id="nose"
       d="m 920.06445,624.0332 -10.08984,14.78125 h 20.17969 z"
       style="fill:#000000;fill-opacity:1;stroke:none"
       inkscape:connector-curvature="0"
       inkscape:label="#nose" />
  </g>
  <path
     d="M 920.06445 483.00586 L 835.17383 504.81055 L 824.59766 611.50586 L 869.60742 688.9707 L 920.06445 658.76172 L 970.52344 688.9707 L 1015.5332 611.50586 L 1004.9551 504.81055 L 920.06445 483.00586 z M 858.94922 565.97461 L 898.54883 575.16797 L 883.49414 617.31836 L 859.56836 617.74414 L 858.94922 565.97461 z M 981.17969 565.97461 L 980.5625 617.74414 L 956.63672 617.31836 L 941.58203 575.16797 L 981.17969 565.97461 z M 920.06445 624.0332 L 930.1543 638.81445 L 909.97461 638.81445 L 920.06445 624.0332 z "
     id="skullFacet"
     style="fill:#c6c6c6;fill-opacity:1;stroke:#d1d1d1;stroke-opacity:1" />
</svg>
