<?xml version="1.0" encoding="UTF-8" standalone="no"?>
<svg
   xmlns:dc="http://purl.org/dc/elements/1.1/"
   xmlns:cc="http://creativecommons.org/ns#"
   xmlns:rdf="http://www.w3.org/1999/02/22-rdf-syntax-ns#"
   xmlns:svg="http://www.w3.org/2000/svg"
   xmlns="http://www.w3.org/2000/svg"
   xmlns:sodipodi="http://sodipodi.sourceforge.net/DTD/sodipodi-0.dtd"
   xmlns:inkscape="http://www.inkscape.org/namespaces/inkscape"
   width="1024"
   height="1024"
   viewBox="0 0 1024 1024"
   version="1.1"
   id="svg78"
   sodipodi:docname="ring02BrokenRuby.svg"
   inkscape:version="0.92.3 (2405546, 2018-03-11)">
  <metadata
     id="metadata84">
    <rdf:RDF>
      <cc:Work
         rdf:about="">
        <dc:format>image/svg+xml</dc:format>
        <dc:type
           rdf:resource="http://purl.org/dc/dcmitype/StillImage" />
        <dc:title></dc:title>
      </cc:Work>
    </rdf:RDF>
  </metadata>
  <defs
     id="defs82">
    <filter
       inkscape:label="Riddled"
       inkscape:menu="Textures"
       inkscape:menu-tooltip="Riddle the surface and add bump to images"
       height="1.3"
       y="-0.15"
       width="1.3"
       x="-0.15"
       style="color-interpolation-filters:sRGB;"
       id="filter4664">
      <feGaussianBlur
         stdDeviation="0.5"
         in="SourceGraphic"
         result="result1"
         id="feGaussianBlur4634" />
      <feTurbulence
         type="fractalNoise"
         baseFrequency="0.04"
         numOctaves="10"
         result="result0"
         id="feTurbulence4636" />
      <feGaussianBlur
         result="result8"
         stdDeviation="1"
         id="feGaussianBlur4638" />
      <feDisplacementMap
         in2="result0"
         in="result1"
         xChannelSelector="R"
         yChannelSelector="B"
         scale="20"
         result="result2"
         id="feDisplacementMap4640" />
      <feComposite
         result="result7"
         operator="in"
         in="result2"
         in2="result8"
         id="feComposite4642" />
      <feComposite
         in2="result7"
         result="fbSourceGraphic"
         k2="0.15"
         in="result2"
         k1="2"
         operator="arithmetic"
         id="feComposite4644" />
      <feColorMatrix
         values="1 0 0 -1 0 1 0 1 -1 0 1 0 0 -1 0 -0.8 -1 0 3.7 -2.6 "
         in="fbSourceGraphic"
         result="fbSourceGraphicAlpha"
         type="matrix"
         id="feColorMatrix4646" />
      <feGaussianBlur
         stdDeviation="0.5"
         result="result9"
         id="feGaussianBlur4648" />
      <feSpecularLighting
         surfaceScale="10"
         specularExponent="3"
         result="result11"
         specularConstant="0.7"
         id="feSpecularLighting4652">
        <feDistantLight
           azimuth="235"
           elevation="55"
           id="feDistantLight4650" />
      </feSpecularLighting>
      <feDiffuseLighting
         in="result9"
         lighting-color="rgb(255,255,255)"
         result="result6"
         diffuseConstant="0.4"
         surfaceScale="50"
         id="feDiffuseLighting4656">
        <feDistantLight
           elevation="10"
           azimuth="235"
           id="feDistantLight4654" />
      </feDiffuseLighting>
      <feBlend
         result="result10"
         mode="screen"
         in2="result11"
         id="feBlend4658" />
      <feComposite
         in2="fbSourceGraphic"
         in="result10"
         result="result2"
         operator="in"
         id="feComposite4660" />
      <feComposite
         k3="0.9"
         k2="1"
         operator="arithmetic"
         in2="fbSourceGraphic"
         id="feComposite4662" />
    </filter>
  </defs>
  <sodipodi:namedview
     pagecolor="#ffffff"
     bordercolor="#666666"
     borderopacity="1"
     objecttolerance="10"
     gridtolerance="10"
     guidetolerance="10"
     inkscape:pageopacity="0"
     inkscape:pageshadow="2"
     inkscape:window-width="1920"
     inkscape:window-height="1056"
     id="namedview80"
     showgrid="false"
     inkscape:zoom="0.60750891"
     inkscape:cx="449.54809"
     inkscape:cy="562.88933"
     inkscape:window-x="0"
     inkscape:window-y="24"
     inkscape:window-maximized="1"
     inkscape:current-layer="svg78" />
  <desc
     id="desc2">'items.blend', ring02, (Blender 2.79 (sub 0))</desc>
  <rect
     style="opacity:1;vector-effect:none;fill:#edc800;fill-opacity:1;stroke:#edc800;stroke-width:1.04010963px;stroke-linecap:butt;stroke-linejoin:miter;stroke-miterlimit:4;stroke-dasharray:none;stroke-dashoffset:0;stroke-opacity:1"
     id="rect4838"
     width="1022.96"
     height="1022.9599"
     x="0.52005482"
     y="0.52004772" />
  <g
     id="g3821"
     style="fill:#edc800;fill-opacity:1;stroke:#edc800;stroke-opacity:1">
    <polygon
       style="fill:#edc800;fill-opacity:1;stroke:#edc800;stroke-width:1;stroke-opacity:1"
       id="polygon4"
       points="1024,900 1024,840 904,840 904,900 " />
    <polygon
       style="fill:#edc800;fill-opacity:1;stroke:#edc800;stroke-width:1;stroke-opacity:1"
       id="polygon6"
       points="1024,960 1024,900 904,900 904,960 " />
    <polygon
       style="fill:#edc800;fill-opacity:1;stroke:#edc800;stroke-width:1;stroke-opacity:1"
       id="polygon8"
       points="1024,780 1024,720 904,720 904,780 " />
    <polygon
       style="fill:#edc800;fill-opacity:1;stroke:#edc800;stroke-width:1;stroke-opacity:1"
       id="polygon10"
       points="1024,840 1024,780 904,780 904,840 " />
    <polygon
       style="fill:#edc800;fill-opacity:1;stroke:#edc800;stroke-width:1;stroke-opacity:1"
       id="polygon12"
       points="904,900 904,840 784,840 784,900 " />
    <polygon
       style="fill:#edc800;fill-opacity:1;stroke:#edc800;stroke-width:1;stroke-opacity:1"
       id="polygon14"
       points="904,960 904,900 784,900 784,960 " />
    <polygon
       style="fill:#edc800;fill-opacity:1;stroke:#edc800;stroke-width:1;stroke-opacity:1"
       id="polygon16"
       points="904,780 904,720 784,720 784,780 " />
    <polygon
       style="fill:#edc800;fill-opacity:1;stroke:#edc800;stroke-width:1;stroke-opacity:1"
       id="polygon18"
       points="904,840 904,780 784,780 784,840 " />
    <polygon
       style="fill:#edc800;fill-opacity:1;stroke:#edc800;stroke-width:1;stroke-opacity:1"
       id="polygon20"
       points="784,900 784,840 664,864 664,924 " />
    <polygon
       style="fill:#edc800;fill-opacity:1;stroke:#edc800;stroke-width:1;stroke-opacity:1"
       id="polygon22"
       points="784,960 784,900 664,924 664,984 " />
    <polygon
       style="fill:#edc800;fill-opacity:1;stroke:#edc800;stroke-width:1;stroke-opacity:1"
       id="polygon24"
       points="784,780 784,720 664,696 664,756 " />
    <polygon
       style="fill:#edc800;fill-opacity:1;stroke:#edc800;stroke-width:1;stroke-opacity:1"
       id="polygon26"
       points="784,840 784,780 664,756 664,816 " />
    <polygon
       style="fill:#edc800;fill-opacity:1;stroke:#edc800;stroke-width:1;stroke-opacity:1"
       id="polygon28"
       points="664,924 664,864 536,904 536,964 " />
    <polygon
       style="fill:#edc800;fill-opacity:1;stroke:#edc800;stroke-width:1;stroke-opacity:1"
       id="polygon30"
       points="664,984 664,924 536,964 536,1024 " />
    <polygon
       style="fill:#edc800;fill-opacity:1;stroke:#edc800;stroke-width:1;stroke-opacity:1"
       id="polygon32"
       points="664,756 664,696 536,656 536,716 " />
    <polygon
       style="fill:#edc800;fill-opacity:1;stroke:#edc800;stroke-width:1;stroke-opacity:1"
       id="polygon34"
       points="664,816 664,756 536,716 536,776 " />
    <polygon
       style="fill:#edc800;fill-opacity:1;stroke:#edc800;stroke-width:1;stroke-opacity:1"
       id="polygon36"
       points="536,964 536,904 368,904 368,964 " />
    <polygon
       style="fill:#edc800;fill-opacity:1;stroke:#edc800;stroke-width:1;stroke-opacity:1"
       id="polygon38"
       points="536,1024 536,964 368,964 368,1024 " />
    <polygon
       style="fill:#edc800;fill-opacity:1;stroke:#edc800;stroke-width:1;stroke-opacity:1"
       id="polygon40"
       points="536,716 536,656 368,656 368,716 " />
    <polygon
       style="fill:#edc800;fill-opacity:1;stroke:#edc800;stroke-width:1;stroke-opacity:1"
       id="polygon42"
       points="536,776 536,716 368,716 368,776 " />
    <polygon
       style="fill:#edc800;fill-opacity:1;stroke:#edc800;stroke-width:1;stroke-opacity:1"
       id="polygon44"
       points="368,964 368,904 240,864 240,924 " />
    <polygon
       style="fill:#edc800;fill-opacity:1;stroke:#edc800;stroke-width:1;stroke-opacity:1"
       id="polygon46"
       points="368,1024 368,964 240,924 240,984 " />
    <polygon
       style="fill:#edc800;fill-opacity:1;stroke:#edc800;stroke-width:1;stroke-opacity:1"
       id="polygon48"
       points="368,716 368,656 240,696 240,756 " />
    <polygon
       style="fill:#edc800;fill-opacity:1;stroke:#edc800;stroke-width:1;stroke-opacity:1"
       id="polygon50"
       points="368,776 368,716 240,756 240,816 " />
    <polygon
       style="fill:#edc800;fill-opacity:1;stroke:#edc800;stroke-width:1;stroke-opacity:1"
       id="polygon52"
       points="240,924 240,864 120,840 120,900 " />
    <polygon
       style="fill:#edc800;fill-opacity:1;stroke:#edc800;stroke-width:1;stroke-opacity:1"
       id="polygon54"
       points="240,984 240,924 120,900 120,960 " />
    <polygon
       style="fill:#edc800;fill-opacity:1;stroke:#edc800;stroke-width:1;stroke-opacity:1"
       id="polygon56"
       points="240,756 240,696 120,720 120,780 " />
    <polygon
       style="fill:#edc800;fill-opacity:1;stroke:#edc800;stroke-width:1;stroke-opacity:1"
       id="polygon58"
       points="240,816 240,756 120,780 120,840 " />
    <polygon
       style="fill:#edc800;fill-opacity:1;stroke:#edc800;stroke-width:1;stroke-opacity:1"
       id="polygon60"
       points="120,900 120,840 0,840 0,900 " />
    <polygon
       style="fill:#edc800;fill-opacity:1;stroke:#edc800;stroke-width:1;stroke-opacity:1"
       id="polygon62"
       points="120,960 120,900 0,900 0,960 " />
    <polygon
       style="fill:#edc800;fill-opacity:1;stroke:#edc800;stroke-width:1;stroke-opacity:1"
       id="polygon64"
       points="120,780 120,720 0,720 0,780 " />
    <polygon
       style="fill:#edc800;fill-opacity:1;stroke:#edc800;stroke-width:1;stroke-opacity:1"
       id="polygon66"
       points="120,840 120,780 0,780 0,840 " />
  </g>
  <g
     id="g3827"
     style="fill:#edc800;fill-opacity:1;stroke:#edc800;stroke-opacity:1">
    <polygon
       id="polygon68"
       points="240,816 120,840 240,864 "
       style="fill:#edc800;fill-opacity:1;stroke:#edc800;stroke-width:1;stroke-opacity:1" />
    <polygon
       id="polygon70"
       points="240,864 368,904 368,776 240,816 "
       style="fill:#edc800;fill-opacity:1;stroke:#edc800;stroke-width:1;stroke-opacity:1" />
    <polygon
       style="fill:#edc800;fill-opacity:1;stroke:#edc800;stroke-width:1;stroke-opacity:1"
       id="polygon72"
       points="664,864 784,840 664,816 " />
    <polygon
       style="fill:#edc800;fill-opacity:1;stroke:#edc800;stroke-width:1;stroke-opacity:1"
       id="polygon74"
       points="664,864 664,816 536,776 536,904 " />
  </g>
  <polygon
     points="536,904 536,776 368,776 368,904 "
     id="polygon76"
     style="fill:#aa0000;fill-opacity:1;stroke:none;stroke-width:1;filter:url(#filter4664)" />
</svg>
