<?xml version="1.0" encoding="UTF-8" standalone="no"?>
<svg
   xmlns:dc="http://purl.org/dc/elements/1.1/"
   xmlns:cc="http://creativecommons.org/ns#"
   xmlns:rdf="http://www.w3.org/1999/02/22-rdf-syntax-ns#"
   xmlns:svg="http://www.w3.org/2000/svg"
   xmlns="http://www.w3.org/2000/svg"
   xmlns:sodipodi="http://sodipodi.sourceforge.net/DTD/sodipodi-0.dtd"
   xmlns:inkscape="http://www.inkscape.org/namespaces/inkscape"
   width="1024"
   height="1024"
   viewBox="0 0 1024 1024"
   version="1.1"
   id="svg244"
   sodipodi:docname="vChocoateV.svg"
   inkscape:version="0.92.3 (2405546, 2018-03-11)">
  <metadata
     id="metadata250">
    <rdf:RDF>
      <cc:Work
         rdf:about="">
        <dc:format>image/svg+xml</dc:format>
        <dc:type
           rdf:resource="http://purl.org/dc/dcmitype/StillImage" />
      </cc:Work>
    </rdf:RDF>
  </metadata>
  <defs
     id="defs248" />
  <sodipodi:namedview
     pagecolor="#ffffff"
     bordercolor="#666666"
     borderopacity="1"
     objecttolerance="10"
     gridtolerance="10"
     guidetolerance="10"
     inkscape:pageopacity="0"
     inkscape:pageshadow="2"
     inkscape:window-width="1920"
     inkscape:window-height="1056"
     id="namedview246"
     showgrid="false"
     inkscape:zoom="0.97601067"
     inkscape:cx="572.96746"
     inkscape:cy="234.69988"
     inkscape:window-x="0"
     inkscape:window-y="24"
     inkscape:window-maximized="1"
     inkscape:current-layer="svg244" />
  <desc
     id="desc2">'items.blend', mountainChocolateBar01, (Blender 2.79 (sub 0))</desc>
  <polygon
     stroke="black"
     stroke-width="1"
     fill="grey"
     fill-opacity="0.25"
     points="84.000,908.000 56.000,792.000 36.000,792.000 8.000,908.000 "
     id="polygon4"
     style="fill:#6e3710;fill-opacity:1;stroke:#6e3710;stroke-opacity:1" />
  <polygon
     stroke="black"
     stroke-width="1"
     fill="grey"
     fill-opacity="0.25"
     points="100.000,892.000 84.000,892.000 56.000,776.000 128.000,776.000 "
     id="polygon6"
     style="fill:#6e3710;fill-opacity:1;stroke:#6e3710;stroke-opacity:1" />
  <polygon
     stroke="black"
     stroke-width="1"
     fill="grey"
     fill-opacity="0.25"
     points="1004.000,908.000 976.000,792.000 956.000,792.000 928.000,908.000 "
     id="polygon8"
     style="fill:#6e3710;fill-opacity:1;stroke:#6e3710;stroke-opacity:1" />
  <polygon
     stroke="black"
     stroke-width="1"
     fill="grey"
     fill-opacity="0.25"
     points="268.000,908.000 240.000,792.000 220.000,792.000 192.000,908.000 "
     id="polygon10"
     style="fill:#6e3710;fill-opacity:1;stroke:#6e3710;stroke-opacity:1" />
  <polygon
     stroke="black"
     stroke-width="1"
     fill="grey"
     fill-opacity="0.25"
     points="56.000,776.000 84.000,892.000 100.000,892.000 128.000,776.000 "
     id="polygon12"
     style="fill:#6e3710;fill-opacity:1;stroke:#6e3710;stroke-opacity:1" />
  <polygon
     stroke="black"
     stroke-width="1"
     fill="grey"
     fill-opacity="0.25"
     points="636.000,908.000 608.000,792.000 588.000,792.000 560.000,908.000 "
     id="polygon14"
     style="fill:#6e3710;fill-opacity:1;stroke:#6e3710;stroke-opacity:1" />
  <polygon
     stroke="black"
     stroke-width="1"
     fill="grey"
     fill-opacity="0.25"
     points="192.001,868.000 192.001,776.000 176.001,776.000 176.001,868.000 "
     id="polygon16"
     style="fill:#6e3710;fill-opacity:1;stroke:#6e3710;stroke-opacity:1" />
  <polygon
     stroke="black"
     stroke-width="1"
     fill="grey"
     fill-opacity="0.25"
     points="452.000,908.000 424.000,792.000 404.000,792.000 376.000,908.000 "
     id="polygon18"
     style="fill:#6e3710;fill-opacity:1;stroke:#6e3710;stroke-opacity:1" />
  <polygon
     stroke="black"
     stroke-width="1"
     fill="grey"
     fill-opacity="0.25"
     points="176.000,908.000 148.000,792.000 128.000,792.000 100.000,908.000 "
     id="polygon20"
     style="fill:#6e3710;fill-opacity:1;stroke:#6e3710;stroke-opacity:1" />
  <polygon
     stroke="black"
     stroke-width="1"
     fill="grey"
     fill-opacity="0.25"
     points="100.000,892.000 84.000,892.000 56.000,776.000 128.000,776.000 "
     id="polygon22"
     style="fill:#6e3710;fill-opacity:1;stroke:#6e3710;stroke-opacity:1" />
  <polygon
     stroke="black"
     stroke-width="1"
     fill="grey"
     fill-opacity="0.25"
     points="912.000,908.000 884.000,792.000 864.000,792.000 836.000,908.000 "
     id="polygon24"
     style="fill:#6e3710;fill-opacity:1;stroke:#6e3710;stroke-opacity:1" />
  <polygon
     stroke="black"
     stroke-width="1"
     fill="grey"
     fill-opacity="0.25"
     points="56.000,776.000 84.000,892.000 100.000,892.000 128.000,776.000 "
     id="polygon26"
     style="fill:#6e3710;fill-opacity:1;stroke:#6e3710;stroke-opacity:1" />
  <polygon
     stroke="black"
     stroke-width="1"
     fill="grey"
     fill-opacity="0.25"
     points="56.000,776.000 84.000,892.000 100.000,892.000 128.000,776.000 "
     id="polygon28"
     style="fill:#6e3710;fill-opacity:1;stroke:#6e3710;stroke-opacity:1" />
  <polygon
     stroke="black"
     stroke-width="1"
     fill="grey"
     fill-opacity="0.25"
     points="820.000,908.000 792.000,792.000 772.000,792.000 744.001,908.000 "
     id="polygon30"
     style="fill:#6e3710;fill-opacity:1;stroke:#6e3710;stroke-opacity:1" />
  <polygon
     stroke="black"
     stroke-width="1"
     fill="grey"
     fill-opacity="0.25"
     points="192.001,868.000 192.001,776.000 176.001,776.000 176.001,868.000 "
     id="polygon32"
     style="fill:#6e3710;fill-opacity:1;stroke:#6e3710;stroke-opacity:1" />
  <polygon
     stroke="black"
     stroke-width="1"
     fill="grey"
     fill-opacity="0.25"
     points="56.000,776.000 84.000,892.000 100.000,892.000 128.000,776.000 "
     id="polygon34"
     style="fill:#6e3710;fill-opacity:1;stroke:#6e3710;stroke-opacity:1" />
  <polygon
     stroke="black"
     stroke-width="1"
     fill="grey"
     fill-opacity="0.25"
     points="636.000,908.000 608.000,792.000 588.000,792.000 560.000,908.000 "
     id="polygon36"
     style="fill:#6e3710;fill-opacity:1;stroke:#6e3710;stroke-opacity:1" />
  <polygon
     stroke="black"
     stroke-width="1"
     fill="grey"
     fill-opacity="0.25"
     points="192.001,868.000 192.001,776.000 176.001,776.000 176.001,868.000 "
     id="polygon38"
     style="fill:#6e3710;fill-opacity:1;stroke:#6e3710;stroke-opacity:1" />
  <polygon
     stroke="black"
     stroke-width="1"
     fill="grey"
     fill-opacity="0.25"
     points="100.000,892.000 84.000,892.000 56.000,776.000 128.000,776.000 "
     id="polygon40"
     style="fill:#6e3710;fill-opacity:1;stroke:#6e3710;stroke-opacity:1" />
  <polygon
     stroke="black"
     stroke-width="1"
     fill="grey"
     fill-opacity="0.25"
     points="360.000,908.000 331.999,792.000 312.000,792.000 284.000,908.000 "
     id="polygon42"
     style="fill:#6e3710;fill-opacity:1;stroke:#6e3710;stroke-opacity:1" />
  <polygon
     stroke="black"
     stroke-width="1"
     fill="grey"
     fill-opacity="0.25"
     points="100.000,892.000 84.000,892.000 56.000,776.000 128.000,776.000 "
     id="polygon44"
     style="fill:#6e3710;fill-opacity:1;stroke:#6e3710;stroke-opacity:1" />
  <polygon
     stroke="black"
     stroke-width="1"
     fill="grey"
     fill-opacity="0.25"
     points="728.000,908.000 700.001,792.000 680.001,792.000 652.000,908.000 "
     id="polygon46"
     style="fill:#6e3710;fill-opacity:1;stroke:#6e3710;stroke-opacity:1" />
  <polygon
     stroke="black"
     stroke-width="1"
     fill="grey"
     fill-opacity="0.25"
     points="56.000,776.000 84.000,892.000 100.000,892.000 128.000,776.000 "
     id="polygon48"
     style="fill:#6e3710;fill-opacity:1;stroke:#6e3710;stroke-opacity:1" />
  <polygon
     stroke="black"
     stroke-width="1"
     fill="grey"
     fill-opacity="0.25"
     points="192.001,868.000 192.001,776.000 176.001,776.000 176.001,868.000 "
     id="polygon50"
     style="fill:#6e3710;fill-opacity:1;stroke:#6e3710;stroke-opacity:1" />
  <polygon
     stroke="black"
     stroke-width="1"
     fill="grey"
     fill-opacity="0.25"
     points="100.000,892.000 84.000,892.000 56.000,776.000 128.000,776.000 "
     id="polygon52"
     style="fill:#6e3710;fill-opacity:1;stroke:#6e3710;stroke-opacity:1" />
  <polygon
     stroke="black"
     stroke-width="1"
     fill="grey"
     fill-opacity="0.25"
     points="192.001,868.000 192.001,776.000 176.001,776.000 176.001,868.000 "
     id="polygon54"
     style="fill:#6e3710;fill-opacity:1;stroke:#6e3710;stroke-opacity:1" />
  <polygon
     stroke="black"
     stroke-width="1"
     fill="grey"
     fill-opacity="0.25"
     points="544.000,908.000 516.000,792.000 496.000,792.000 468.000,908.000 "
     id="polygon56"
     style="fill:#6e3710;fill-opacity:1;stroke:#6e3710;stroke-opacity:1" />
  <polygon
     stroke="black"
     stroke-width="1"
     fill="grey"
     fill-opacity="0.25"
     points="100.000,892.000 84.000,892.000 56.000,776.000 128.000,776.000 "
     id="polygon58"
     style="fill:#6e3710;fill-opacity:1;stroke:#6e3710;stroke-opacity:1" />
  <polygon
     stroke="black"
     stroke-width="1"
     fill="grey"
     fill-opacity="0.25"
     points="544.000,908.000 516.000,792.000 496.000,792.000 468.000,908.000 "
     id="polygon60"
     style="fill:#6e3710;fill-opacity:1;stroke:#6e3710;stroke-opacity:1" />
  <polygon
     stroke="black"
     stroke-width="1"
     fill="grey"
     fill-opacity="0.25"
     points="56.000,776.000 84.000,892.000 100.000,892.000 128.000,776.000 "
     id="polygon62"
     style="fill:#6e3710;fill-opacity:1;stroke:#6e3710;stroke-opacity:1" />
  <polygon
     stroke="black"
     stroke-width="1"
     fill="grey"
     fill-opacity="0.25"
     points="56.000,776.000 84.000,892.000 100.000,892.000 128.000,776.000 "
     id="polygon64"
     style="fill:#6e3710;fill-opacity:1;stroke:#6e3710;stroke-opacity:1" />
  <polygon
     stroke="black"
     stroke-width="1"
     fill="grey"
     fill-opacity="0.25"
     points="452.000,908.000 424.000,792.000 404.000,792.000 376.000,908.000 "
     id="polygon66"
     style="fill:#6e3710;fill-opacity:1;stroke:#6e3710;stroke-opacity:1" />
  <polygon
     stroke="black"
     stroke-width="1"
     fill="grey"
     fill-opacity="0.25"
     points="192.001,868.000 192.001,776.000 176.001,776.000 176.001,868.000 "
     id="polygon68"
     style="fill:#6e3710;fill-opacity:1;stroke:#6e3710;stroke-opacity:1" />
  <polygon
     stroke="black"
     stroke-width="1"
     fill="grey"
     fill-opacity="0.25"
     points="100.000,892.000 84.000,892.000 56.000,776.000 128.000,776.000 "
     id="polygon70"
     style="fill:#6e3710;fill-opacity:1;stroke:#6e3710;stroke-opacity:1" />
  <polygon
     stroke="black"
     stroke-width="1"
     fill="grey"
     fill-opacity="0.25"
     points="192.001,868.000 192.001,776.000 176.001,776.000 176.001,868.000 "
     id="polygon72"
     style="fill:#6e3710;fill-opacity:1;stroke:#6e3710;stroke-opacity:1" />
  <polygon
     stroke="black"
     stroke-width="1"
     fill="grey"
     fill-opacity="0.25"
     points="728.000,908.000 699.999,792.000 679.999,792.000 652.000,908.000 "
     id="polygon74"
     style="fill:#6e3710;fill-opacity:1;stroke:#6e3710;stroke-opacity:1" />
  <polygon
     stroke="black"
     stroke-width="1"
     fill="grey"
     fill-opacity="0.25"
     points="100.000,892.000 84.000,892.000 56.000,776.000 128.000,776.000 "
     id="polygon76"
     style="fill:#6e3710;fill-opacity:1;stroke:#6e3710;stroke-opacity:1" />
  <polygon
     stroke="black"
     stroke-width="1"
     fill="grey"
     fill-opacity="0.25"
     points="360.000,908.000 332.001,792.000 312.000,792.000 284.000,908.000 "
     id="polygon78"
     style="fill:#6e3710;fill-opacity:1;stroke:#6e3710;stroke-opacity:1" />
  <polygon
     stroke="black"
     stroke-width="1"
     fill="grey"
     fill-opacity="0.25"
     points="56.000,776.000 84.000,892.000 100.000,892.000 128.000,776.000 "
     id="polygon80"
     style="fill:#6e3710;fill-opacity:1;stroke:#6e3710;stroke-opacity:1" />
  <polygon
     stroke="black"
     stroke-width="1"
     fill="grey"
     fill-opacity="0.25"
     points="192.001,868.000 192.001,776.000 176.001,776.000 176.001,868.000 "
     id="polygon82"
     style="fill:#6e3710;fill-opacity:1;stroke:#6e3710;stroke-opacity:1" />
  <polygon
     stroke="black"
     stroke-width="1"
     fill="grey"
     fill-opacity="0.25"
     points="92.000,928.000 100.000,908.000 84.000,908.000 "
     id="polygon84"
     style="fill:#6e3710;fill-opacity:1;stroke:#6e3710;stroke-opacity:1" />
  <polygon
     stroke="black"
     stroke-width="1"
     fill="grey"
     fill-opacity="0.25"
     points="820.000,908.000 792.000,792.000 772.000,792.000 744.000,908.000 "
     id="polygon86"
     style="fill:#6e3710;fill-opacity:1;stroke:#6e3710;stroke-opacity:1" />
  <polygon
     stroke="black"
     stroke-width="1"
     fill="grey"
     fill-opacity="0.25"
     points="100.000,892.000 84.000,892.000 56.000,776.000 128.000,776.000 "
     id="polygon88"
     style="fill:#6e3710;fill-opacity:1;stroke:#6e3710;stroke-opacity:1" />
  <polygon
     stroke="black"
     stroke-width="1"
     fill="grey"
     fill-opacity="0.25"
     points="268.000,908.000 240.000,792.000 220.000,792.000 192.000,908.000 "
     id="polygon90"
     style="fill:#6e3710;fill-opacity:1;stroke:#6e3710;stroke-opacity:1" />
  <polygon
     stroke="black"
     stroke-width="1"
     fill="grey"
     fill-opacity="0.25"
     points="1004.000,908.000 976.000,792.000 956.000,792.000 928.000,908.000 "
     id="polygon92"
     style="fill:#6e3710;fill-opacity:1;stroke:#6e3710;stroke-opacity:1" />
  <polygon
     stroke="black"
     stroke-width="1"
     fill="grey"
     fill-opacity="0.25"
     points="56.000,776.000 84.000,892.000 100.000,892.000 128.000,776.000 "
     id="polygon94"
     style="fill:#6e3710;fill-opacity:1;stroke:#6e3710;stroke-opacity:1" />
  <polygon
     stroke="black"
     stroke-width="1"
     fill="grey"
     fill-opacity="0.25"
     points="192.001,868.000 192.001,776.000 176.001,776.000 176.001,868.000 "
     id="polygon96"
     style="fill:#6e3710;fill-opacity:1;stroke:#6e3710;stroke-opacity:1" />
  <polygon
     stroke="black"
     stroke-width="1"
     fill="grey"
     fill-opacity="0.25"
     points="912.000,908.000 884.000,792.000 864.000,792.000 836.000,908.000 "
     id="polygon98"
     style="fill:#6e3710;fill-opacity:1;stroke:#6e3710;stroke-opacity:1" />
  <polygon
     stroke="black"
     stroke-width="1"
     fill="grey"
     fill-opacity="0.25"
     points="176.000,908.000 148.000,792.000 128.000,792.000 100.000,908.000 "
     id="polygon100"
     style="fill:#6e3710;fill-opacity:1;stroke:#6e3710;stroke-opacity:1" />
  <polygon
     stroke="black"
     stroke-width="1"
     fill="grey"
     fill-opacity="0.25"
     points="56.000,776.000 84.000,892.000 100.000,892.000 128.000,776.000 "
     id="polygon102"
     style="fill:#6e3710;fill-opacity:1;stroke:#6e3710;stroke-opacity:1" />
  <polygon
     stroke="black"
     stroke-width="1"
     fill="grey"
     fill-opacity="0.25"
     points="56.000,776.000 84.000,892.000 100.000,892.000 128.000,776.000 "
     id="polygon104"
     style="fill:#6e3710;fill-opacity:1;stroke:#6e3710;stroke-opacity:1" />
  <polygon
     stroke="black"
     stroke-width="1"
     fill="grey"
     fill-opacity="0.25"
     points="84.000,908.000 56.000,792.000 36.000,792.000 8.000,908.000 "
     id="polygon106"
     style="fill:#6e3710;fill-opacity:1;stroke:#6e3710;stroke-opacity:1" />
  <polygon
     stroke="black"
     stroke-width="1"
     fill="grey"
     fill-opacity="0.25"
     points="192.001,868.000 192.001,776.000 176.001,776.000 176.001,868.000 "
     id="polygon108"
     style="fill:#6e3710;fill-opacity:1;stroke:#6e3710;stroke-opacity:1" />
  <polygon
     stroke="black"
     stroke-width="1"
     fill="grey"
     fill-opacity="0.25"
     points="100.000,892.000 84.000,892.000 56.000,776.000 128.000,776.000 "
     id="polygon110"
     style="fill:#6e3710;fill-opacity:1;stroke:#6e3710;stroke-opacity:1" />
  <polygon
     stroke="black"
     stroke-width="1"
     fill="grey"
     fill-opacity="0.25"
     points="56.000,776.000 128.000,776.000 138.000,756.000 46.000,756.000 "
     id="polygon112"
     style="fill:#6e3710;fill-opacity:1;stroke:#6e3710;stroke-opacity:1" />
  <polygon
     stroke="black"
     stroke-width="1"
     fill="grey"
     fill-opacity="0.25"
     points="84.000,908.000 8.000,908.000 0.000,928.000 92.000,928.000 "
     id="polygon114"
     style="fill:#6e3710;fill-opacity:1;stroke:#6e3710;stroke-opacity:1" />
  <polygon
     stroke="black"
     stroke-width="1"
     fill="grey"
     fill-opacity="0.25"
     points="128.000,776.000 56.000,776.000 46.000,756.000 138.000,756.000 "
     id="polygon116"
     style="fill:#6e3710;fill-opacity:1;stroke:#6e3710;stroke-opacity:1" />
  <polygon
     stroke="black"
     stroke-width="1"
     fill="grey"
     fill-opacity="0.25"
     points="92.000,928.000 0.000,928.000 0.000,1024.000 92.000,1024.000 "
     id="polygon118"
     style="fill:#6e3710;fill-opacity:1;stroke:#6e3710;stroke-opacity:1" />
  <polygon
     stroke="black"
     stroke-width="1"
     fill="grey"
     fill-opacity="0.25"
     points="184.000,928.000 192.000,908.000 176.000,908.000 "
     id="polygon120"
     style="fill:#6e3710;fill-opacity:1;stroke:#6e3710;stroke-opacity:1" />
  <polygon
     stroke="black"
     stroke-width="1"
     fill="grey"
     fill-opacity="0.25"
     points="276.000,928.000 284.000,908.000 268.000,908.000 "
     id="polygon122"
     style="fill:#6e3710;fill-opacity:1;stroke:#6e3710;stroke-opacity:1" />
  <polygon
     stroke="black"
     stroke-width="1"
     fill="grey"
     fill-opacity="0.25"
     points="368.000,928.000 376.000,908.000 360.000,908.000 "
     id="polygon124"
     style="fill:#6e3710;fill-opacity:1;stroke:#6e3710;stroke-opacity:1" />
  <polygon
     stroke="black"
     stroke-width="1"
     fill="grey"
     fill-opacity="0.25"
     points="460.000,928.000 468.000,908.000 452.000,908.000 "
     id="polygon126"
     style="fill:#6e3710;fill-opacity:1;stroke:#6e3710;stroke-opacity:1" />
  <polygon
     stroke="black"
     stroke-width="1"
     fill="grey"
     fill-opacity="0.25"
     points="552.000,928.000 560.000,908.000 544.000,908.000 "
     id="polygon128"
     style="fill:#6e3710;fill-opacity:1;stroke:#6e3710;stroke-opacity:1" />
  <polygon
     stroke="black"
     stroke-width="1"
     fill="grey"
     fill-opacity="0.25"
     points="643.999,928.000 652.000,908.000 636.000,908.000 "
     id="polygon130"
     style="fill:#6e3710;fill-opacity:1;stroke:#6e3710;stroke-opacity:1" />
  <polygon
     stroke="black"
     stroke-width="1"
     fill="grey"
     fill-opacity="0.25"
     points="736.000,928.000 744.000,908.000 728.000,908.000 "
     id="polygon132"
     style="fill:#6e3710;fill-opacity:1;stroke:#6e3710;stroke-opacity:1" />
  <polygon
     stroke="black"
     stroke-width="1"
     fill="grey"
     fill-opacity="0.25"
     points="828.000,928.000 836.000,908.000 820.000,908.000 "
     id="polygon134"
     style="fill:#6e3710;fill-opacity:1;stroke:#6e3710;stroke-opacity:1" />
  <polygon
     stroke="black"
     stroke-width="1"
     fill="grey"
     fill-opacity="0.25"
     points="920.000,928.000 928.000,908.000 912.000,908.000 "
     id="polygon136"
     style="fill:#6e3710;fill-opacity:1;stroke:#6e3710;stroke-opacity:1" />
  <polygon
     stroke="black"
     stroke-width="1"
     fill="grey"
     fill-opacity="0.25"
     points="1012.000,928.000 1004.000,908.000 928.000,908.000 920.000,928.000 "
     id="polygon138"
     style="fill:#6e3710;fill-opacity:1;stroke:#6e3710;stroke-opacity:1" />
  <polygon
     stroke="black"
     stroke-width="1"
     fill="grey"
     fill-opacity="0.25"
     points="1012.000,928.000 920.000,928.000 920.000,1024.000 1012.000,1024.000 "
     id="polygon140"
     style="fill:#6e3710;fill-opacity:1;stroke:#6e3710;stroke-opacity:1" />
  <polygon
     stroke="black"
     stroke-width="1"
     fill="grey"
     fill-opacity="0.25"
     points="920.000,928.000 1012.000,928.000 1004.000,908.000 928.000,908.000 "
     id="polygon142"
     style="fill:#6e3710;fill-opacity:1;stroke:#6e3710;stroke-opacity:1" />
  <polygon
     stroke="black"
     stroke-width="1"
     fill="grey"
     fill-opacity="0.25"
     points="920.000,928.000 828.000,928.000 828.000,1024.000 920.000,1024.000 "
     id="polygon144"
     style="fill:#6e3710;fill-opacity:1;stroke:#6e3710;stroke-opacity:1" />
  <polygon
     stroke="black"
     stroke-width="1"
     fill="grey"
     fill-opacity="0.25"
     points="100.000,908.000 84.000,908.000 92.000,928.000 "
     id="polygon146"
     style="fill:#6e3710;fill-opacity:1;stroke:#6e3710;stroke-opacity:1" />
  <polygon
     stroke="black"
     stroke-width="1"
     fill="grey"
     fill-opacity="0.25"
     points="828.000,928.000 736.000,928.000 736.000,1024.000 828.000,1024.000 "
     id="polygon148"
     style="fill:#6e3710;fill-opacity:1;stroke:#6e3710;stroke-opacity:1" />
  <polygon
     stroke="black"
     stroke-width="1"
     fill="grey"
     fill-opacity="0.25"
     points="184.000,928.000 276.000,928.000 268.000,908.000 192.000,908.000 "
     id="polygon150"
     style="fill:#6e3710;fill-opacity:1;stroke:#6e3710;stroke-opacity:1" />
  <polygon
     stroke="black"
     stroke-width="1"
     fill="grey"
     fill-opacity="0.25"
     points="736.000,928.000 644.000,928.000 644.000,1024.000 736.000,1024.000 "
     id="polygon152"
     style="fill:#6e3710;fill-opacity:1;stroke:#6e3710;stroke-opacity:1" />
  <polygon
     stroke="black"
     stroke-width="1"
     fill="grey"
     fill-opacity="0.25"
     points="276.000,928.000 368.000,928.000 360.000,908.000 284.000,908.000 "
     id="polygon154"
     style="fill:#6e3710;fill-opacity:1;stroke:#6e3710;stroke-opacity:1" />
  <polygon
     stroke="black"
     stroke-width="1"
     fill="grey"
     fill-opacity="0.25"
     points="644.000,928.000 552.000,928.000 552.000,1024.000 644.000,1024.000 "
     id="polygon156"
     style="fill:#6e3710;fill-opacity:1;stroke:#6e3710;stroke-opacity:1" />
  <polygon
     stroke="black"
     stroke-width="1"
     fill="grey"
     fill-opacity="0.25"
     points="368.000,928.000 460.000,928.000 452.000,908.000 376.000,908.000 "
     id="polygon158"
     style="fill:#6e3710;fill-opacity:1;stroke:#6e3710;stroke-opacity:1" />
  <polygon
     stroke="black"
     stroke-width="1"
     fill="grey"
     fill-opacity="0.25"
     points="552.000,928.000 460.000,928.000 460.000,1024.000 552.000,1024.000 "
     id="polygon160"
     style="fill:#6e3710;fill-opacity:1;stroke:#6e3710;stroke-opacity:1" />
  <polygon
     stroke="black"
     stroke-width="1"
     fill="grey"
     fill-opacity="0.25"
     points="460.000,928.000 552.000,928.000 544.000,908.000 468.000,908.000 "
     id="polygon162"
     style="fill:#6e3710;fill-opacity:1;stroke:#6e3710;stroke-opacity:1" />
  <polygon
     stroke="black"
     stroke-width="1"
     fill="grey"
     fill-opacity="0.25"
     points="460.000,928.000 368.000,928.000 368.000,1024.000 460.000,1024.000 "
     id="polygon164"
     style="fill:#6e3710;fill-opacity:1;stroke:#6e3710;stroke-opacity:1" />
  <polygon
     stroke="black"
     stroke-width="1"
     fill="grey"
     fill-opacity="0.25"
     points="552.000,928.000 644.000,928.000 636.000,908.000 560.000,908.000 "
     id="polygon166"
     style="fill:#6e3710;fill-opacity:1;stroke:#6e3710;stroke-opacity:1" />
  <polygon
     stroke="black"
     stroke-width="1"
     fill="grey"
     fill-opacity="0.25"
     points="368.000,928.000 276.000,928.000 276.000,1024.000 368.000,1024.000 "
     id="polygon168"
     style="fill:#6e3710;fill-opacity:1;stroke:#6e3710;stroke-opacity:1" />
  <polygon
     stroke="black"
     stroke-width="1"
     fill="grey"
     fill-opacity="0.25"
     points="644.000,928.000 736.000,928.000 728.000,908.000 652.000,908.000 "
     id="polygon170"
     style="fill:#6e3710;fill-opacity:1;stroke:#6e3710;stroke-opacity:1" />
  <polygon
     stroke="black"
     stroke-width="1"
     fill="grey"
     fill-opacity="0.25"
     points="276.000,928.000 184.000,928.000 184.000,1024.000 276.000,1024.000 "
     id="polygon172"
     style="fill:#6e3710;fill-opacity:1;stroke:#6e3710;stroke-opacity:1" />
  <polygon
     stroke="black"
     stroke-width="1"
     fill="grey"
     fill-opacity="0.25"
     points="736.000,928.000 828.000,928.000 820.000,908.000 744.001,908.000 "
     id="polygon174"
     style="fill:#6e3710;fill-opacity:1;stroke:#6e3710;stroke-opacity:1" />
  <polygon
     stroke="black"
     stroke-width="1"
     fill="grey"
     fill-opacity="0.25"
     points="184.000,928.000 92.000,928.000 92.000,1024.000 184.000,1024.000 "
     id="polygon176"
     style="fill:#6e3710;fill-opacity:1;stroke:#6e3710;stroke-opacity:1" />
  <polygon
     stroke="black"
     stroke-width="1"
     fill="grey"
     fill-opacity="0.25"
     points="828.000,928.000 920.000,928.000 912.000,908.000 836.000,908.000 "
     id="polygon178"
     style="fill:#6e3710;fill-opacity:1;stroke:#6e3710;stroke-opacity:1" />
  <polygon
     stroke="black"
     stroke-width="1"
     fill="grey"
     fill-opacity="0.25"
     points="0.000,928.000 92.000,928.000 84.000,908.000 8.000,908.000 "
     id="polygon180"
     style="fill:#6e3710;fill-opacity:1;stroke:#6e3710;stroke-opacity:1" />
  <polygon
     stroke="black"
     stroke-width="1"
     fill="grey"
     fill-opacity="0.25"
     points="92.000,928.000 184.000,928.000 176.000,908.000 100.000,908.000 "
     id="polygon182"
     style="fill:#6e3710;fill-opacity:1;stroke:#6e3710;stroke-opacity:1" />
  <polygon
     stroke="black"
     stroke-width="1"
     fill="grey"
     fill-opacity="0.25"
     points="184.000,928.000 276.000,928.000 268.000,908.000 192.000,908.000 "
     id="polygon184"
     style="fill:#6e3710;fill-opacity:1;stroke:#6e3710;stroke-opacity:1" />
  <polygon
     stroke="black"
     stroke-width="1"
     fill="grey"
     fill-opacity="0.25"
     points="276.000,928.000 368.000,928.000 360.000,908.000 284.000,908.000 "
     id="polygon186"
     style="fill:#6e3710;fill-opacity:1;stroke:#6e3710;stroke-opacity:1" />
  <polygon
     stroke="black"
     stroke-width="1"
     fill="grey"
     fill-opacity="0.25"
     points="368.000,928.000 460.000,928.000 452.000,908.000 376.000,908.000 "
     id="polygon188"
     style="fill:#6e3710;fill-opacity:1;stroke:#6e3710;stroke-opacity:1" />
  <polygon
     stroke="black"
     stroke-width="1"
     fill="grey"
     fill-opacity="0.25"
     points="460.000,928.000 552.000,928.000 544.000,908.000 468.000,908.000 "
     id="polygon190"
     style="fill:#6e3710;fill-opacity:1;stroke:#6e3710;stroke-opacity:1" />
  <polygon
     stroke="black"
     stroke-width="1"
     fill="grey"
     fill-opacity="0.25"
     points="552.000,928.000 643.999,928.000 636.000,908.000 560.000,908.000 "
     id="polygon192"
     style="fill:#6e3710;fill-opacity:1;stroke:#6e3710;stroke-opacity:1" />
  <polygon
     stroke="black"
     stroke-width="1"
     fill="grey"
     fill-opacity="0.25"
     points="643.999,928.000 736.000,928.000 728.000,908.000 652.000,908.000 "
     id="polygon194"
     style="fill:#6e3710;fill-opacity:1;stroke:#6e3710;stroke-opacity:1" />
  <polygon
     stroke="black"
     stroke-width="1"
     fill="grey"
     fill-opacity="0.25"
     points="736.000,928.000 828.000,928.000 820.000,908.000 744.000,908.000 "
     id="polygon196"
     style="fill:#6e3710;fill-opacity:1;stroke:#6e3710;stroke-opacity:1" />
  <polygon
     stroke="black"
     stroke-width="1"
     fill="grey"
     fill-opacity="0.25"
     points="828.000,928.000 920.000,928.000 912.000,908.000 836.000,908.000 "
     id="polygon198"
     style="fill:#6e3710;fill-opacity:1;stroke:#6e3710;stroke-opacity:1" />
  <polygon
     stroke="black"
     stroke-width="1"
     fill="grey"
     fill-opacity="0.25"
     points="912.000,908.000 920.000,928.000 928.000,908.000 "
     id="polygon200"
     style="fill:#6e3710;fill-opacity:1;stroke:#6e3710;stroke-opacity:1" />
  <polygon
     stroke="black"
     stroke-width="1"
     fill="grey"
     fill-opacity="0.25"
     points="820.000,908.000 828.000,928.000 836.000,908.000 "
     id="polygon202"
     style="fill:#6e3710;fill-opacity:1;stroke:#6e3710;stroke-opacity:1" />
  <polygon
     stroke="black"
     stroke-width="1"
     fill="grey"
     fill-opacity="0.25"
     points="728.000,908.000 736.000,928.000 744.001,908.000 "
     id="polygon204"
     style="fill:#6e3710;fill-opacity:1;stroke:#6e3710;stroke-opacity:1" />
  <polygon
     stroke="black"
     stroke-width="1"
     fill="grey"
     fill-opacity="0.25"
     points="636.000,908.000 644.000,928.000 652.000,908.000 "
     id="polygon206"
     style="fill:#6e3710;fill-opacity:1;stroke:#6e3710;stroke-opacity:1" />
  <polygon
     stroke="black"
     stroke-width="1"
     fill="grey"
     fill-opacity="0.25"
     points="544.000,908.000 552.000,928.000 560.000,908.000 "
     id="polygon208"
     style="fill:#6e3710;fill-opacity:1;stroke:#6e3710;stroke-opacity:1" />
  <polygon
     stroke="black"
     stroke-width="1"
     fill="grey"
     fill-opacity="0.25"
     points="452.000,908.000 460.000,928.000 468.000,908.000 "
     id="polygon210"
     style="fill:#6e3710;fill-opacity:1;stroke:#6e3710;stroke-opacity:1" />
  <polygon
     stroke="black"
     stroke-width="1"
     fill="grey"
     fill-opacity="0.25"
     points="360.000,908.000 368.000,928.000 376.000,908.000 "
     id="polygon212"
     style="fill:#6e3710;fill-opacity:1;stroke:#6e3710;stroke-opacity:1" />
  <polygon
     stroke="black"
     stroke-width="1"
     fill="grey"
     fill-opacity="0.25"
     points="268.000,908.000 276.000,928.000 284.000,908.000 "
     id="polygon214"
     style="fill:#6e3710;fill-opacity:1;stroke:#6e3710;stroke-opacity:1" />
  <polygon
     stroke="black"
     stroke-width="1"
     fill="grey"
     fill-opacity="0.25"
     points="176.000,908.000 184.000,928.000 192.000,908.000 "
     id="polygon216"
     style="fill:#6e3710;fill-opacity:1;stroke:#6e3710;stroke-opacity:1" />
  <polygon
     stroke="black"
     stroke-width="1"
     fill="grey"
     fill-opacity="0.25"
     points="176.000,908.000 100.000,908.000 92.000,928.000 184.000,928.000 "
     id="polygon218"
     style="fill:#6e3710;fill-opacity:1;stroke:#6e3710;stroke-opacity:1" />
  <polygon
     stroke="black"
     stroke-width="1"
     fill="grey"
     fill-opacity="0.25"
     points="192.001,868.000 176.001,868.000 176.000,892.000 192.000,892.000 "
     id="polygon220"
     style="fill:#6e3710;fill-opacity:1;stroke:#6e3710;stroke-opacity:1" />
  <polygon
     stroke="black"
     stroke-width="1"
     fill="grey"
     fill-opacity="0.25"
     points="192.001,868.000 176.001,868.000 176.000,892.000 192.000,892.000 "
     id="polygon222"
     style="fill:#6e3710;fill-opacity:1;stroke:#6e3710;stroke-opacity:1" />
  <polygon
     stroke="black"
     stroke-width="1"
     fill="grey"
     fill-opacity="0.25"
     points="192.001,868.000 176.001,868.000 176.000,892.000 192.000,892.000 "
     id="polygon224"
     style="fill:#6e3710;fill-opacity:1;stroke:#6e3710;stroke-opacity:1" />
  <polygon
     stroke="black"
     stroke-width="1"
     fill="grey"
     fill-opacity="0.25"
     points="192.001,868.000 176.001,868.000 176.000,892.000 192.000,892.000 "
     id="polygon226"
     style="fill:#6e3710;fill-opacity:1;stroke:#6e3710;stroke-opacity:1" />
  <polygon
     stroke="black"
     stroke-width="1"
     fill="grey"
     fill-opacity="0.25"
     points="192.001,868.000 176.001,868.000 176.000,892.000 192.000,892.000 "
     id="polygon228"
     style="fill:#6e3710;fill-opacity:1;stroke:#6e3710;stroke-opacity:1" />
  <polygon
     stroke="black"
     stroke-width="1"
     fill="grey"
     fill-opacity="0.25"
     points="192.001,868.000 176.001,868.000 176.000,892.000 192.000,892.000 "
     id="polygon230"
     style="fill:#6e3710;fill-opacity:1;stroke:#6e3710;stroke-opacity:1" />
  <polygon
     stroke="black"
     stroke-width="1"
     fill="grey"
     fill-opacity="0.25"
     points="192.001,868.000 176.001,868.000 176.000,892.000 192.000,892.000 "
     id="polygon232"
     style="fill:#6e3710;fill-opacity:1;stroke:#6e3710;stroke-opacity:1" />
  <polygon
     stroke="black"
     stroke-width="1"
     fill="grey"
     fill-opacity="0.25"
     points="192.001,868.000 176.001,868.000 176.000,892.000 192.000,892.000 "
     id="polygon234"
     style="fill:#6e3710;fill-opacity:1;stroke:#6e3710;stroke-opacity:1" />
  <polygon
     stroke="black"
     stroke-width="1"
     fill="grey"
     fill-opacity="0.25"
     points="192.001,868.000 176.001,868.000 176.000,892.000 192.000,892.000 "
     id="polygon236"
     style="fill:#6e3710;fill-opacity:1;stroke:#6e3710;stroke-opacity:1" />
  <polygon
     stroke="black"
     stroke-width="1"
     fill="grey"
     fill-opacity="0.25"
     points="192.001,868.000 176.001,868.000 176.000,892.000 192.000,892.000 "
     id="polygon238"
     style="fill:#6e3710;fill-opacity:1;stroke:#6e3710;stroke-opacity:1" />
  <polygon
     stroke="black"
     stroke-width="1"
     fill="grey"
     fill-opacity="0.25"
     points="192.001,868.000 176.001,868.000 176.000,892.000 192.000,892.000 "
     id="polygon240"
     style="fill:#6e3710;fill-opacity:1;stroke:#6e3710;stroke-opacity:1" />
  <polygon
     stroke="black"
     stroke-width="1"
     fill="grey"
     fill-opacity="0.25"
     points="100.000,892.000 84.000,892.000 56.000,776.000 128.000,776.000 "
     id="polygon242"
     style="fill:#6e3710;fill-opacity:1;stroke:#6e3710;stroke-opacity:1" />
  <polygon
     transform="translate(0,2.2185374e-6)"
     points="1012,584 1012,424 0,424 0,584 "
     id="wrapperBack"
     style="fill:#ffc43e;fill-opacity:1;stroke:#ffc43e;stroke-width:1;stroke-opacity:1" />
  <polygon
     transform="translate(0,2.2185374e-6)"
     points="80,107.999 160,247.999 0,247.999 "
     id="wrapperSideLeft"
     style="fill:#ffc43e;fill-opacity:1;stroke:#ffc43e;stroke-width:1;stroke-opacity:1" />
  <polygon
     transform="translate(0,2.2185374e-6)"
     points="1012,744 1012,584 0,584 0,744 "
     id="wrapperFront"
     style="fill:#ffc43e;fill-opacity:1;stroke:#ffc43e;stroke-width:1;stroke-opacity:1" />
  <polygon
     transform="translate(160,2.2185374e-6)"
     points="0,247.999 160,247.999 80,107.999 "
     id="wrapperSideRight"
     style="fill:#ffc43e;fill-opacity:1;stroke:#ffc43e;stroke-width:1;stroke-opacity:1" />
  <polygon
     transform="translate(0,2.2185374e-6)"
     points="1012,424 1012,264 0,264 0,424 "
     id="wrapperBottom"
     style="fill:#ffc43e;fill-opacity:1;stroke:#ffc43e;stroke-width:1;stroke-opacity:1" />
  <text
     xml:space="preserve"
     style="font-style:normal;font-variant:normal;font-weight:normal;font-stretch:normal;font-size:99.52598572px;line-height:125%;font-family:'Comic Sans MS';-inkscape-font-specification:'Comic Sans MS';font-variant-ligatures:normal;font-variant-caps:normal;font-variant-numeric:normal;font-feature-settings:normal;text-align:start;letter-spacing:0px;word-spacing:0px;writing-mode:lr-tb;text-anchor:start;fill:#ff0000;fill-opacity:1;stroke:none;stroke-width:4.66528034px;stroke-linecap:butt;stroke-linejoin:miter;stroke-opacity:1;"
     x="12.63841"
     y="793.2829"
     id="text1095"
     transform="scale(1.1366031,0.8798146)"><tspan
       sodipodi:role="line"
       id="tspan1093"
       x="12.63841"
       y="793.2829"
       style="font-style:normal;font-variant:normal;font-weight:normal;font-stretch:normal;font-family:'Comic Sans MS';-inkscape-font-specification:'Comic Sans MS';fill:#ff0000;stroke-width:4.66528034px;fill-opacity:1;">:V CHOCOLATE :V</tspan></text>
  <text
     xml:space="preserve"
     style="font-style:normal;font-variant:normal;font-weight:normal;font-stretch:normal;font-size:99.52598572px;line-height:125%;font-family:'Comic Sans MS';-inkscape-font-specification:'Comic Sans MS';font-variant-ligatures:normal;font-variant-caps:normal;font-variant-numeric:normal;font-feature-settings:normal;text-align:start;letter-spacing:0px;word-spacing:0px;writing-mode:lr-tb;text-anchor:start;fill:#ff0000;fill-opacity:1;stroke:none;stroke-width:4.66528034px;stroke-linecap:butt;stroke-linejoin:miter;stroke-opacity:1;"
     x="12.63841"
     y="613.73779"
     id="text1095-7"
     transform="scale(1.1366031,0.8798146)"><tspan
       sodipodi:role="line"
       id="tspan1093-8"
       x="12.63841"
       y="613.73779"
       style="font-style:normal;font-variant:normal;font-weight:normal;font-stretch:normal;font-family:'Comic Sans MS';-inkscape-font-specification:'Comic Sans MS';fill:#ff0000;stroke-width:4.66528034px;fill-opacity:1;">:V CHOCOLATE :V</tspan></text>
  <text
     xml:space="preserve"
     style="font-style:normal;font-variant:normal;font-weight:normal;font-stretch:normal;font-size:21.33333397px;line-height:125%;font-family:sans-serif;-inkscape-font-specification:'sans-serif, Normal';font-variant-ligatures:normal;font-variant-caps:normal;font-variant-numeric:normal;font-feature-settings:normal;text-align:start;letter-spacing:0px;word-spacing:0px;writing-mode:lr-tb;text-anchor:start;fill:#000000;fill-opacity:1;stroke:none;stroke-width:1px;stroke-linecap:butt;stroke-linejoin:miter;stroke-opacity:1"
     x="15.04442"
     y="295.59933"
     id="text1117"><tspan
       sodipodi:role="line"
       id="tspan1115"
       x="15.04442"
       y="295.59933">Ingrediants: Chocolate, :V</tspan></text>
  <flowRoot
     xml:space="preserve"
     id="flowRoot1085"
     style="font-style:normal;font-variant:normal;font-weight:normal;font-stretch:normal;font-size:21.33333397px;line-height:125%;font-family:'Comic Sans MS';-inkscape-font-specification:'Comic Sans MS';font-variant-ligatures:normal;font-variant-caps:normal;font-variant-numeric:normal;font-feature-settings:normal;text-align:start;letter-spacing:0px;word-spacing:0px;writing-mode:lr-tb;text-anchor:start;fill:#b85c1b;fill-opacity:1;stroke:none;stroke-width:1px;stroke-linecap:butt;stroke-linejoin:miter;stroke-opacity:1;"><flowRegion
       id="flowRegion1087"
       style="font-style:normal;font-variant:normal;font-weight:normal;font-stretch:normal;font-family:'Comic Sans MS';-inkscape-font-specification:'Comic Sans MS';fill:#b85c1b;fill-opacity:1;"><rect
         id="rect1089"
         width="952.81311"
         height="35.103691"
         x="35.103642"
         y="839.70587"
         style="font-style:normal;font-variant:normal;font-weight:normal;font-stretch:normal;font-family:'Comic Sans MS';-inkscape-font-specification:'Comic Sans MS';fill:#b85c1b;fill-opacity:1;" /></flowRegion><flowPara
       id="flowPara1091"
       style="font-style:normal;font-variant:normal;font-weight:normal;font-stretch:normal;font-family:'Comic Sans MS';-inkscape-font-specification:'Comic Sans MS';fill:#b85c1b;fill-opacity:1;">:V            C            H            O            C            O            L            A            T             E            :V</flowPara></flowRoot></svg>
