<?xml version="1.0" encoding="UTF-8" standalone="no"?>
<svg
   xmlns:dc="http://purl.org/dc/elements/1.1/"
   xmlns:cc="http://creativecommons.org/ns#"
   xmlns:rdf="http://www.w3.org/1999/02/22-rdf-syntax-ns#"
   xmlns:svg="http://www.w3.org/2000/svg"
   xmlns="http://www.w3.org/2000/svg"
   xmlns:sodipodi="http://sodipodi.sourceforge.net/DTD/sodipodi-0.dtd"
   xmlns:inkscape="http://www.inkscape.org/namespaces/inkscape"
   version="1.0"
   width="64.000000pt"
   height="64.000000pt"
   viewBox="0 0 64.000000 64.000000"
   preserveAspectRatio="xMidYMid meet"
   id="svg8"
   sodipodi:docname="pandorasBoxLocationKey.svg"
   inkscape:version="0.92.1 r15371">
  <defs
     id="defs12" />
  <sodipodi:namedview
     pagecolor="#ffffff"
     bordercolor="#666666"
     borderopacity="1"
     objecttolerance="10"
     gridtolerance="10"
     guidetolerance="10"
     inkscape:pageopacity="0"
     inkscape:pageshadow="2"
     inkscape:window-width="1920"
     inkscape:window-height="1056"
     id="namedview10"
     showgrid="false"
     inkscape:pagecheckerboard="true"
     inkscape:zoom="5.53125"
     inkscape:cx="71.955505"
     inkscape:cy="70.087127"
     inkscape:window-x="0"
     inkscape:window-y="24"
     inkscape:window-maximized="1"
     inkscape:current-layer="svg8" />
  <metadata
     id="metadata2">
Created by potrace 1.13, written by Peter Selinger 2001-2015
<rdf:RDF>
  <cc:Work
     rdf:about="">
    <dc:format>image/svg+xml</dc:format>
    <dc:type
       rdf:resource="http://purl.org/dc/dcmitype/StillImage" />
    <dc:title></dc:title>
  </cc:Work>
</rdf:RDF>
</metadata>
  <g
     transform="translate(0.000000,64.000000) scale(0.100000,-0.100000)"
     fill="#ffffff"
     stroke="none"
     id="g6"
     style="fill:#cabe6e;fill-opacity:1">
    <path
       style="fill:#cabe6e;fill-opacity:1;stroke-width:0.13333334"
       d="M 61.672942,4.9033851 C 49.832842,8.1113736 50.347261,13.757437 47.037616,20.207735 l -0.0099,10.234726 C 38.060233,43.57185 27.010999,58.723263 18.254565,72.921127 c 0,0.4 2.278768,1.744889 7.745435,1.744889 8.666667,0 9.296888,-1.671327 10.127838,-3.548984 C 38.057018,66.864661 51.883474,43.068843 53.207774,40.674571 61.382953,35.750495 72.328237,30.320748 77.012137,23.526472 84.010004,13.375645 71.764709,5.7840105 61.672942,4.9033851 Z M 64.922346,15.89414 c 8.174758,1.46099 -0.471085,4.346426 -3.414738,5.360492 -0.03025,-2.765547 0.628522,-12.202337 3.414738,-5.360492 z"
       id="path4"
       inkscape:connector-curvature="0"
       sodipodi:nodetypes="ccccsccscccc"
       transform="matrix(7.4999998,0,0,-7.4999998,0,640)" />
  </g>
  <path
     sodipodi:nodetypes="csccccccsscccccssscccsccssscscccscscccss"
     inkscape:connector-curvature="0"
     id="path4-3"
     d="m 46.195311,2.7670898 c -4.76545,0.3301829 -6.787578,2.6309929 -8.743652,5.4550782 -2.744905,3.962961 -3.048848,8.930311 -2.852051,14.178222 l -11.399413,16.5 -11.500489,16.5 6.200685,0.799804 c 6.699999,0.799999 18.094335,1.014062 17.194335,-0.585937 -0.400001,-0.500001 -6.994825,-2.914356 -6.194825,-4.214356 1.2,-1.8 2.408399,-0.150879 4.608399,-0.150879 2.5,0 -0.216211,-1.881738 -1.116211,-2.781738 -1.8,-1.8 5.498925,-1.403125 7.398926,-0.703125 1.3,0.5 -4.108008,-2.868847 -4.708008,-4.568848 -0.6,-2 0.22207,-1.811133 2.62207,-0.911133 3.870996,1.758845 -0.121492,-1.899579 -1.294922,-2.358398 -1.299999,-0.5 -0.04912,-0.895606 1.650879,-1.495606 1.3,-0.499999 -0.437989,-0.596972 -0.437989,-1.896971 0,-0.562284 3.790059,-0.24783 4.444337,-1.350587 0.496347,-0.836572 -2.515917,-1.41152 -2.646973,-2.393554 -0.157048,-1.176802 2.382107,-1.344298 2.72288,-1.207989 0.900001,0.3 0.670089,-0.791816 2.070089,-2.591816 1.2,-1.7 10.286133,-6.089355 10.286133,-6.089355 0,0 3.167591,-3.0724 3.776366,-5.097656 0.9799,-3.259897 2.659485,-7.121689 -0.544922,-10.1982422 -3.029802,-2.8640371 -7.381439,-4.483369 -11.535644,-4.836914 z m 0.317871,1.6523437 c 1.651483,-0.040571 3.670824,0.4321034 6.338379,1.658203 7.562806,3.4761257 5.463352,7.2814345 4.379883,11.1123045 -1.512428,5.347558 -12.931543,9.010742 -13.331543,10.010742 -0.4,1.2 -1.199316,1.498632 -2.799316,1.098633 -2,-0.5 -1.357794,0.348231 -4.257794,6.348231 -1.899999,3.700001 -5.32831,9.566836 -7.02831,12.066836 -1.799999,2.5 -3.308047,5.156866 -3.608047,6.056866 -0.7,2 -5.384315,3.602802 -5.384315,1.802803 0,-0.6 4.977196,-8.073956 8.977197,-14.473955 6.6,-10.600001 8.630627,-14.096023 6.355,-13.229117 -0.186898,0.0712 -6.255001,9.229605 -9.355,14.229605 -6,9.9 -11.598223,14.288564 -12.498223,13.488564 5.274392,-9.255553 15.906519,-23.370794 21.401122,-31.565546 1.1,-1.6 -0.191537,-11.105908 4.339288,-15.2291697 1.991597,-1.8124455 3.719208,-3.3073809 6.471679,-3.3749998 z"
     style="fill:#b5a642;fill-opacity:1;stroke:none;stroke-width:0.1" />
  <path
     sodipodi:nodetypes="cccccc"
     style="fill:#800000;fill-opacity:1;stroke:none;stroke-width:0.1"
     id="path6"
     d="m 45.743146,16.304121 c 3.675273,-0.232969 9.071825,-3.383516 3.293944,-4.632969 -3.015778,-4.937914 -3.667459,1.872153 -3.293944,4.632969 z m 0.52952,-0.834483 c -0.342725,-2.427334 1.001093,-7.302186 2.179395,-3.261396 4.916462,0.573442 0.324361,3.000451 -2.179395,3.261396 z"
     inkscape:connector-curvature="0" />
</svg>
